<svg width="64" height="64" viewBox="0 0 64 64" fill="none" xmlns="http://www.w3.org/2000/svg">
<g clip-path="url(#clip0_27_540)">
<path d="M62 32C62 15.4315 48.5685 2 32 2C15.4315 2 2 15.4315 2 32C2 48.5685 15.4315 62 32 62C48.5685 62 62 48.5685 62 32Z" fill="#9DD9DE" stroke="white" stroke-width="4"/>
<path d="M62 31.2C62 14.6315 48.5685 1.20001 32 1.20001C15.4315 1.20001 2 14.6315 2 31.2C2 47.7686 15.4315 61.2 32 61.2C48.5685 61.2 62 47.7686 62 31.2Z" stroke="white" stroke-width="4"/>
<path d="M52.6598 38.049V38.557C52.6598 38.751 52.5748 38.897 52.3918 38.965C51.9788 39.122 51.5648 39.27 51.1128 39.305C50.5228 39.348 49.9408 39.285 49.3558 39.241C49.1288 39.225 48.9008 39.238 48.6738 39.233C47.9088 39.211 47.1458 39.205 46.3808 39.162C45.7426 39.133 45.1063 39.0699 44.4748 38.973C44.1048 38.913 43.7378 38.766 43.3988 38.603C42.9588 38.391 42.7458 38.014 42.7178 37.517C42.6878 36.981 42.8898 36.517 43.1118 36.055C43.5108 35.225 43.8848 34.385 44.1118 33.489C44.1798 33.22 44.3268 33.126 44.5998 33.097C44.9978 33.055 45.3978 33.005 45.7968 32.961C45.9918 32.941 46.1858 32.925 46.3818 32.911C46.6798 32.894 46.9788 32.871 47.2778 32.871C47.6278 32.873 47.9788 32.902 48.3288 32.911C49.3108 32.937 50.2918 32.948 51.2718 32.986C51.5448 32.996 51.8168 33.081 52.0888 33.133C52.2388 33.162 52.3848 33.207 52.5358 33.227C52.6478 33.242 52.7158 33.295 52.7158 33.397C52.7158 33.549 52.7228 33.71 52.6748 33.849C52.5818 34.121 52.5888 34.385 52.6278 34.661C52.6558 34.86 52.6608 35.069 52.6318 35.267C52.6118 35.4 52.6098 35.507 52.6938 35.61C52.7938 35.734 52.7828 35.868 52.7648 36.016C52.7408 36.216 52.7448 36.419 52.7418 36.621C52.7408 36.701 52.7848 36.795 52.7538 36.861C52.5668 37.264 52.6738 37.685 52.6598 38.049Z" fill="#DEF0F5"/>
<path d="M52.3737 33.89C50.5815 33.9262 48.7888 33.9265 46.9967 33.891C46.4017 33.879 45.7997 33.834 45.2047 33.855C45.1087 33.858 45.1117 33.991 45.2047 34C45.7957 34.06 46.4017 34.05 46.9967 34.063C48.7888 34.1005 50.5815 34.1005 52.3737 34.063C52.4867 34.06 52.4867 33.887 52.3737 33.89ZM52.2037 34.719C51.6087 34.712 51.0067 34.784 50.4107 34.803C49.2532 34.8363 48.0949 34.8213 46.9387 34.758L46.0657 34.707C45.8057 34.692 45.5457 34.657 45.2857 34.706C45.2437 34.714 45.2497 34.776 45.2857 34.786C45.5367 34.866 45.8057 34.861 46.0657 34.877C46.3567 34.896 46.6457 34.913 46.9387 34.93C48.1322 34.9955 49.3279 35.0102 50.5227 34.974C51.0847 34.956 51.6677 34.961 52.2257 34.874C52.3167 34.861 52.2917 34.72 52.2037 34.719ZM52.2977 35.555C51.1267 35.508 49.9427 35.562 48.7707 35.563C48.1907 35.564 47.6137 35.563 47.0347 35.562C46.7377 35.562 46.4377 35.559 46.1397 35.56C45.8757 35.56 45.6017 35.539 45.3467 35.61C45.3117 35.618 45.3117 35.67 45.3467 35.679C45.6017 35.752 45.8767 35.732 46.1397 35.736C46.4377 35.739 46.7377 35.739 47.0347 35.74C47.6147 35.741 48.1917 35.744 48.7707 35.744C49.9407 35.744 51.1287 35.789 52.2977 35.725C52.4077 35.717 52.4077 35.559 52.2977 35.555ZM52.3717 36.456C51.1947 36.437 50.0197 36.439 48.8447 36.435C48.2647 36.432 47.6867 36.429 47.1077 36.429H46.2127L45.7637 36.433C45.7137 36.435 45.1667 36.378 45.3137 36.533C45.4237 36.652 45.6767 36.593 45.8207 36.594C46.1197 36.598 46.4187 36.601 46.7177 36.602L48.6207 36.61C49.8707 36.616 51.1227 36.633 52.3727 36.633C52.4847 36.632 52.4847 36.459 52.3717 36.456ZM52.2417 37.385C51.0944 37.401 49.947 37.4076 48.7997 37.405C47.6557 37.404 46.4967 37.337 45.3567 37.389C45.2667 37.393 45.2677 37.518 45.3567 37.526C46.4927 37.618 47.6587 37.576 48.7987 37.578C49.9457 37.579 51.0947 37.573 52.2417 37.558C52.3537 37.557 52.3547 37.384 52.2417 37.385ZM52.2627 38.071C51.7057 38.011 51.1507 38.135 50.5947 38.165C50.0107 38.199 49.4207 38.177 48.8367 38.167C48.2435 38.1546 47.6505 38.137 47.0577 38.114C46.4897 38.092 45.8867 38.014 45.3207 38.078C45.2767 38.083 45.2567 38.153 45.3087 38.164C45.8367 38.268 46.4087 38.244 46.9457 38.264C47.5577 38.286 48.1687 38.308 48.7807 38.321C49.3667 38.333 49.9567 38.351 50.5417 38.324C51.1197 38.297 51.6837 38.188 52.2627 38.223C52.3637 38.228 52.3597 38.082 52.2627 38.071Z" fill="#BDCEDE"/>
<path d="M17.1373 39.93C17.0863 39.63 17.0203 39.332 16.9853 39.03C16.8973 38.238 16.8033 37.447 16.7523 36.652C16.6985 35.8976 16.729 35.1396 16.8433 34.392C16.8883 34.109 16.9733 33.834 17.1693 33.608C17.2247 33.5417 17.2942 33.4888 17.3728 33.4531C17.4514 33.4175 17.537 33.4 17.6233 33.402C18.4793 33.366 19.3353 33.298 20.1903 33.248C20.7683 33.213 21.3453 33.174 21.9243 33.16C22.7813 33.136 23.6383 33.124 24.4963 33.12C25.0533 33.119 25.6113 33.14 26.1683 33.148C26.4683 33.153 26.7683 33.16 27.0683 33.149C28.4003 33.103 29.7333 33.047 31.0683 33.004C32.0393 32.972 33.0113 32.958 33.9833 32.934C35.1723 32.904 36.3633 32.866 37.5513 32.844C38.3373 32.829 39.1233 32.841 39.9103 32.835C40.5403 32.83 41.1743 32.858 41.8003 32.795C42.6441 32.7125 43.4915 32.6724 44.3393 32.675C45.7773 32.672 47.2153 32.666 48.6523 32.668C49.4903 32.669 50.3273 32.68 51.1653 32.693C51.5473 32.7 51.9293 32.714 52.3103 32.743C52.4623 32.755 52.6193 32.797 52.7573 32.859C52.8576 32.9076 52.9424 32.9831 53.0023 33.077C53.1223 33.27 53.0313 33.452 52.8043 33.477C52.6403 33.494 52.4743 33.483 52.3083 33.48C50.4053 33.458 48.5033 33.333 46.5993 33.388C46.2083 33.4 45.8133 33.382 45.4203 33.363C45.255 33.353 45.0909 33.3976 44.9533 33.49C44.8113 33.581 44.7243 33.694 44.7453 33.87C44.7473 33.89 44.7453 33.91 44.7453 33.931C44.7373 35.299 44.7373 36.669 44.7173 38.038C44.7123 38.373 44.8853 38.546 45.1603 38.656C45.2733 38.701 45.4013 38.722 45.5223 38.726C46.4523 38.753 47.3843 38.797 48.3143 38.79C49.5763 38.782 50.8363 38.736 52.0993 38.706C52.2343 38.704 52.3693 38.695 52.5023 38.701C52.6923 38.711 52.7983 38.8 52.8343 38.963C52.8536 39.0335 52.848 39.1084 52.8185 39.1753C52.789 39.2421 52.7374 39.2968 52.6723 39.33C52.5648 39.3893 52.445 39.4232 52.3223 39.429C51.3103 39.454 50.2963 39.483 49.2843 39.48C48.3643 39.478 47.4443 39.438 46.5243 39.411C46.1213 39.399 45.7173 39.398 45.3163 39.365C44.8773 39.329 44.4513 39.387 44.0213 39.455C43.9033 39.474 43.7773 39.453 43.6553 39.447C43.4603 39.437 43.2653 39.406 43.0713 39.414C42.3683 39.447 41.6683 39.508 40.9653 39.528C39.8803 39.558 38.7953 39.552 37.7083 39.575C37.0063 39.589 36.3033 39.645 35.6003 39.652C34.9483 39.66 34.2983 39.635 33.6473 39.622C32.9843 39.611 32.3223 39.617 31.6613 39.579C30.9863 39.539 30.3173 39.596 29.6483 39.647C28.4835 39.7409 27.3146 39.7736 26.1463 39.745C25.3923 39.722 24.6373 39.76 23.8823 39.77C23.7063 39.772 23.5313 39.773 23.3563 39.781C22.5713 39.817 21.7863 39.855 21.0013 39.894C20.5073 39.919 20.0113 39.947 19.5163 39.975C19.0103 40.003 18.5033 40.011 17.9993 40.063C17.7123 40.091 17.4553 40.024 17.1373 39.93Z" fill="#203954"/>
<path d="M44.3669 33.299L23.4039 33.735L20.4579 33.798C19.4849 33.818 18.4779 33.779 17.5129 33.907C17.4679 33.912 17.4669 33.973 17.5129 33.977C18.3899 34.057 19.2959 33.987 20.1769 33.969L22.7829 33.915L28.0529 33.805C31.5279 33.734 35.0029 33.661 38.4769 33.588L44.3689 33.465C44.4739 33.461 44.4729 33.298 44.3669 33.299ZM44.3239 39.031C44.3147 39.0234 44.3047 39.017 44.2939 39.012C44.1969 38.963 43.5929 39.004 43.4269 39.004C42.9439 39.004 42.4629 39.011 41.9799 39.011L39.6099 39.012C36.4505 39.0187 33.2912 39.0334 30.1319 39.056C28.5529 39.068 26.9729 39.086 25.3939 39.103L23.5679 39.124C21.5609 39.149 19.5529 39.174 17.5459 39.224C17.4509 39.227 17.4509 39.373 17.5459 39.371C24.6299 39.302 31.7129 39.191 38.7989 39.177C40.3759 39.175 41.9519 39.175 43.5299 39.176C43.7739 39.176 44.3219 39.153 44.3399 39.133C44.3779 39.099 44.3569 39.058 44.3239 39.031Z" fill="#010101"/>
<path d="M37.8628 13.295C36.1768 13.267 34.4898 13.218 32.8128 13.219C30.3198 13.222 27.8278 13.252 25.3358 13.309C24.0858 13.339 22.8338 13.36 21.5858 13.419C21.0058 13.447 20.0108 13.637 19.9008 12.862C19.8468 12.468 19.8108 12.072 19.7908 11.675C19.7606 11.248 19.7539 10.8197 19.7708 10.392C19.8058 9.78199 19.8808 9.17499 19.9418 8.56699C19.9668 8.32799 20.0988 8.17099 20.3378 8.12199C21.7828 7.82199 23.2538 7.87999 24.7298 7.85499L29.4488 7.77699C32.5938 7.72399 35.7388 7.67199 38.8848 7.62099C40.1048 7.59842 41.3251 7.60576 42.5448 7.64299C42.8618 7.65299 43.1818 7.65499 43.4948 7.68799C43.7178 7.71099 43.9978 7.81999 44.0518 8.06799C44.1188 8.36399 44.1408 8.65099 44.1368 8.94999C44.1208 10.216 44.0748 11.484 44.0338 12.75C44.0258 13.04 43.8808 13.174 43.5928 13.194C41.6908 13.328 39.7768 13.326 37.8628 13.295Z" fill="#F26B5C"/>
<path d="M24.2748 10.855C24.2442 11.2134 24.1762 11.5677 24.0718 11.912C24.0228 12.073 23.9618 12.238 23.8418 12.356C23.1858 13.015 22.7898 11.463 22.7558 11.066C22.7118 10.544 22.7978 10.019 22.9248 9.50899C22.9728 9.31799 23.0278 9.12199 23.1478 8.96299C23.2668 8.80299 23.4628 8.68599 23.6618 8.71299C23.9908 8.75699 24.1458 9.13399 24.2048 9.45499C24.2898 9.91499 24.3138 10.388 24.2748 10.855ZM42.0458 8.11399C42.0468 8.07399 42.0358 8.02199 42.0558 7.99399C42.1188 7.91399 42.2918 7.81999 42.3028 7.99999C42.3148 8.20299 42.3128 8.40799 42.3108 8.61099C42.3058 9.18099 42.3058 9.75199 42.2938 10.323C42.2778 11.078 42.2598 11.833 42.2258 12.586C42.2218 12.693 42.2798 12.909 42.0738 12.888C41.9108 12.872 41.9868 12.688 41.9898 12.578C42.0098 11.09 42.0138 9.60199 42.0458 8.11399ZM25.8808 12.919C25.7708 12.926 25.7478 12.652 25.7448 12.576C25.7238 12.026 25.7108 11.476 25.6928 10.924C25.6698 10.273 25.6398 9.62099 25.6208 8.96899C25.6128 8.68899 25.5608 8.16199 25.7758 8.16599C25.9898 8.16999 25.9198 9.05599 25.9258 9.34599C25.9428 10.436 25.9618 11.526 25.9758 12.617C25.9778 12.681 25.9958 12.851 25.9358 12.894C25.9158 12.911 25.8968 12.919 25.8808 12.919ZM26.5288 12.939C26.3918 12.924 26.4038 12.829 26.4008 12.753C26.3778 12.192 26.3488 11.632 26.3408 11.071C26.3268 10.202 26.3268 9.33399 26.3228 8.46699C26.3228 8.35999 26.2798 8.20399 26.4348 8.18999C26.5998 8.17799 26.5708 8.33999 26.5728 8.44399C26.5908 9.05599 26.6108 9.66899 26.6128 10.281C26.6188 11.068 26.6078 11.854 26.6018 12.64C26.5998 12.745 26.6348 12.867 26.5288 12.94V12.939Z" fill="white"/>
<path d="M54.4737 46.013C54.4307 45.956 54.3917 45.895 54.3437 45.843C54.2537 45.746 54.1407 45.683 54.0117 45.75C53.8797 45.818 53.7767 45.92 53.7857 46.085C53.7897 46.145 53.7807 46.218 53.8097 46.265C53.9537 46.5 53.9057 46.759 53.9197 47.012C53.9367 47.306 53.9537 47.602 54.0097 47.889C54.0687 48.2 53.9447 48.473 53.8647 48.754C53.8247 48.894 53.8117 49.021 53.8247 49.167C53.8447 49.396 53.8217 49.633 53.7907 49.862C53.7377 50.284 53.6537 50.703 53.6007 51.128C53.5707 51.366 53.5607 51.605 53.5837 51.851C53.6177 52.229 53.3047 52.548 52.9067 52.601C52.5597 52.648 52.2107 52.71 51.8617 52.71C51.3367 52.709 50.8457 52.875 50.3347 52.94C49.9047 52.995 49.4756 53.052 49.0447 53.092C48.3156 53.158 47.5857 53.23 46.8547 53.262C46.4577 53.278 46.0807 53.372 45.6957 53.437C45.5529 53.4603 45.4082 53.4697 45.2637 53.465C44.4047 53.44 43.5537 53.549 42.7037 53.635C42.5594 53.645 42.4145 53.639 42.2717 53.617C41.9157 53.57 41.5557 53.527 41.2017 53.461C40.4117 53.312 39.7197 53.008 39.3427 52.241C38.9187 51.381 38.6087 50.484 38.6047 49.517C38.601 49.2038 38.6602 48.893 38.7787 48.6031C38.8972 48.3132 39.0726 48.05 39.2947 47.829C39.6417 47.469 40.0357 47.186 40.4807 46.954C41.1607 46.599 41.8587 46.294 42.6167 46.153C43.6807 45.952 44.7477 45.764 45.8117 45.566C46.7297 45.396 47.6577 45.366 48.5887 45.375C49.1887 45.381 49.7897 45.385 50.3887 45.377C51.0917 45.368 51.7927 45.337 52.4957 45.332C52.8877 45.331 53.2796 45.359 53.6697 45.389C53.8277 45.401 53.9837 45.448 54.1387 45.49C54.4027 45.565 54.4857 45.675 54.4737 46.013Z" fill="#DEF0F5"/>
<path d="M53.6036 46.854C51.5706 47.034 49.5306 47.088 47.4936 47.194C46.4861 47.2424 45.4798 47.3148 44.4756 47.411C43.4946 47.51 42.4806 47.605 41.5246 47.845C41.4506 47.863 41.4846 47.963 41.5546 47.954C42.5666 47.818 43.5666 47.636 44.5846 47.536C45.5895 47.4417 46.5964 47.3713 47.6046 47.325C49.6046 47.224 51.6086 47.168 53.6036 46.992C53.6916 46.983 53.6916 46.847 53.6036 46.854ZM53.5856 47.814C51.5156 48.094 49.4226 48.002 47.3426 48.119C46.3306 48.176 45.3426 48.347 44.3366 48.462C43.3066 48.58 42.2636 48.571 41.2296 48.662C41.1446 48.668 41.1416 48.794 41.2296 48.794C42.2926 48.777 43.3856 48.741 44.4416 48.608C45.4476 48.483 46.4366 48.326 47.4516 48.273C49.5106 48.165 51.5796 48.245 53.6276 47.97C53.7326 47.956 53.6876 47.8 53.5856 47.814ZM53.4436 48.808C52.9256 48.775 52.3746 48.875 51.8566 48.913C51.3286 48.953 50.7986 48.993 50.2696 49.031C49.2306 49.106 48.1896 49.178 47.1506 49.249C46.1146 49.32 45.0766 49.389 44.0406 49.459C43.0286 49.527 41.9916 49.543 40.9906 49.698C40.9366 49.706 40.9506 49.789 41.0026 49.789C42.0476 49.809 43.1096 49.68 44.1516 49.609C45.1896 49.539 46.2276 49.47 47.2636 49.399C48.8327 49.2931 50.4014 49.1811 51.9696 49.063C52.4556 49.027 52.9836 49.038 53.4596 48.929C53.5306 48.912 53.5096 48.812 53.4436 48.808ZM53.6736 49.566C51.5656 49.711 49.4566 49.886 47.3536 50.091C46.3016 50.192 45.2496 50.305 44.1966 50.42L42.6406 50.59C42.1606 50.643 41.6526 50.666 41.1826 50.78C41.1316 50.792 41.1436 50.868 41.1946 50.87C41.7076 50.881 42.2406 50.786 42.7506 50.732L44.3076 50.565C47.4223 50.2182 50.544 49.9382 53.6706 49.725C53.7746 49.716 53.7756 49.559 53.6736 49.566ZM53.4636 50.335C51.3656 50.565 49.2676 50.789 47.1656 51.001C46.1156 51.109 45.0656 51.213 44.0156 51.316L42.4406 51.469C41.9556 51.516 41.4386 51.523 40.9636 51.629C40.9056 51.642 40.9206 51.726 40.9766 51.727C41.4956 51.746 42.0366 51.647 42.5536 51.598L44.1286 51.447C47.2421 51.1422 50.3539 50.8195 53.4636 50.479C53.5576 50.472 53.5596 50.324 53.4636 50.335ZM53.3006 51.146C52.8426 51.105 52.3276 51.234 51.8706 51.286L50.4426 51.449C49.4906 51.559 48.5386 51.666 47.5866 51.775L44.6546 52.11C43.6936 52.22 42.7136 52.288 41.7616 52.46C41.6906 52.472 41.7076 52.588 41.7786 52.584C42.7566 52.537 43.7386 52.381 44.7116 52.271L47.6996 51.932C48.6326 51.827 49.5646 51.719 50.4976 51.612L51.9276 51.449C52.3746 51.399 52.8916 51.408 53.3176 51.267C53.3846 51.243 53.3676 51.153 53.3006 51.146Z" fill="#BDCEDE"/>
<path d="M44.2924 45.266C45.6054 45.22 46.9174 45.169 48.2304 45.109C49.3694 45.057 50.5034 45.169 51.6374 45.207C52.2074 45.227 52.7754 45.237 53.3444 45.241C53.7814 45.243 54.2134 45.27 54.6294 45.411C54.6894 45.43 54.7504 45.441 54.8054 45.468C55.0374 45.584 55.0664 45.821 54.8734 45.988C54.7064 46.133 54.4984 46.158 54.2914 46.162C54.0014 46.168 53.7124 46.153 53.4234 46.157C52.8434 46.165 52.2654 46.167 51.6894 46.197C50.9144 46.237 50.1424 46.295 49.3694 46.354C48.3174 46.435 47.2664 46.514 46.2164 46.609C45.485 46.6713 44.7554 46.7537 44.0284 46.856C43.3954 46.95 42.7654 47.077 42.1434 47.225C41.7634 47.315 41.4004 47.471 41.0314 47.603C40.7674 47.697 40.6614 47.913 40.6044 48.163C40.3964 49.075 40.3044 49.998 40.3724 50.931C40.3844 51.095 40.3844 51.258 40.4044 51.421C40.4904 52.147 41.0084 52.899 41.6764 53.041C42.0464 53.12 42.4394 53.153 42.8164 53.123C44.1864 53.016 45.5554 52.878 46.9214 52.745C48.1984 52.621 49.4714 52.487 50.7474 52.358C51.3844 52.293 52.0214 52.222 52.6594 52.168C52.8844 52.149 53.1164 52.149 53.3404 52.174C53.4894 52.192 53.6464 52.245 53.7714 52.324C53.9614 52.446 53.9214 52.672 53.7114 52.753C53.6454 52.778 53.5694 52.785 53.4984 52.793L49.7084 53.212C49.5554 53.228 49.4004 53.234 49.2454 53.245C47.8734 53.343 46.5014 53.443 45.1314 53.545C44.3164 53.605 43.5014 53.665 42.6894 53.735C41.9694 53.795 41.2494 53.898 40.5284 53.93C39.6934 53.967 38.8544 53.94 38.0184 53.957C37.6054 53.965 37.1944 54.027 36.7824 54.037C35.1184 54.086 33.4544 54.119 31.7904 54.164C30.9224 54.187 30.0554 54.238 29.1874 54.245C28.2674 54.255 27.3474 54.233 26.4274 54.213C25.4864 54.193 24.5464 54.144 23.6054 54.132C23.0804 54.124 22.5514 54.185 22.0254 54.182C21.2604 54.177 20.4964 54.142 19.7314 54.117C19.0514 54.095 18.3694 54.062 17.6864 54.04C16.9224 54.015 16.1584 53.99 15.3924 53.98C14.9904 53.974 14.5874 54.011 14.1854 54.004C13.7194 53.998 13.2554 53.975 12.7904 53.941C12.1104 53.889 11.4334 53.804 10.7524 53.76C10.2394 53.726 9.92643 53.42 9.65443 53.05C9.44743 52.765 9.33043 52.438 9.22643 52.104C8.97343 51.286 8.95243 50.455 9.06943 49.616C9.14848 49.0134 9.39012 48.4437 9.76843 47.968C9.97043 47.716 10.2244 47.532 10.5364 47.422C11.4984 47.079 12.4524 46.714 13.4194 46.386C13.9554 46.205 14.5084 46.072 15.0594 45.931C15.2054 45.895 42.8044 45.318 44.2924 45.266Z" fill="#F26B5C"/>
<path d="M13.5928 53.473C13.2218 53.449 12.8528 53.419 12.4808 53.403C12.3008 53.394 12.1838 53.319 12.1318 53.153C11.9818 52.687 11.8318 52.219 11.7938 51.728C11.7228 50.808 11.7778 49.896 12.0408 49.008C12.2778 48.203 12.1648 48.284 13.0648 48.207C13.3628 48.182 13.6628 48.151 13.9588 48.157C14.1528 48.16 14.3438 48.22 14.5348 48.263C14.6588 48.289 14.6948 48.377 14.6728 48.495C14.6108 48.855 14.5568 49.219 14.4928 49.578C14.3728 50.225 14.4068 50.874 14.4728 51.522C14.4948 51.734 14.5188 51.948 14.5388 52.159C14.5688 52.474 14.6088 52.789 14.6218 53.102C14.6338 53.379 14.5608 53.442 14.2768 53.449C14.0478 53.454 13.8218 53.45 13.5938 53.45L13.5928 53.473ZM11.5548 47.808C11.5388 47.631 12.1328 47.644 12.2158 47.638C13.3903 47.5387 14.5661 47.4543 15.7428 47.385C18.7708 47.208 21.8058 47.131 24.8388 47.154C28.9488 47.186 33.0578 47.265 37.1668 47.234C38.3878 47.225 40.2708 47.241 40.2168 47.456C40.1608 47.668 30.4688 47.491 25.5938 47.448C21.6672 47.4124 17.7407 47.5181 13.8218 47.765C13.4298 47.791 13.0388 47.815 12.6468 47.844C12.4728 47.856 11.7038 48.014 11.5948 47.888C11.5733 47.8662 11.5593 47.8382 11.5548 47.808ZM38.5298 47.971C38.5478 48.011 38.5378 48.059 38.5288 48.103C38.4388 48.486 38.3358 48.866 38.2658 49.252C38.1068 50.139 38.1378 51.048 38.2608 51.938C38.3228 52.388 38.4108 52.83 38.5058 53.272C38.5458 53.466 38.5018 53.522 38.3008 53.548C38.1748 53.566 38.0448 53.548 37.9188 53.547C37.8486 53.55 37.7787 53.5377 37.7138 53.511C37.5888 53.451 37.5358 53.305 37.4988 53.171C37.0574 51.628 37.0298 49.996 37.4188 48.439C37.4588 48.279 37.5088 48.111 37.6248 47.989C37.8268 47.782 38.1728 47.784 38.4398 47.898C38.4727 47.9084 38.5016 47.9287 38.5228 47.956L38.5298 47.971ZM36.3738 48.032C36.3738 48.032 36.3728 48.217 36.3618 48.282C35.8788 51.322 36.5068 53.42 36.4448 53.542C36.3848 53.662 35.6038 53.694 35.4248 53.529C35.2448 53.366 35.0788 51.998 35.0468 51.411C34.9978 50.556 35.1208 49.133 35.1288 48.934C35.1368 48.733 35.2218 48.044 35.3748 47.968C35.5288 47.892 36.3448 47.952 36.3738 48.032ZM10.4638 48.125C10.4714 48.1489 10.4724 48.1745 10.4668 48.199C10.3938 48.464 10.1628 48.714 10.0508 48.969C9.92276 49.257 9.83076 49.557 9.77576 49.866C9.65976 50.501 9.70076 51.153 9.82276 51.783C9.86976 52.023 9.93076 52.263 10.0228 52.488C10.1088 52.704 10.2418 52.899 10.3578 53.103C10.3938 53.165 10.4528 53.216 10.4748 53.281C10.5108 53.39 10.4368 53.563 10.3118 53.427C10.1798 53.287 10.0398 53.145 9.93976 52.982C9.70176 52.591 9.60076 52.15 9.51976 51.709C9.35576 50.811 9.36676 49.923 9.67976 49.053C9.79576 48.726 9.94376 48.408 10.2268 48.18C10.2718 48.142 10.3848 48.037 10.4438 48.093C10.4519 48.1026 10.4587 48.1134 10.4638 48.125ZM40.6258 53.269C40.6298 53.29 40.6158 53.312 40.6008 53.326C40.5058 53.41 40.3548 53.349 40.2558 53.273C39.9228 53.015 39.7308 52.616 39.6188 52.213C39.5188 51.861 39.4718 51.496 39.3898 51.14C39.317 50.816 39.2871 50.4838 39.3008 50.152C39.3256 49.3738 39.5383 48.6132 39.9208 47.935C39.9421 47.8904 39.9728 47.8508 40.0108 47.819C40.0508 47.79 40.1108 47.782 40.1488 47.811C40.2188 47.861 40.1828 47.97 40.1428 48.044C39.5798 49.1 39.4708 50.355 39.6928 51.527C39.7708 51.937 39.8898 52.345 40.1208 52.695C40.2508 52.893 40.4168 53.068 40.5958 53.228C40.6078 53.238 40.6218 53.252 40.6258 53.269Z" fill="white"/>
<path d="M36.2961 12.99C37.5781 12.957 38.8581 12.906 40.1401 12.898C41.6071 12.89 43.0751 12.92 44.5431 12.937C44.7901 12.94 45.0361 12.967 45.2831 12.981C45.5991 12.998 45.7271 13.077 45.8171 13.385C46.1091 14.373 46.3291 15.501 46.1411 16.527C46.0751 16.887 45.9931 17.247 45.9031 17.602C45.8491 17.809 45.7981 17.819 45.5711 17.828C45.1171 17.847 44.6631 17.878 44.2101 17.905C44.0041 17.917 43.7981 17.938 43.5901 17.948C42.2401 18.014 40.8871 18.077 39.5321 18.074C38.5091 18.071 37.4871 18.104 36.4641 18.135C35.7101 18.158 34.9581 18.214 34.2051 18.24C33.3691 18.27 32.5321 18.29 31.6951 18.299C30.4851 18.313 29.2761 18.303 28.0671 18.327C27.2721 18.343 26.4791 18.404 25.6831 18.433C25.4271 18.441 25.1681 18.412 24.9101 18.403C24.8171 18.399 24.7231 18.391 24.6321 18.401C24.0061 18.471 23.3811 18.547 22.7561 18.621C22.7355 18.6236 22.7148 18.6256 22.6941 18.627C22.2381 18.674 22.1181 18.605 22.0161 18.166C21.9258 17.8098 21.8639 17.447 21.8311 17.081C21.7809 16.4403 21.7595 15.7976 21.7671 15.155C21.7731 14.772 21.8601 14.385 21.9441 14.01C21.9811 13.85 22.0991 13.705 22.1981 13.564C22.3001 13.42 22.4581 13.384 22.6321 13.373C23.5381 13.316 24.4431 13.247 25.3491 13.191C25.8231 13.161 26.2991 13.141 26.7741 13.126C27.7031 13.096 28.6331 13.058 29.5621 13.045C31.8051 13.015 34.0491 12.998 36.2921 12.977C36.2949 12.9807 36.2963 12.9853 36.2961 12.99Z" fill="#3E929B"/>
<path d="M36.9963 16.54C36.9113 16.604 36.7963 16.61 36.6903 16.613L35.1963 16.661L30.2853 16.818C30.0293 16.826 29.9483 16.702 29.9363 16.475C29.9083 15.956 29.8713 15.436 29.8363 14.919C29.8143 14.566 29.8693 14.491 30.2093 14.469C31.4213 14.395 32.6343 14.323 33.8473 14.269C34.4763 14.239 35.1073 14.215 35.7373 14.199C36.0433 14.189 36.8513 14.162 36.9263 14.297C37.0003 14.43 37.0033 15.174 37.0313 15.525C37.0463 15.727 37.1833 16.4 36.9963 16.54Z" fill="#9A92E6"/>
<path d="M24.3783 18.129C24.3113 18.179 24.2413 18.024 24.2373 17.907C24.1793 16.512 24.1243 15.117 24.0673 13.722C24.0663 13.686 24.0663 13.646 24.0883 13.618C24.1253 13.573 24.2023 13.585 24.2413 13.626C24.2813 13.669 24.2913 13.727 24.3013 13.785C24.3393 14.042 24.3463 14.303 24.3523 14.564C24.3783 15.598 24.4043 16.634 24.4243 17.669C24.4253 17.826 24.4473 18.079 24.3783 18.129ZM22.9893 13.65C23.0913 13.682 23.1063 14.1 23.1143 14.327L23.2563 18.036C23.2613 18.167 23.2043 18.234 23.1183 18.121C23.0383 18.016 23.0443 17.824 23.0403 17.702C22.9923 16.477 22.9423 15.254 22.8933 14.029C22.8883 13.923 22.8883 13.618 22.9893 13.65Z" fill="#010101"/>
<path d="M23.7155 18.019C23.6375 17.976 23.6295 17.769 23.6225 17.701C23.5205 16.418 23.4385 15.131 23.3765 13.846C23.3735 13.774 23.3705 13.696 23.4125 13.637C23.4525 13.577 23.5535 13.557 23.5965 13.613C23.6165 13.639 23.6185 13.673 23.6195 13.705L23.8545 17.741C23.8595 17.811 23.8595 18.004 23.7615 18.024C23.7539 18.0262 23.7459 18.027 23.738 18.0261C23.7302 18.0252 23.7225 18.0228 23.7155 18.019Z" fill="white"/>
<path d="M44.1464 17.559C44.1355 17.5556 44.1253 17.5502 44.1164 17.543C44.0314 17.487 44.0774 17.093 44.0754 16.998C44.0394 15.8172 44.0101 14.6362 43.9874 13.455C43.9864 13.35 43.9974 13.22 44.0954 13.177C44.1954 13.216 44.2124 13.343 44.2154 13.448C44.2454 14.745 44.2714 16.043 44.2934 17.34C44.2934 17.429 44.2584 17.602 44.1464 17.559Z" fill="#010101"/>
<path d="M28.4001 17.805C28.3001 17.846 28.2501 17.399 28.2481 17.321C28.1901 16.021 28.1351 14.72 28.0781 13.421C28.0712 13.3694 28.0767 13.317 28.0941 13.268C28.1171 13.221 28.1681 13.182 28.2201 13.194C28.2911 13.214 28.3071 13.304 28.3091 13.378C28.3311 14.756 28.4291 16.12 28.4861 17.495C28.4942 17.5718 28.4864 17.6494 28.4631 17.723C28.4391 17.77 28.4191 17.797 28.4001 17.805ZM38.7191 17.805C38.6181 17.846 38.5691 17.399 38.5671 17.321C38.5091 16.021 38.4541 14.72 38.3961 13.421C38.3951 13.369 38.3921 13.315 38.4131 13.268C38.4351 13.221 38.4891 13.182 38.5391 13.194C38.6101 13.214 38.6261 13.304 38.6281 13.378C38.6501 14.756 38.7481 16.12 38.8071 17.495C38.8152 17.5718 38.8074 17.6494 38.7841 17.723C38.7591 17.77 38.7381 17.797 38.7191 17.805Z" fill="#9A92E6"/>
<path d="M43.607 13.124C43.623 13.134 43.634 13.151 43.643 13.167C43.688 13.2642 43.7115 13.3699 43.712 13.477C43.728 13.704 43.728 13.93 43.728 14.155L43.734 17.386C43.7374 17.4341 43.7296 17.4824 43.711 17.527C43.594 17.75 43.529 17.383 43.528 17.309C43.52 15.958 43.508 14.609 43.499 13.257C43.499 13.224 43.499 13.189 43.514 13.16C43.53 13.13 43.565 13.108 43.596 13.119L43.607 13.124Z" fill="white"/>
<path d="M31.9973 23.536C32.4513 23.52 32.9033 23.506 33.3553 23.492C37.4563 23.37 41.5573 23.392 45.6593 23.392C46.2173 23.398 46.7743 23.42 47.3323 23.44C47.4423 23.4378 47.5497 23.4741 47.6358 23.5426C47.722 23.611 47.7815 23.7073 47.8043 23.815C48.0793 24.938 47.9943 26.025 47.9243 27.178L47.9203 27.209C47.8843 27.609 47.8823 27.601 47.4583 27.635C43.6793 27.928 39.8483 27.869 36.0563 27.95C33.7043 27.95 31.3483 28.048 28.9963 28.099C28.1053 28.117 23.3673 28.744 23.2063 27.685C23.0703 26.775 22.9983 25.859 23.0783 24.939C23.0973 24.717 23.1533 24.497 23.1953 24.277C23.3253 23.597 27.1793 23.75 27.8493 23.716C29.2303 23.644 30.6133 23.584 31.9973 23.536Z" fill="#8DC7D6"/>
<path d="M27.4197 27.45C27.4187 27.728 27.1737 27.905 26.8997 27.825C26.7617 27.785 26.7167 27.679 26.7097 27.543C26.6657 26.861 26.6157 26.179 26.5747 25.496C26.548 25.0683 26.5273 24.6403 26.5127 24.212C26.5067 24.096 26.4827 23.962 26.6307 23.892C26.8107 23.81 26.9957 23.792 27.1667 23.883C27.2317 23.918 27.2727 24.033 27.2837 24.116C27.3177 24.379 27.3437 24.644 27.3507 24.91C27.3607 25.266 27.4227 26.96 27.4197 27.45ZM44.1197 26.331C44.1117 26.604 44.1007 26.876 44.0927 27.148C44.0847 27.352 44.0217 27.429 43.8557 27.435C43.6857 27.44 43.5277 27.316 43.5157 27.149C43.4952 26.8955 43.4849 26.6413 43.4847 26.387C43.4867 25.827 43.5027 25.268 43.5097 24.709C43.5137 24.444 43.5057 24.178 43.5097 23.913C43.5107 23.779 43.5287 23.647 43.6917 23.595C43.9477 23.515 44.0887 23.607 44.0897 23.88C44.0937 24.185 44.0937 24.492 44.0927 24.798C44.0937 24.973 44.1247 26.203 44.1197 26.331ZM28.0167 27.736C27.9777 27.721 27.9457 27.653 27.9367 27.556C27.9005 27.1917 27.8725 26.8266 27.8527 26.461C27.8177 25.708 27.7927 24.955 27.7677 24.204C27.76 24.1228 27.7667 24.0408 27.7877 23.962C27.8037 23.919 27.8767 23.881 27.9267 23.874C27.9567 23.87 28.0087 23.931 28.0217 23.974C28.0417 24.028 28.0357 24.094 28.0387 24.154L28.1347 27.236C28.1377 27.345 28.1747 27.521 28.1347 27.622C28.0957 27.716 28.0547 27.749 28.0167 27.736ZM25.8477 25.46C25.8477 25.061 25.8447 24.663 25.8487 24.264C25.8507 24.149 25.8087 23.971 25.9697 23.963C26.1697 23.955 26.0847 24.147 26.0837 24.247C26.0807 24.87 26.0527 25.492 26.0567 26.116C26.0587 26.544 26.1017 26.971 26.1277 27.398C26.1347 27.509 26.1457 27.621 26.1507 27.733C26.1537 27.819 26.1387 27.915 26.0277 27.9C25.9837 27.895 25.9187 27.806 25.9167 27.753C25.8817 27.06 25.8567 26.367 25.8287 25.674C25.8257 25.604 25.8357 25.532 25.8387 25.46H25.8477Z" fill="white"/>
<path d="M51.6212 28.289L51.7512 28.063C51.8192 28.11 51.8622 28.124 51.8652 28.144C51.8752 28.243 51.8982 28.346 51.8752 28.438C51.7272 29.052 51.7972 29.676 51.7932 30.296C51.7932 30.436 51.8612 30.572 51.8782 30.715C51.9002 30.885 51.9322 31.065 51.9012 31.229C51.8474 31.5299 51.842 31.8374 51.8852 32.14C51.9252 32.438 51.8162 32.546 51.5112 32.545C51.1812 32.543 50.8502 32.553 50.5182 32.545C50.2722 32.538 50.0262 32.499 49.7792 32.498C49.4822 32.497 49.1792 32.49 48.8882 32.538C48.4842 32.604 48.0842 32.58 47.6882 32.528C47.4042 32.49 47.1322 32.526 46.8622 32.574C46.4822 32.64 46.1252 32.647 45.7892 32.432C45.7032 32.376 45.6032 32.342 45.5122 32.296C44.7642 31.913 44.4282 31.271 44.5482 30.451C44.623 29.8712 44.8454 29.3202 45.1942 28.851C45.4322 28.531 45.7432 28.318 46.1142 28.211C46.5292 28.094 46.9562 28.01 47.3822 27.935C47.5702 27.902 47.7712 27.934 47.9642 27.934C48.3362 27.933 48.7062 27.949 49.0752 27.922C49.5792 27.887 50.0802 27.824 50.5822 27.769C50.6899 27.7569 50.799 27.7678 50.9023 27.8009C51.0055 27.834 51.1006 27.8885 51.1812 27.961C51.3072 28.066 51.4432 28.157 51.6212 28.289Z" fill="#DEF0F5"/>
<path d="M20.1033 33.252C19.9953 33.188 19.9533 33.025 19.9203 32.914C19.8673 32.736 19.8383 32.551 19.8003 32.369C19.7115 31.9683 19.6527 31.5615 19.6243 31.152C19.6013 30.733 19.6343 30.31 19.7193 29.899C19.8053 29.483 19.9603 29.091 20.1123 28.696C20.1973 28.476 20.3623 28.376 20.6093 28.35C25.2543 27.86 29.9363 27.784 34.6073 27.657C39.2453 27.531 43.8823 27.477 48.5113 27.502C48.7903 27.503 49.0673 27.503 49.3463 27.508C49.9023 27.516 50.4563 27.588 51.0133 27.592C51.2933 27.594 51.5653 27.599 51.8333 27.675C51.8733 27.687 51.9153 27.692 51.9533 27.708C52.0833 27.76 52.1973 27.83 52.1893 27.992C52.1813 28.147 52.1133 28.292 51.9623 28.326C51.7653 28.371 51.5563 28.371 51.3533 28.381C51.2733 28.383 51.1923 28.348 51.1103 28.346C49.6953 28.321 48.2783 28.296 46.8633 28.28C46.7003 28.278 46.5373 28.326 46.3733 28.338C46.0333 28.362 45.8313 28.548 45.7103 28.852C45.4543 29.492 45.3583 30.147 45.4673 30.83C45.4943 31 45.4793 31.176 45.4933 31.35C45.5263 31.802 45.7353 32.03 46.1893 32.108C46.3213 32.131 46.4543 32.151 46.5873 32.151C47.4763 32.159 48.3663 32.152 49.2563 32.172C49.7083 32.182 50.1603 32.236 50.6133 32.265C50.7683 32.275 50.9233 32.277 51.0793 32.279C51.3063 32.281 51.5343 32.277 51.7613 32.281C51.9483 32.284 52.0493 32.36 52.0453 32.485C52.0413 32.605 51.9373 32.683 51.7573 32.689C51.1593 32.711 50.5603 32.736 49.9643 32.747C49.7073 32.751 49.4503 32.705 49.1923 32.704C47.8703 32.696 46.1583 32.868 44.8373 32.872C40.1753 32.885 35.9003 32.93 31.2433 33.122C27.7443 33.267 20.3033 33.373 20.1033 33.252Z" fill="#4A2533"/>
<path d="M43.5436 30.5C43.5446 29.705 43.6416 29.062 43.8586 28.44C43.9526 28.173 44.0456 28.114 44.3186 28.14C44.4916 28.157 44.5486 28.2 44.5286 28.374C44.4986 28.626 44.4376 28.875 44.3866 29.124C44.2537 29.795 44.2341 30.4835 44.3286 31.161C44.3676 31.452 44.4226 31.743 44.4876 32.031C44.5206 32.177 44.4616 32.246 44.3396 32.286C44.0436 32.38 43.8706 32.291 43.7766 31.989C43.6235 31.5074 43.5449 31.0053 43.5436 30.5ZM20.9366 28.818C20.9366 28.8626 20.9305 28.907 20.9186 28.95C20.8006 29.414 20.6806 29.878 20.6186 30.351C20.5186 31.136 20.5826 31.932 20.6786 32.718C20.6876 32.791 20.6966 32.868 20.6686 32.935C20.5506 33.225 20.3876 32.831 20.3646 32.717C20.3238 32.4899 20.2937 32.2609 20.2746 32.031C20.227 31.6248 20.2083 31.2158 20.2186 30.807C20.2476 30.169 20.4066 29.541 20.5916 28.928C20.6136 28.859 20.6346 28.788 20.6876 28.737C20.7386 28.687 20.8276 28.664 20.8846 28.707C20.9216 28.734 20.9346 28.774 20.9366 28.818Z" fill="#FFD186"/>
<path d="M51.6486 28.709C50.7506 28.712 49.8516 28.722 48.9516 28.728C48.5036 28.73 48.0536 28.741 47.6046 28.73C47.1426 28.72 46.6686 28.643 46.2096 28.69C46.1316 28.698 46.1296 28.805 46.2096 28.81C47.1226 28.871 48.0366 28.877 48.9516 28.873C49.8416 28.867 50.7626 28.929 51.6486 28.842C51.7346 28.834 51.7386 28.709 51.6486 28.709ZM51.5326 29.357C51.0236 29.332 50.4976 29.405 49.9866 29.421C49.5116 29.437 49.0366 29.44 48.5616 29.422C48.0996 29.406 47.6366 29.381 47.1746 29.358C46.7226 29.338 46.2016 29.241 45.7546 29.324C45.7086 29.332 45.7146 29.398 45.7546 29.41C46.1906 29.536 46.7226 29.49 47.1746 29.511C47.6546 29.535 48.1346 29.563 48.6146 29.578C49.1076 29.594 49.6036 29.588 50.0976 29.57C50.5776 29.553 51.0776 29.562 51.5506 29.482C51.6256 29.472 51.6026 29.361 51.5326 29.357ZM51.6666 30.366C51.1896 30.27 50.6676 30.292 50.1806 30.268C49.6721 30.2417 49.1634 30.2194 48.6546 30.201C48.1461 30.1817 47.6374 30.1683 47.1286 30.161C46.6446 30.153 46.1226 30.108 45.6456 30.194C45.6056 30.202 45.6046 30.269 45.6456 30.276C46.1256 30.353 46.6426 30.307 47.1286 30.316C47.6186 30.322 48.1086 30.336 48.5986 30.354C49.0886 30.373 49.5786 30.394 50.0676 30.418C50.5846 30.443 51.1346 30.53 51.6496 30.486C51.7146 30.48 51.7396 30.381 51.6666 30.366ZM51.6076 30.971C50.1481 30.9129 48.688 30.8713 47.2276 30.846C46.7816 30.839 46.3116 30.8 45.8696 30.871C45.8296 30.877 45.8296 30.944 45.8696 30.951C46.3126 31.023 46.7816 30.991 47.2276 30.998C47.7136 31.004 48.2026 31.015 48.6876 31.027C49.6626 31.052 50.6346 31.091 51.6076 31.12C51.7056 31.124 51.7046 30.975 51.6076 30.971ZM51.5776 31.639L48.7966 31.616L47.4346 31.604C46.9666 31.599 46.4816 31.56 46.0166 31.606C45.9376 31.614 45.9406 31.715 46.0166 31.723C46.4616 31.776 46.9266 31.749 47.3766 31.753C47.8496 31.759 48.3236 31.763 48.7966 31.768C49.7226 31.776 50.6496 31.784 51.5776 31.789C51.6746 31.789 51.6746 31.64 51.5776 31.639Z" fill="#BDCEDE"/>
<path d="M13.8458 40.461C14.1688 40.461 14.4258 40.48 14.6788 40.456C15.0168 40.424 15.3508 40.355 15.6888 40.312C15.8518 40.292 16.0188 40.284 16.1818 40.296C16.3818 40.312 16.5638 40.383 16.6958 40.545C17.0768 41.01 17.2958 41.535 17.3418 42.135C17.4268 43.219 17.2248 44.262 16.9118 45.291C16.8778 45.399 16.8318 45.502 16.7888 45.605C16.6128 46.03 16.3188 46.283 15.8258 46.275C15.2998 46.268 14.7718 46.287 14.2458 46.28C13.9308 46.278 13.8158 46.118 13.8308 45.81C13.8428 45.609 13.8118 45.405 13.8008 45.203C13.7828 44.919 13.7458 44.637 13.7508 44.353C13.7558 43.943 13.7768 43.538 13.6108 43.149C13.5078 42.905 13.5828 42.658 13.6608 42.431C13.7978 42.017 13.7628 41.603 13.7108 41.19C13.6778 40.915 13.7188 40.669 13.8458 40.461Z" fill="#DEF0F5"/>
<path d="M47.6239 43.886C47.6289 44.414 47.5349 44.943 47.4789 45.47C47.4709 45.558 47.4269 45.64 47.3889 45.756C46.4469 45.781 45.5169 45.8 44.5889 45.836C43.7719 45.869 42.9589 45.936 42.1429 45.961C41.5699 45.978 40.9929 45.983 40.4189 45.986C40.1059 45.987 39.7929 45.987 39.4789 45.991C38.6719 45.999 37.8659 46.01 37.0589 46.014C36.6679 46.016 36.2729 46.007 35.8819 46.012C35.5519 46.015 35.2209 46.039 34.8889 46.038C34.5899 46.036 34.2919 46 33.9939 45.998C33.6119 45.995 33.2289 46.018 32.8469 46.016C31.9709 46.014 31.0909 46.003 30.2139 45.998C30.0369 45.996 29.8619 46.01 29.6859 46.01C29.2629 46.008 28.8399 46.002 28.4179 45.996C28.2829 45.996 28.1479 45.983 28.0149 45.992C27.4681 46.0266 26.9194 46.0139 26.3749 45.954C26.1409 45.93 25.8999 45.973 25.6629 45.978C25.0029 45.996 24.3409 46.016 23.6799 46.026C22.8229 46.038 21.9649 46.038 21.1069 46.05C20.9319 46.051 20.7589 46.09 20.5839 46.098C19.6439 46.14 18.7099 46.248 17.7639 46.21C17.4479 46.199 17.1279 46.27 16.8089 46.298C15.9339 46.378 15.0589 46.457 14.1829 46.527C14.0509 46.539 13.9129 46.527 13.7849 46.5C13.6749 46.478 13.5589 46.425 13.5669 46.281C13.5749 46.153 13.6579 46.076 13.7819 46.056C14.0679 46.007 14.3519 45.956 14.6379 45.923C15.2629 45.851 15.8879 45.79 16.5149 45.723C16.4649 44.023 16.4149 42.343 16.3669 40.633C16.2269 40.64 16.0649 40.649 15.9049 40.654C15.2449 40.674 14.5829 40.69 13.9219 40.708C13.8908 40.7086 13.8598 40.7073 13.8289 40.704C13.5939 40.685 13.4929 40.62 13.4789 40.475C13.4629 40.311 13.5909 40.188 13.8309 40.166C14.5809 40.1 15.3329 40.024 16.0859 39.982C17.2109 39.922 18.3379 39.898 19.4619 39.841C22.4519 39.686 25.4459 39.684 28.4379 39.611C31.2179 39.545 33.9929 39.583 36.7719 39.547C37.4349 39.539 38.0999 39.477 38.8449 39.447C39.2779 39.431 39.7119 39.44 40.1469 39.439L40.5489 39.434C41.0039 39.428 41.4589 39.426 41.9139 39.418C42.0869 39.414 42.2579 39.408 42.4289 39.402C42.5769 39.395 42.7259 39.39 42.8739 39.387C43.2359 39.38 43.5979 39.403 43.9589 39.377C44.9309 39.305 45.9009 39.371 46.8709 39.412C47.1349 39.424 47.3709 39.602 47.4489 39.849C47.4789 39.946 47.4989 40.049 47.5029 40.149L47.5729 41.955C47.5969 42.599 47.6169 43.241 47.6239 43.886Z" fill="#556D84"/>
<path d="M16.0715 41.114C15.7215 41.064 15.3415 41.119 14.9875 41.133C14.6295 41.147 14.2575 41.138 13.9035 41.199C13.8285 41.211 13.8555 41.315 13.9205 41.321C14.2905 41.355 14.6725 41.313 15.0445 41.299C15.3805 41.287 15.7425 41.311 16.0715 41.235C16.1295 41.22 16.1345 41.122 16.0715 41.114ZM16.1255 41.748C15.4155 41.801 14.6555 41.788 13.9605 41.938C13.8855 41.954 13.9085 42.059 13.9785 42.064C14.6805 42.107 15.4245 41.978 16.1255 41.922C16.2375 41.912 16.2385 41.74 16.1255 41.748ZM16.1265 42.636C15.6785 42.686 15.2285 42.716 14.7785 42.72C14.4635 42.722 14.0465 42.652 13.7835 42.86C13.7615 42.878 13.7835 42.909 13.8055 42.911C13.9805 42.928 14.1525 42.886 14.3295 42.882C14.5355 42.878 14.7415 42.887 14.9485 42.882C15.3425 42.874 15.7345 42.846 16.1285 42.802C16.2325 42.79 16.2345 42.622 16.1265 42.636ZM16.0535 43.392C15.6935 43.396 15.3275 43.448 14.9685 43.476C14.6395 43.502 14.2985 43.504 13.9765 43.578C13.9045 43.594 13.9285 43.69 13.9925 43.695C14.3485 43.73 14.7225 43.674 15.0785 43.646C15.4095 43.619 15.7485 43.606 16.0765 43.548C16.1655 43.533 16.1425 43.391 16.0535 43.392ZM16.0795 44.264C16.0676 44.2617 16.0556 44.26 16.0435 44.259C15.9795 44.257 15.9155 44.259 15.8515 44.263C15.2475 44.299 14.6455 44.417 14.0395 44.392C13.9925 44.39 13.9335 44.393 13.9135 44.437C13.8605 44.557 14.0475 44.586 14.1205 44.583C14.4665 44.571 14.8125 44.555 15.1575 44.533C15.4005 44.517 15.6455 44.497 15.8875 44.459C15.9506 44.4496 16.0131 44.4363 16.0745 44.419C16.1175 44.406 16.1665 44.377 16.1645 44.332C16.1605 44.292 16.1215 44.272 16.0795 44.264ZM16.2115 45.024C15.8575 45.059 15.5065 45.112 15.1535 45.15C14.8035 45.19 14.4425 45.196 14.0955 45.257C14.0105 45.273 14.0275 45.397 14.1085 45.403C14.4485 45.424 14.8005 45.37 15.1385 45.333C15.5105 45.293 15.8835 45.253 16.2515 45.191C16.3655 45.174 16.3215 45.013 16.2115 45.024Z" fill="#BDCEDE"/>
<path d="M22.2301 24.093C21.8171 23.988 21.8101 23.556 21.7551 23.199C21.538 21.7998 21.5152 20.3774 21.6871 18.972C21.7101 18.791 21.7451 18.592 21.8891 18.477C22.0031 18.388 22.1551 18.372 22.2991 18.36C26.9841 17.962 31.6901 17.892 36.3921 17.821L49.1181 17.633C49.3061 17.63 49.5081 17.631 49.6621 17.74C49.8931 17.904 49.9111 18.231 49.9071 18.513L49.8471 22.576C49.8431 22.75 49.8391 22.928 49.7631 23.085C49.5591 23.5 48.9891 23.544 48.5211 23.528C47.3571 23.493 22.6871 24.21 22.2291 24.093H22.2301Z" fill="#755462"/>
<path d="M49.3058 18.058L28.3438 18.496C27.3618 18.516 26.3798 18.536 25.3978 18.558C24.4248 18.578 23.4178 18.538 22.4528 18.666C22.4068 18.672 22.4058 18.732 22.4528 18.736C23.3288 18.815 24.2348 18.744 25.1158 18.726L27.7218 18.674L32.9918 18.564L43.4148 18.347L49.3068 18.223C49.4128 18.22 49.4128 18.055 49.3048 18.058H49.3058ZM49.3058 23.032L28.3438 23.47C27.3618 23.49 26.3798 23.51 25.3978 23.532C24.4248 23.552 23.4178 23.512 22.4528 23.64C22.4068 23.646 22.4058 23.706 22.4528 23.71C23.3288 23.789 24.2348 23.718 25.1158 23.7C25.9858 23.684 26.8538 23.665 27.7218 23.648L32.9918 23.538C36.4648 23.466 39.9408 23.392 43.4148 23.321L49.3068 23.197C49.4128 23.194 49.4128 23.029 49.3048 23.032H49.3058Z" fill="#010101"/>
<path d="M22.6396 20.171L49.0066 19.628L49.0496 21.635L22.6816 22.179L22.6396 20.171Z" fill="#896876"/>
<path d="M18.2227 35.274L42.8007 34.874L42.8407 37.327L18.2637 37.727L18.2227 35.274Z" fill="#334B64"/>
</g>
<defs>
<clipPath id="clip0_27_540">
<rect width="64" height="64" fill="white"/>
</clipPath>
</defs>
</svg>
