<svg width="64" height="64" viewBox="0 0 64 64" fill="none" xmlns="http://www.w3.org/2000/svg">
<path d="M62 32C62 15.4315 48.5685 2 32 2C15.4315 2 2 15.4315 2 32C2 48.5685 15.4315 62 32 62C48.5685 62 62 48.5685 62 32Z" fill="#9DD9DE" stroke="white" stroke-width="4"/>
<path d="M17.518 13.047C15.563 13.131 13.974 12.365 14.088 14.981C14.203 17.597 13.288 41.941 14.088 42.281C14.888 42.623 7 47.173 7 48.425C7 49.677 7 50.131 7.572 50.245C8.143 50.359 56.961 50.472 57.532 49.79C58.104 49.107 57.418 48.084 56.961 47.856C56.504 47.628 50.673 43.078 50.901 42.737C51.131 42.396 51.359 17.121 51.359 15.891C51.359 13.502 50.344 13.307 48.615 13.275C36.153 13.047 21.774 12.863 17.518 13.047Z" fill="#556D84"/>
<path d="M14.774 48.652C12.26 48.652 9.55402 48.841 7.00902 48.348C7.00295 48.3733 6.99959 48.3991 6.99902 48.425C6.99902 49.675 6.99902 50.131 7.57102 50.245C8.14302 50.358 56.961 50.472 57.532 49.79C57.942 49.302 57.706 48.638 57.372 48.218C57.1 48.321 56.823 48.373 56.618 48.425C42.67 49.448 28.722 48.88 14.774 48.652Z" fill="#2F3D4D"/>
<path d="M49.8719 14.996H15.7539V41.31H49.8719V14.996Z" fill="#B6DADD"/>
<path d="M36.8844 27.549C36.8144 26.899 36.6904 26.229 36.4594 25.626C36.0594 24.592 35.3554 23.892 35.0144 22.821C34.7894 22.116 34.6394 21.295 34.3004 20.603C34.0704 20.13 33.7804 19.685 33.5984 19.191C33.4584 18.809 33.1854 18.368 33.0484 17.986C32.7704 17.225 32.4084 17.038 31.7434 16.632C31.1934 16.296 30.4834 16.348 29.9004 16.065C29.2464 15.749 28.6264 15.531 27.8964 15.442C27.2156 15.3567 26.5246 15.4126 25.8664 15.606C25.6464 15.671 25.4464 15.756 25.2534 15.85C24.4234 15.85 23.5574 16.128 23.0054 16.578C22.5194 16.974 22.1074 17.658 22.0824 18.295C22.0794 18.379 22.0824 18.471 22.0964 18.561C21.1544 18.705 20.2144 19.838 19.8854 20.554C19.6884 20.983 19.7654 21.46 19.6624 21.907C19.5424 22.424 19.2884 22.902 19.1644 23.419C19.0564 23.872 19.0374 24.348 18.8774 24.786C18.6914 25.294 18.3254 25.721 18.1624 26.239C18.0874 26.473 18.0744 26.709 18.0014 26.94C17.9054 27.245 17.8034 27.523 18.0264 27.805C18.1579 27.9572 18.3344 28.0637 18.5304 28.109C18.6404 28.136 18.8004 28.094 18.8984 28.131C19.0864 28.202 19.2074 28.492 19.3214 28.643C19.5034 28.884 19.7394 29.118 20.0464 29.188C20.4074 29.271 20.8464 29.07 21.1824 29.277C21.4184 29.423 21.5984 29.68 21.8294 29.835C22.0934 30.013 22.4474 30.083 22.7674 30.144C22.8954 30.209 23.0544 30.207 23.2204 30.205C23.7104 30.197 24.0904 30.361 24.5574 30.43C24.8574 30.475 25.1714 30.421 25.4744 30.45C25.7114 30.474 25.9204 30.493 26.1584 30.48C26.3274 30.471 26.4534 30.41 26.6284 30.484C26.6934 30.511 26.7344 30.585 26.8044 30.604C26.9724 30.651 27.1264 30.637 27.3004 30.624C27.4764 30.61 27.6464 30.554 27.8184 30.538C28.0104 30.52 28.1804 30.631 28.3684 30.632C28.5884 30.632 28.7904 30.501 29.0144 30.532C29.1684 30.554 29.3034 30.653 29.4574 30.672C29.6594 30.695 29.8474 30.582 30.0434 30.522C30.3894 30.418 30.7474 30.495 31.1014 30.48C31.4954 30.465 31.7774 30.3 32.1314 30.147C32.7244 29.891 33.4074 30.154 34.0384 29.901C34.2477 29.8124 34.4373 29.6833 34.5964 29.521C34.7134 29.411 34.8164 29.284 34.9424 29.184C35.2284 28.953 35.4084 28.997 35.7364 28.941C36.1364 28.874 36.6134 28.746 36.8844 28.419C37.1584 28.089 37.0474 27.831 36.8844 27.549Z" fill="#4A2533"/>
<path d="M29.7303 33.321C29.6263 33.1902 29.5196 33.0615 29.4103 32.935C29.1603 32.646 28.9123 32.363 28.7293 32.018C28.5508 31.6891 28.4361 31.3295 28.3913 30.958C28.3713 30.8 28.3673 30.643 28.3713 30.488C28.3913 29.977 28.5213 29.461 28.6893 28.911C28.7883 28.585 28.8333 28.226 29.0123 27.932C29.0673 27.844 28.9373 27.776 28.8773 27.852C28.8543 27.882 28.8363 27.914 28.8153 27.944C28.3873 26.738 27.2823 25.97 26.2013 25.348C25.9913 25.228 24.7693 24.637 24.3783 24.91C24.3513 24.855 24.2563 24.84 24.2453 24.916C24.1253 25.703 23.9233 26.474 23.7043 27.239C23.5293 27.845 23.4043 28.475 23.1153 29.034C23.0337 29.1991 22.9352 29.3553 22.8213 29.5C22.3137 30.1445 21.6194 30.6163 20.8333 30.851C20.7653 30.871 20.7533 30.954 20.7953 30.997C20.5903 31.25 20.6003 31.631 20.6203 31.967C20.6673 32.757 21.0413 33.47 21.3783 34.173C21.4453 34.312 21.5113 34.451 21.5803 34.59C21.9203 35.29 22.2803 35.994 22.6923 36.647C23.1653 37.395 23.7023 38.097 24.1513 38.861C24.6113 39.644 25.1763 40.511 25.9163 41.196H28.8813C29.0843 40.907 29.2443 40.681 29.3643 40.343C29.6691 39.4717 29.8407 38.5595 29.8733 37.637C29.9023 36.925 29.9483 36.187 30.0433 35.462C30.0633 35.42 30.0833 35.378 30.1013 35.334C30.3633 34.668 30.1513 33.87 29.7303 33.321Z" fill="#F7C8B5"/>
<path d="M31.7741 27.843C31.7411 27.803 31.6741 27.8 31.6301 27.825C31.6081 27.837 31.5921 27.849 31.5831 27.873C31.5291 28.023 31.7671 28.315 31.8291 28.453C31.9991 28.833 32.0121 29.172 31.8891 29.569C31.8491 29.704 32.0301 29.761 32.1041 29.659C32.4791 29.148 32.1411 28.278 31.7741 27.843Z" fill="#755462"/>
<path d="M32.1702 27.116C32.0202 26.925 31.8702 26.664 31.7172 26.476C31.5987 26.3313 31.4675 26.1975 31.3252 26.076C31.4182 25.944 31.3992 25.737 31.3892 25.585C31.3792 25.438 31.3672 25.187 31.2182 25.105C31.1482 25.068 31.0532 25.087 31.0132 25.159C30.9492 25.275 30.9732 25.457 30.9712 25.586C30.9682 25.711 30.9272 25.893 30.9652 26.013C30.9732 26.036 30.9852 26.058 31.0022 26.077C30.8792 26.232 30.7822 26.405 30.6522 26.56C30.5362 26.696 30.3462 26.825 30.3042 27.011C30.2532 27.241 30.5212 27.489 30.6412 27.658C30.8102 27.893 30.9712 28.135 31.1272 28.38C31.1332 28.388 31.1402 28.394 31.1462 28.4C31.1582 28.467 31.2422 28.52 31.2962 28.453C31.4862 28.221 31.6482 27.969 31.8302 27.733C31.9602 27.567 32.2052 27.16 32.1702 27.116ZM31.6432 27.676C31.5082 27.85 31.3862 28.032 31.2542 28.206C31.1282 28.006 30.9882 27.81 30.8522 27.616C30.7282 27.438 30.5722 27.282 30.4802 27.088C30.5122 27.038 30.5382 26.985 30.5742 26.935C30.6532 26.825 30.7512 26.732 30.8342 26.625C30.9502 26.475 31.0512 26.315 31.1592 26.159H31.1652C31.2932 26.303 31.4392 26.428 31.5612 26.577C31.7182 26.77 31.8282 26.995 31.9952 27.182C31.8922 27.359 31.7692 27.515 31.6432 27.677V27.676Z" fill="white"/>
<path d="M31.7869 24.983C31.7849 24.858 31.7799 24.733 31.7739 24.608C31.7339 23.776 31.6689 22.946 31.3969 22.153C31.1119 21.323 30.7989 20.427 30.3119 19.693C29.9269 19.111 29.3989 18.743 28.9019 18.303C28.9239 18.273 28.9289 18.23 28.8939 18.191C28.6599 17.927 28.3489 17.978 28.0259 18.025C27.3488 18.1179 26.6864 18.2974 26.0549 18.559C25.0549 18.981 24.1279 19.714 23.5499 20.636C23.0099 21.496 22.9999 22.55 23.2229 23.512C23.3389 24.018 23.5199 24.511 23.7439 24.98C24.0559 25.634 24.3369 26.38 24.7729 26.961C24.7879 26.981 24.8109 26.99 24.8329 26.99C25.0989 27.375 25.3959 27.745 25.7779 27.987C26.4279 28.399 29.3669 28.777 30.1709 28.589C30.4819 28.516 30.7829 28.376 30.9919 28.129C31.2319 27.845 31.3189 27.434 31.4119 27.083C31.5939 26.383 31.7979 25.697 31.7869 24.983Z" fill="#F7C8B5"/>
<path d="M25.6583 25.741C25.5363 25.777 25.4263 25.821 25.3183 25.861C25.1183 25.389 24.7253 24.992 24.4483 24.574C24.2153 24.224 24.0453 23.79 23.6313 23.621C23.5763 23.598 23.5013 23.656 23.5083 23.714L23.5173 23.798C23.2723 23.818 23.0713 24.003 22.9543 24.267C22.7313 24.773 22.8043 25.388 23.2283 25.761C23.5883 26.077 24.5923 26.452 25.2513 26.298C25.3083 26.351 25.3843 26.31 25.4103 26.248C25.4962 26.2148 25.5745 26.1644 25.6404 26.1C25.7062 26.0355 25.7583 25.9583 25.7933 25.873C25.8253 25.796 25.7313 25.719 25.6583 25.741Z" fill="#F7C8B5"/>
<path d="M30.2868 21.73C30.2078 21.645 30.1008 21.612 29.9968 21.707C29.8348 21.857 30.0158 22.307 30.2548 22.242C30.4708 22.182 30.4228 21.878 30.2868 21.73ZM26.5478 22.68C26.4618 22.587 26.3458 22.551 26.2318 22.655C26.0548 22.819 26.2518 23.308 26.5118 23.236C26.7468 23.172 26.6948 22.84 26.5478 22.68Z" fill="#2E1A15"/>
<path d="M30.0068 23.25C29.7488 22.968 29.5758 22.738 29.4588 22.36C29.3388 21.97 29.4078 21.594 29.3278 21.205C29.3138 21.137 29.2068 21.139 29.1908 21.205C29.0608 21.755 29.1308 22.245 29.3608 22.759C29.5848 23.26 30.1358 23.59 29.9038 24.193C29.8498 24.333 30.0758 24.393 30.1288 24.254C30.2918 23.839 30.3028 23.574 30.0068 23.25Z" fill="#B28F98"/>
<path d="M29.6072 23.836C29.5332 23.766 29.4312 23.793 29.3492 23.834C29.2772 23.87 29.1842 23.916 29.1572 23.994C29.1382 24.046 29.1782 24.091 29.2232 24.109C29.2952 24.139 29.3672 24.083 29.4242 24.046C29.4772 24.013 29.5412 24.004 29.5902 23.971C29.6352 23.941 29.6502 23.877 29.6072 23.836Z" fill="#4A2533"/>
<path d="M24.5459 25.646C24.4709 25.524 24.4579 25.413 24.3179 25.353C24.2759 25.334 24.2319 25.337 24.1879 25.325C24.0879 25.298 23.7709 25.136 23.9959 24.999C24.0329 24.976 24.0639 24.923 24.0459 24.879C23.9289 24.599 23.6179 24.469 23.4379 24.234C23.3809 24.159 23.2259 24.198 23.2679 24.306C23.3629 24.554 23.6039 24.714 23.7919 24.902C23.6939 25.024 23.6969 25.184 23.7939 25.332C23.8479 25.4117 23.923 25.4747 24.0109 25.514C24.1039 25.561 24.2159 25.561 24.3009 25.64C24.3719 25.707 24.3279 25.719 24.4289 25.763C24.5009 25.793 24.5949 25.726 24.5459 25.646ZM28.5529 28.526C28.2603 28.4788 27.9683 28.4281 27.6769 28.374C27.3519 28.311 27.0169 28.293 26.6999 28.201C25.9019 27.969 25.3669 27.444 24.8959 26.78C24.8279 26.684 24.6889 26.782 24.7459 26.882C25.0729 27.446 25.5959 28.002 26.2079 28.257C26.6009 28.421 27.0159 28.52 27.4349 28.594C27.7719 28.654 28.3829 28.702 28.5529 28.652C28.6039 28.637 28.6039 28.535 28.5529 28.526Z" fill="#B28F98"/>
<path d="M30.5656 25.646C30.5886 25.529 30.4856 25.438 30.3776 25.422C30.0166 25.367 29.6486 25.458 29.2856 25.458C28.8256 25.458 28.3776 25.368 27.9206 25.352C27.5006 25.337 27.4266 25.576 27.6766 25.902C28.3636 26.792 30.2866 27.065 30.5656 25.646Z" fill="white"/>
<path d="M26.8979 21.401L26.8989 21.378C26.8999 21.328 26.8599 21.272 26.8139 21.252C26.3809 21.059 25.8069 21.204 25.4369 21.477C25.2459 21.611 25.0869 21.787 24.9729 21.995C24.9179 22.095 25.0069 22.188 25.1039 22.193C25.2139 22.199 25.2779 22.139 25.3639 22.077C25.5119 21.969 25.6409 21.891 25.8189 21.83C26.1369 21.72 26.4829 21.678 26.7939 21.556C26.8639 21.53 26.8969 21.473 26.8979 21.401ZM29.3059 20.855L29.2929 20.835C29.2803 20.8118 29.2743 20.7856 29.2753 20.7592C29.2764 20.7328 29.2845 20.7072 29.2989 20.685C29.5669 20.293 30.1329 20.12 30.5919 20.16C30.8249 20.176 31.0539 20.243 31.2599 20.36C31.3599 20.416 31.3319 20.542 31.2519 20.597C31.1599 20.658 31.0749 20.642 30.9699 20.633C30.7969 20.6141 30.622 20.6233 30.4519 20.66C30.1229 20.732 29.8059 20.877 29.4759 20.933C29.4039 20.947 29.3459 20.915 29.3059 20.855Z" fill="#755462"/>
<path d="M30.2716 18.73C29.9626 18.333 29.3666 17.921 28.8936 17.754C28.2306 17.519 27.5766 17.66 26.9196 17.834C25.9836 18.083 24.1496 18.588 23.9226 19.725C23.9043 19.7442 23.8891 19.7661 23.8776 19.79C23.4396 19.971 23.3076 20.657 23.2176 21.056C23.0106 21.978 22.9316 22.764 23.0916 23.692C23.0951 23.7135 23.1044 23.7335 23.1186 23.75C23.0046 23.817 22.8936 23.868 22.7936 23.972C22.7316 24.034 22.7936 24.15 22.8836 24.123C23.5446 23.919 24.0136 23.378 24.0586 22.666C24.0726 22.446 24.0206 22.222 23.9926 22.006C23.9436 21.615 24.0086 21.269 24.0846 20.888C24.1106 20.751 24.0886 20.559 24.0696 20.367C24.3026 19.994 24.7126 19.587 25.0686 19.345C25.4916 19.059 25.8436 19.07 26.3226 19.125C26.7446 19.172 27.0076 19.125 27.4066 18.99C27.8666 18.835 28.1886 19.036 28.6166 19.16C28.9346 19.252 29.2276 19.14 29.5366 19.262C29.7226 19.336 30.0166 19.466 30.2336 19.415C30.5996 19.327 30.4376 18.944 30.2716 18.73Z" fill="#4A2533"/>
<path d="M23.2013 19.234C22.9913 19.121 22.9543 18.828 22.7173 18.699C22.4503 18.555 22.2023 18.583 21.9583 18.753C21.9013 18.793 21.9133 18.91 21.9983 18.9C22.3413 18.86 22.6353 18.893 22.8183 19.216C22.8823 19.327 22.9133 19.396 23.0343 19.458C23.3623 19.624 23.6073 19.515 23.8013 19.894C23.8483 19.986 23.9773 19.934 23.9833 19.844C24.0213 19.332 23.5183 19.404 23.2013 19.234ZM23.6043 20.152C22.9663 20.393 22.7113 21.152 22.7573 21.78C22.8063 22.45 22.8653 22.866 22.3683 23.408C22.1053 23.693 21.8113 23.97 21.6623 24.335C21.5293 24.659 21.5323 24.99 21.6403 25.32C21.7073 25.527 21.8463 25.73 21.8813 25.946C21.9533 26.381 21.7593 26.646 21.4593 26.923C21.1233 27.235 20.4363 27.994 20.9523 28.453C21.0423 28.533 21.1873 28.431 21.1233 28.322C20.6873 27.575 21.9683 27.055 22.1473 26.442C22.3813 25.648 21.5193 25.086 21.9993 24.256C22.3223 23.698 22.9883 23.366 23.0743 22.682C23.1843 21.796 22.7443 20.952 23.6773 20.326C23.7613 20.269 23.7103 20.111 23.6043 20.152ZM21.3713 23.112C20.5533 23.099 20.3583 23.97 20.3483 24.625C20.3433 24.881 20.3843 25.149 20.3153 25.398C20.2353 25.681 20.0323 25.904 19.9053 26.163C19.6953 26.594 19.6113 27.153 19.7853 27.608C19.8253 27.712 19.9853 27.702 19.9893 27.58C20.0043 27.01 19.9883 26.56 20.2873 26.042C20.4413 25.775 20.5823 25.544 20.6123 25.228C20.6883 24.424 20.4303 23.585 21.3883 23.23C21.4483 23.208 21.4433 23.113 21.3713 23.112ZM31.2293 18.811C30.8173 18.606 30.3083 18.779 29.9363 18.533C29.6863 18.368 29.5823 18.222 29.2523 18.183C28.8383 18.134 28.4373 18.268 28.0273 18.258C27.4973 18.244 27.1963 17.771 26.6793 17.708C25.6643 17.581 25.0273 18.261 24.3323 18.84C24.2463 18.91 24.3563 19.039 24.4473 18.989C24.7903 18.801 25.0193 18.477 25.3573 18.279C25.8503 17.993 26.5713 17.836 27.0813 18.138C27.3253 18.281 27.5053 18.468 27.7953 18.515C28.1013 18.567 28.4253 18.477 28.7313 18.455C28.9313 18.44 29.1563 18.415 29.3533 18.469C29.6173 18.539 29.6033 18.656 29.7933 18.802C30.0163 18.972 30.1493 18.935 30.4243 18.932C31.5103 18.926 32.1383 19.941 32.3313 20.896C32.3553 21.016 32.5223 20.976 32.5323 20.869C32.6103 20.082 31.9183 19.155 31.2293 18.811Z" fill="#755462"/>
<path d="M35.7699 27.928C35.6729 27.582 35.4189 27.412 35.1799 27.158C34.7739 26.727 34.6939 26.213 34.5819 25.658C34.5259 25.378 34.4689 25.041 34.2819 24.81C34.2079 24.718 34.1219 24.669 34.0299 24.597C33.7379 24.367 33.6229 24.183 33.5829 23.805C33.5229 23.225 33.5719 22.641 33.0029 22.299C32.5139 22.006 32.0679 21.963 31.8649 21.332C31.7249 20.899 31.8089 20.452 31.6109 20.033C31.5789 19.967 31.4589 19.997 31.4679 20.072C31.5529 20.798 31.4429 21.628 32.0779 22.142C32.4739 22.463 33.0279 22.437 33.2229 22.989C33.3419 23.323 33.2699 23.708 33.3409 24.055C33.4019 24.353 33.5289 24.555 33.7669 24.746C34.1679 25.069 34.2669 25.405 34.3609 25.906C34.4389 26.323 34.5299 26.72 34.7759 27.076C35.0139 27.419 35.3759 27.648 35.6189 27.99C35.6699 28.064 35.7959 28.023 35.7699 27.928ZM33.1479 26.582C32.9539 26.039 33.3229 25.397 33.0209 24.872C32.8909 24.647 32.3439 24.438 32.3489 24.195C32.3509 24.09 32.2059 24.081 32.1729 24.172C32.1069 24.352 32.2479 24.48 32.3719 24.597C32.5479 24.764 32.7579 24.869 32.8389 25.117C32.9369 25.411 32.8369 25.798 32.8109 26.097C32.7789 26.457 32.7909 26.733 33.0409 27.012C33.4939 27.517 34.1129 27.842 33.8919 28.639C33.8719 28.715 33.9789 28.789 34.0339 28.721C34.7339 27.851 33.3879 27.252 33.1479 26.582ZM26.4599 15.798C26.1179 15.874 25.9299 16.054 25.6379 16.231C25.2579 16.463 24.8489 16.378 24.4469 16.505C23.9319 16.668 23.6769 17.147 23.4469 17.599C23.3899 17.708 23.5289 17.827 23.6219 17.734C23.9759 17.378 24.0549 16.884 24.6119 16.739C25.0359 16.629 25.3969 16.714 25.7779 16.467C26.2539 16.157 26.6159 15.983 27.2099 15.993C27.4489 15.996 28.0449 15.986 28.1659 16.243C28.1959 16.308 28.2839 16.279 28.3059 16.225C28.5369 15.626 26.6739 15.75 26.4599 15.798Z" fill="#755462"/>
<path d="M31.6717 40.914C31.6217 40.266 31.5287 39.618 31.4437 38.974C31.3527 38.284 31.3717 37.571 31.1237 36.912C30.9857 36.545 30.8237 36.196 30.7007 35.834C30.7025 35.6796 30.6991 35.5252 30.6907 35.371C30.6617 34.831 30.7297 34.357 30.4307 33.886C30.2027 33.529 29.9407 33.142 29.5887 32.896L29.5597 32.876C29.5077 32.841 29.4557 32.87 29.4097 32.936C29.2817 33.108 29.1847 33.533 29.1517 33.607C29.0387 33.863 28.8787 34.085 28.7467 34.331C28.4857 34.818 28.3367 35.421 28.2007 35.955C28.0417 36.581 27.7907 37.117 27.5187 37.698C27.2717 38.224 27.1937 38.806 26.9547 39.332C26.9508 39.3332 26.9468 39.3342 26.9427 39.335C26.8827 39.261 26.8227 39.187 26.7567 39.115C25.9917 38.251 25.4747 37.169 24.9047 36.176C24.6317 35.699 24.3527 35.225 24.0177 34.788C23.6837 34.352 23.2957 33.969 23.0047 33.499C22.6944 32.9873 22.4421 32.4426 22.2527 31.875C22.1667 31.627 22.0947 31.373 22.0177 31.122C21.9739 30.9712 21.9208 30.8232 21.8587 30.679C21.7987 30.549 21.7607 30.492 21.6967 30.478C21.6457 30.467 21.5777 30.485 21.4717 30.514C21.4357 30.524 21.4017 30.534 21.3667 30.542C21.1812 30.5845 20.9926 30.6122 20.8027 30.625C20.7028 30.6334 20.6028 30.64 20.5027 30.645C20.3713 30.7272 20.2593 30.8371 20.1747 30.967C19.7297 31.272 19.8517 31.972 19.8517 32.476C19.8517 32.542 19.8507 32.606 19.8447 32.663C19.8147 32.973 19.8047 33.277 19.8117 33.58C19.8257 34.491 19.9717 35.38 20.0877 36.306C20.1587 36.866 20.3507 37.396 20.4347 37.954C20.5347 38.627 20.4527 39.279 20.4417 39.954C20.4347 40.333 20.4437 40.875 20.5147 41.31H31.6997C31.6897 41.168 31.6797 40.997 31.6717 40.914Z" fill="white"/>
<path d="M21.7279 40.874C21.7049 39.617 21.7109 38.36 21.6579 37.103C21.6114 35.882 21.5771 34.6606 21.5549 33.439C21.5439 32.799 21.4349 32.167 21.3879 31.529C21.3609 31.162 21.3829 30.862 21.3739 30.647C21.3714 30.5897 21.3653 30.5326 21.3559 30.476C21.3139 30.262 20.2179 29.75 19.8669 29.502C17.3369 29.215 16.7589 30.938 15.7539 30.938V41.31H21.7289C21.7309 41.166 21.7299 41.02 21.7279 40.874ZM39.4779 38.229C39.2389 37.934 38.8989 37.645 38.5359 37.519C38.2479 37.42 37.9909 37.433 37.7309 37.24C37.5009 37.069 37.3389 36.825 37.1019 36.656C36.6999 36.368 36.2219 36.244 35.7929 36.009C35.3669 35.775 35.1769 35.329 34.8069 35.031C34.3899 34.698 33.8339 34.616 33.3519 34.411C32.7719 34.166 32.1869 33.914 31.6599 33.567C31.1029 33.202 30.5059 32.513 29.7589 32.705C29.6709 32.728 29.6169 32.796 29.5889 32.897C29.5712 32.9686 29.5631 33.0423 29.5649 33.116C29.5649 33.763 30.0319 34.959 30.0839 35.244L30.1009 35.335C30.2709 36.274 30.4599 37.184 30.6709 38.115C30.8989 39.127 30.6179 40.111 30.7689 41.118L30.7959 41.311H42.2789C41.5189 40.24 40.3269 39.291 39.4779 38.229Z" fill="#9A92E6"/>
<path d="M16.0163 31.148C16.6513 30.858 17.5993 30.818 18.0163 31.074C18.4363 31.335 18.3203 31.774 17.8933 31.899C17.6753 31.964 17.4203 31.959 17.1913 32.019C16.9613 32.083 16.7343 32.161 16.5013 32.223C16.4573 32.236 16.0033 32.525 15.7363 32.684L15.8533 31.279C15.8966 31.2231 15.9524 31.1782 16.0163 31.148Z" fill="#F7C8B5"/>
<path d="M17.4506 31.196C16.9586 31.432 16.5356 31.616 15.9086 31.496C15.6936 31.453 15.4626 31.381 15.4086 31.143C15.3526 30.888 15.6316 30.719 15.8246 30.59C15.3506 30.47 14.9546 30.364 14.9016 30.082C14.8396 29.752 15.0446 29.491 15.4146 29.274C15.1186 29.158 14.8176 28.987 14.9176 28.711C14.9976 28.487 15.2636 28.323 15.6936 28.182C15.0796 27.862 15.5106 27.382 15.9706 27.202C16.7636 26.894 17.4776 27.27 17.5806 27.414C17.6323 27.4788 17.668 27.5548 17.6848 27.6359C17.7017 27.7171 17.6992 27.801 17.6776 27.881C17.6529 27.9558 17.6135 28.0248 17.5616 28.084C17.8886 28.218 18.1326 28.472 17.9546 28.869C17.9351 28.9133 17.9117 28.9558 17.8846 28.996C18.0376 29.12 18.1266 29.304 18.1026 29.568C18.0756 29.856 17.9046 30.065 17.6596 30.218C17.8796 30.504 17.8796 30.992 17.4506 31.196Z" fill="#F7C8B5"/>
<path d="M15.8319 29.169C15.9679 28.977 16.2569 29.025 16.4609 29.02C16.7829 29.011 17.1019 28.993 17.4229 29.029C17.5609 29.044 17.5159 29.251 17.3809 29.238C16.8809 29.188 16.3769 29.241 15.8789 29.268C15.8239 29.27 15.8039 29.208 15.8319 29.169ZM15.9799 28.097C16.1759 28.039 16.3899 28.045 16.5929 28.025C16.8042 28.0059 17.0169 28.0072 17.2279 28.029C17.3339 28.039 17.3179 28.205 17.2159 28.212C16.9999 28.227 16.7859 28.212 16.5689 28.235C16.3769 28.255 16.1809 28.255 15.9879 28.237C15.9159 28.229 15.9149 28.116 15.9799 28.097ZM16.0939 30.372C16.3369 30.341 16.5759 30.293 16.8179 30.254C17.0309 30.219 17.2719 30.164 17.4849 30.214C17.5499 30.231 17.5649 30.331 17.4939 30.351C17.2809 30.408 17.0489 30.409 16.8309 30.444C16.5899 30.484 16.3489 30.532 16.1059 30.564C15.9819 30.581 15.9709 30.388 16.0939 30.372ZM17.6559 30.974C17.4019 31.114 17.1159 31.179 16.8709 31.334C16.8009 31.378 16.8539 31.472 16.9159 31.485C17.0499 31.513 17.1979 31.397 17.3209 31.35C17.4759 31.29 17.6119 31.212 17.7419 31.11C17.8119 31.053 17.7389 30.929 17.6559 30.974ZM20.8839 30.501C20.8549 30.54 20.8279 30.581 20.8039 30.625C20.6139 30.958 20.5189 31.443 20.3859 31.778C20.1789 32.298 19.9899 32.826 19.8599 33.371C19.8429 33.441 19.8279 33.511 19.8129 33.581C19.7035 34.1003 19.6542 34.6305 19.6659 35.161C19.6759 35.618 19.7429 36.08 19.6689 36.535C19.5909 37.012 19.3599 37.458 19.1509 37.889C18.9018 38.3969 18.7097 38.9309 18.5779 39.481C18.4559 39.991 18.3389 40.501 18.2099 41.009C18.1831 41.1105 18.1524 41.2109 18.1179 41.31H17.8959C17.9139 41.257 17.9299 41.203 17.9449 41.149C18.0989 40.576 18.2209 39.996 18.3569 39.419C18.4641 38.9407 18.621 38.4748 18.8249 38.029C19.0969 37.448 19.4259 36.875 19.4549 36.219C19.4809 35.622 19.3809 35.031 19.4259 34.431C19.4825 33.7635 19.626 33.1063 19.8529 32.476C19.9979 32.062 20.1709 31.66 20.3329 31.251C20.4109 31.056 20.4629 30.835 20.5549 30.642C20.5992 30.5467 20.6582 30.4589 20.7299 30.382C20.8059 30.304 20.9529 30.412 20.8839 30.501ZM32.7399 38.874C33.0839 39.664 33.2719 40.502 33.5499 41.311H33.2949C33.0119 40.478 32.8099 39.621 32.4519 38.811C32.0269 37.847 31.7809 36.914 31.5639 35.886C31.4619 35.408 31.3619 34.895 31.1429 34.455C30.9709 34.109 30.6549 33.879 30.5149 33.52C30.4759 33.422 30.6349 33.36 30.6819 33.45C30.8919 33.837 31.2329 34.08 31.4139 34.494C31.5819 34.882 31.6789 35.304 31.7679 35.715C31.8849 36.252 31.9659 36.798 32.1179 37.325C32.2729 37.863 32.5179 38.365 32.7399 38.874Z" fill="white"/>
<path d="M26.651 40.655C26.5908 40.8687 26.5543 41.0884 26.542 41.31H26.29C26.3088 41.0667 26.3531 40.8261 26.422 40.592C26.54 40.218 26.772 39.892 26.838 39.504C26.854 39.411 26.989 39.441 26.994 39.524C27.019 39.937 26.766 40.271 26.651 40.655Z" fill="#755462"/>
<path d="M28.3919 30.957C28.3113 30.9526 28.2306 30.9502 28.1499 30.95C27.3499 30.953 26.5559 30.823 25.7759 30.658C25.0493 30.5027 24.3502 30.2391 23.7019 29.876C23.4419 29.734 23.1429 29.596 22.8789 29.421C22.9709 29.297 23.0489 29.168 23.1159 29.033C23.9489 29.603 24.9439 30.007 25.9009 30.207C26.6059 30.355 27.3209 30.471 28.0439 30.48L28.3719 30.487C28.3679 30.643 28.3719 30.8 28.3919 30.957Z" fill="#9A92E6"/>
<path d="M24.8235 27.619C24.6735 27.428 24.5235 27.167 24.3705 26.979C24.252 26.8343 24.1208 26.7005 23.9785 26.579C24.0715 26.447 24.0525 26.24 24.0425 26.088C24.0325 25.941 24.0205 25.69 23.8715 25.608C23.8015 25.571 23.7065 25.59 23.6665 25.662C23.6025 25.778 23.6265 25.96 23.6245 26.089C23.6215 26.214 23.5805 26.396 23.6185 26.516C23.6265 26.539 23.6385 26.561 23.6545 26.58C23.5325 26.735 23.4355 26.908 23.3045 27.063C23.1895 27.199 22.9995 27.328 22.9575 27.514C22.9065 27.744 23.1745 27.992 23.2945 28.161C23.4625 28.396 23.6245 28.638 23.7805 28.883C23.7865 28.891 23.7935 28.897 23.7995 28.903C23.8115 28.972 23.8955 29.023 23.9495 28.956C24.1395 28.724 24.3015 28.472 24.4835 28.236C24.6115 28.071 24.8575 27.665 24.8235 27.619ZM24.2966 28.181C24.1616 28.354 24.0396 28.536 23.9076 28.711C23.7816 28.51 23.6415 28.314 23.5055 28.12C23.3815 27.942 23.2255 27.786 23.1336 27.592C23.1656 27.542 23.1915 27.489 23.2275 27.439C23.3065 27.33 23.4036 27.236 23.4876 27.129C23.6036 26.979 23.7045 26.819 23.8125 26.663H23.8185C23.9465 26.807 24.0925 26.932 24.2145 27.081C24.3715 27.274 24.4815 27.5 24.6485 27.686C24.5455 27.862 24.4226 28.018 24.2966 28.181Z" fill="white"/>
<path d="M16.0318 43.192L10.6588 47.515C10.6588 47.515 9.40084 48.083 12.8308 48.083C16.2608 48.083 52.5028 48.311 53.1888 47.856C53.8748 47.401 47.0148 43.192 47.0148 43.192H16.0318Z" fill="#677F93"/>
<path d="M16.0139 43.582C18.9939 43.567 21.9669 43.309 24.9479 43.344C27.8839 43.378 30.8179 43.345 33.7529 43.328C33.9009 43.328 33.9009 43.1 33.7529 43.101C30.8169 43.118 27.8829 43.151 24.9479 43.117C21.9679 43.083 18.9929 43.34 16.0139 43.354C15.8669 43.356 15.8669 43.584 16.0139 43.582ZM36.7819 43.451C37.4769 43.211 38.2349 43.352 38.9529 43.384C39.8259 43.423 40.7089 43.408 41.5829 43.407C42.5179 43.406 43.4499 43.347 44.3829 43.37C45.3489 43.394 46.3109 43.47 47.2749 43.521C47.4219 43.529 47.4209 43.302 47.2749 43.294C47.0423 43.2797 46.8102 43.2581 46.5789 43.229C46.4329 43.211 46.4349 43.439 46.5789 43.457C46.8109 43.485 47.0419 43.507 47.2749 43.521V43.294C46.3109 43.243 45.3489 43.167 44.3839 43.143C43.3749 43.118 42.3679 43.181 41.3609 43.179C40.4839 43.177 39.5969 43.199 38.7209 43.143C38.0579 43.101 37.3629 43.011 36.7229 43.233C36.5829 43.279 36.6429 43.499 36.7819 43.451ZM13.5249 44.979C18.1549 44.979 22.7919 45.047 27.4229 44.944C29.7749 44.89 32.1239 44.792 34.4759 44.746C36.7559 44.7 39.0339 44.75 41.3139 44.766C42.5689 44.773 43.8239 44.766 45.0769 44.713C45.7349 44.684 46.3869 44.68 47.0469 44.681C47.4699 44.681 48.0429 44.767 48.4539 44.658C48.5059 44.645 48.5319 44.599 48.5369 44.549L48.5439 44.486C48.5599 44.341 48.3309 44.342 48.3149 44.486C48.3199 44.444 45.5529 44.465 45.2989 44.476C44.1553 44.525 43.0106 44.5467 41.8659 44.541C39.5919 44.535 37.3189 44.473 35.0439 44.509C30.4619 44.582 25.8889 44.753 21.3049 44.753H13.5239C13.3789 44.751 13.3789 44.979 13.5249 44.979ZM12.6309 46.185C17.6089 46.192 22.5779 46.526 27.5559 46.522C32.5679 46.518 37.5789 46.422 42.5899 46.332C45.4229 46.281 48.2569 46.264 51.0879 46.385C51.1969 46.39 51.2249 46.262 51.1689 46.191L51.0609 46.054C50.9689 45.939 50.8089 46.101 50.8989 46.214L51.0079 46.351L51.0889 46.157C46.1039 45.942 41.1149 46.157 36.1289 46.221C31.1249 46.286 26.1149 46.371 21.1109 46.196C18.2849 46.099 15.4589 45.96 12.6289 45.956C12.4829 45.958 12.4829 46.185 12.6299 46.185H12.6309Z" fill="white"/>
<path d="M15.8522 43.388C15.861 43.3859 15.8697 43.3832 15.8782 43.38L15.7382 43.3C15.7082 43.178 15.7732 43.253 15.6602 43.308C15.5942 43.34 15.5332 43.415 15.4762 43.462C15.3062 43.6 15.1342 43.734 14.9602 43.865C14.4272 44.267 13.8822 44.655 13.3472 45.052C12.3982 45.757 11.2102 46.471 10.6252 47.529C10.5822 47.607 10.6382 47.695 10.7232 47.699C12.1012 47.783 13.5062 47.814 14.0172 46.292C14.0642 46.153 13.8432 46.093 13.7972 46.232C13.3202 47.65 11.9702 47.548 10.7232 47.472L10.8222 47.642C11.2102 46.941 11.8752 46.456 12.5002 45.976C13.1232 45.497 13.7542 45.031 14.3872 44.566C14.5952 44.414 16.0362 43.556 15.9572 43.24C15.9422 43.181 15.8752 43.145 15.8172 43.16C15.808 43.1621 15.799 43.1648 15.7902 43.168C15.6502 43.208 15.7102 43.428 15.8522 43.388Z" fill="white"/>
<path d="M13.2056 47.646C13.3526 47.646 13.3526 47.418 13.2056 47.418C13.0596 47.418 13.0586 47.646 13.2056 47.646Z" fill="white"/>
<path d="M13.0146 47.709C17.6846 47.707 22.3516 47.698 27.0206 47.706C31.7106 47.714 36.3806 47.576 41.0646 47.341C43.4796 47.219 45.9746 46.802 48.3796 47.197V46.977H48.2686C48.1266 46.937 48.0666 47.157 48.2086 47.197C48.3206 47.229 48.3336 47.235 48.4406 47.197C48.5356 47.163 48.5636 46.998 48.4406 46.977C46.3876 46.641 44.3156 46.931 42.2566 47.052C39.8966 47.19 37.5336 47.296 35.1716 47.382C30.4616 47.554 25.7446 47.472 21.0336 47.476C18.3606 47.477 15.6876 47.48 13.0136 47.483C12.8666 47.482 12.8666 47.709 13.0136 47.709H13.0146ZM48.4746 44.565C49.0706 45.192 49.8806 45.637 50.6676 45.98C50.8016 46.038 50.9176 45.842 50.7826 45.783C50.0146 45.448 49.2176 45.015 48.6366 44.405C48.5356 44.298 48.3736 44.458 48.4746 44.565ZM45.8596 44.946C46.1496 45.286 46.4246 45.659 46.7526 45.962C46.8596 46.061 47.0226 45.9 46.9136 45.802C46.5836 45.499 46.3086 45.126 46.0206 44.786C45.9256 44.673 45.7646 44.834 45.8596 44.946ZM43.7356 44.86C43.9556 45.173 44.1736 45.487 44.3736 45.812C44.4506 45.937 44.6476 45.822 44.5716 45.697C44.3716 45.372 44.1526 45.058 43.9336 44.745C43.8486 44.625 43.6506 44.739 43.7356 44.86ZM41.9666 44.882C42.1066 45.032 42.2296 45.201 42.3426 45.372C42.3996 45.459 42.5886 45.709 42.5746 45.787C42.5506 45.931 42.7706 45.992 42.7946 45.847C42.8246 45.674 42.6816 45.48 42.5946 45.34C42.4588 45.1191 42.3024 44.9115 42.1276 44.72C42.0276 44.613 41.8676 44.775 41.9666 44.882Z" fill="white"/>
<path d="M45.1614 34.955C45.6224 34.627 46.6554 35.13 47.2044 35.479C50.2364 37.116 49.5114 38.36 49.5114 38.884C49.5114 39.304 48.4564 40.674 47.9294 41.307H42.5254C42.7004 41.154 43.0784 40.77 43.1844 40.456C43.3164 40.063 43.8434 39.801 44.1724 39.67C44.5024 39.539 44.1724 38.164 44.1724 37.967C44.1724 37.771 44.2384 36.919 44.3704 36.265C44.5024 35.61 44.6254 35.335 45.1614 34.955Z" fill="#9A92E6"/>
<path d="M46.376 36.298C46.376 36.298 47.016 35.511 47.37 33.374C47.464 32.206 46.36 28.587 47.803 31.178C47.923 31.395 48.083 31.852 48.083 31.852C48.083 31.852 48.869 23.518 49.304 27.598C49.981 24.535 50.281 25.83 50.244 26.848C50.66 25.283 50.924 28.223 50.519 29.424C51.245 26.669 51.28 30.461 51.191 30.946C50.859 33.296 48.28 37.719 48.28 37.719C48.28 37.719 47.156 38.359 46.376 36.298Z" fill="#F7C8B5"/>
<path d="M48.1152 32.031C48.2592 32.187 48.3702 32.331 48.4572 32.545C48.5032 32.659 48.5302 32.807 48.5322 32.935C48.5342 33.046 48.5362 33.018 48.5792 32.942C48.658 32.8157 48.7558 32.7024 48.8692 32.606C49.0572 32.436 49.2652 32.275 49.4812 32.157C49.6421 32.064 49.8199 32.0041 50.0042 31.981C50.7492 31.587 50.5682 30.577 50.6392 29.194M50.2782 26.481C50.2622 27.711 50.0712 29.326 49.8522 30.001L50.2782 26.481ZM49.2802 27.382C49.2609 28.2073 49.1489 29.0278 48.9462 29.828L49.2802 27.382Z" stroke="white" stroke-width="0.159" stroke-linecap="round" stroke-linejoin="round"/>
<path d="M45.3587 35.479C45.2577 35.849 45.1187 36.23 45.2267 36.607C45.3147 36.915 45.4547 37.196 45.5927 37.484C45.8267 37.969 46.4177 38.661 46.9257 38.87C47.5137 39.111 48.2497 39.52 48.7197 38.819" stroke="white" stroke-width="0.238" stroke-linecap="round" stroke-linejoin="round"/>
</svg>
