<svg width="64" height="64" viewBox="0 0 64 64" fill="none" xmlns="http://www.w3.org/2000/svg">
<path d="M62 32C62 15.4315 48.5685 2 32 2C15.4315 2 2 15.4315 2 32C2 48.5685 15.4315 62 32 62C48.5685 62 62 48.5685 62 32Z" fill="#9DD9DE" stroke="white" stroke-width="4"/>
<path d="M53.5042 49.906L27.6152 50.3L32.4662 17.214L58.3552 16.82L53.5052 49.906H53.5042Z" fill="white"/>
<path d="M38.295 31.586C38.295 31.586 38.638 33.339 39.516 33.339C40.414 33.339 42.99 29.526 42.393 29.041C41.025 27.928 40.796 31.964 39.516 32.044C39.153 32.067 39.124 29.75 38.705 29.806C37.888 29.916 37.873 30.436 38.295 31.586Z" fill="#F26B5C"/>
<path d="M34.3611 14.605L33.9591 17.069C33.8901 17.49 34.5621 17.672 34.6321 17.247L35.0341 14.783C35.1021 14.362 34.4301 14.18 34.3611 14.605ZM38.6041 14.605L38.2021 17.069C38.1331 17.49 38.8051 17.672 38.8751 17.247C39.0081 16.425 39.1431 15.604 39.2771 14.783C39.3451 14.362 38.6731 14.18 38.6041 14.605ZM43.2531 14.605L42.8511 17.069C42.7821 17.49 43.4541 17.672 43.5241 17.247C43.6571 16.425 43.7921 15.604 43.9261 14.783C43.9951 14.362 43.3231 14.18 43.2531 14.605ZM47.4961 14.605L47.0941 17.069C47.0251 17.49 47.6971 17.672 47.7671 17.247L48.1691 14.783C48.2381 14.362 47.5661 14.18 47.4961 14.605ZM52.3201 14.772L51.9181 17.236C51.8501 17.657 52.5211 17.839 52.5911 17.414L52.9931 14.95C53.0611 14.529 52.3891 14.347 52.3201 14.772ZM56.5621 14.772L56.1611 17.236C56.0911 17.657 56.7641 17.839 56.8331 17.414L57.2351 14.95C57.3051 14.529 56.6321 14.347 56.5621 14.772Z" fill="white"/>
<path d="M36.1035 40.943C36.1475 40.736 36.4355 40.631 36.6155 40.743C37.0505 41.013 38.2825 40.794 38.7955 40.776C39.6215 40.746 40.4455 40.701 41.2675 40.646C41.3028 40.6434 41.3383 40.6468 41.3725 40.656L41.3745 40.646C41.4125 40.434 41.7475 40.524 41.7115 40.736C41.5115 41.866 41.3015 42.995 41.0905 44.124C41.1205 44.17 41.1425 44.222 41.1425 44.281C41.1373 44.8743 41.075 45.4657 40.9565 46.047C40.9442 46.1024 40.9157 46.1529 40.8745 46.192C40.8345 46.579 40.7645 46.964 40.6575 47.349C40.6375 47.423 40.5665 47.467 40.4895 47.471C39.3395 47.532 38.1915 47.626 37.0465 47.752C36.9425 47.763 36.8885 47.696 36.8825 47.618C36.4325 47.603 35.9855 47.581 35.5365 47.542C35.3605 47.527 35.1715 47.401 35.1875 47.207C35.3627 45.102 35.6686 43.01 36.1035 40.943ZM43.0855 27.828C43.2505 26.89 43.5955 25.956 43.7655 25.028C43.9425 24.051 43.9555 23.073 44.0355 22.09C44.5525 21.874 45.7045 22.01 46.1415 22.019C47.2495 22.041 48.3505 22.243 49.4575 22.189C49.4705 22.189 49.4815 22.186 49.4935 22.185C49.3435 23.017 49.1905 23.848 49.0365 24.679C48.9861 24.7465 48.9525 24.825 48.9385 24.908C48.7915 25.701 48.6885 26.506 48.5215 27.294C48.4765 27.507 48.3775 27.742 48.3115 27.979C47.5745 27.932 46.7385 28.167 46.0255 28.185C45.4055 28.201 44.7895 28.178 44.1725 28.139C43.9105 28.122 43.4265 28.157 43.0565 28.119L43.0855 27.828Z" fill="#B6DADD"/>
<path d="M30.1736 47.711C30.1556 47.843 30.2796 47.884 30.3856 47.85C30.4039 47.8568 30.4231 47.8605 30.4426 47.861C30.4546 47.861 30.4626 47.857 30.4736 47.855C30.4725 47.8585 30.4708 47.8619 30.4686 47.865C32.0626 47.85 35.2186 47.853 35.2886 47.811C37.1026 47.787 40.8426 47.769 40.9106 47.728C42.5406 47.702 46.1206 47.688 46.1906 47.641C47.7956 47.615 49.4776 47.587 51.2846 47.56C51.3726 47.634 51.5686 47.588 51.5906 47.431C52.7826 39.043 53.5006 30.207 54.8886 22.011C54.9166 21.845 54.7186 21.761 54.6116 21.833C52.8616 21.853 51.1466 21.877 49.4476 21.903C49.4034 21.8858 49.3543 21.8865 49.3106 21.905C47.5876 21.932 45.8826 21.961 44.1806 21.99C44.1567 21.9792 44.1307 21.9738 44.1044 21.9742C44.0782 21.9745 44.0523 21.9806 44.0286 21.992C42.2136 22.023 40.3986 22.052 38.5706 22.079C38.5443 22.0653 38.515 22.0583 38.4854 22.0586C38.4557 22.059 38.4266 22.0667 38.4006 22.081C36.9026 22.102 35.3956 22.121 33.8656 22.135C33.8656 22.225 33.8406 22.312 33.8026 22.392L33.8206 22.283C33.8556 22.072 33.5176 21.989 33.4816 22.201C32.8016 26.211 32.2726 30.328 31.7746 34.491C31.7696 34.499 31.7666 34.509 31.7646 34.518H31.7716C31.2496 38.889 30.7616 43.31 30.1736 47.711ZM32.1466 34.515C33.6916 34.501 35.1736 34.484 36.6296 34.465C36.3866 36.492 36.1506 38.53 35.9096 40.573C34.4296 40.593 32.9416 40.613 31.4306 40.627C31.6716 38.593 31.9066 36.552 32.1466 34.515ZM43.3856 28.272L48.2996 28.192C48.0396 30.097 47.8016 32.019 47.5696 33.951L42.6686 34.031C42.8956 32.101 43.1306 30.177 43.3856 28.272ZM42.2936 34.037C40.5456 34.067 38.8006 34.096 37.0436 34.122C37.2716 32.189 37.5056 30.262 37.7616 28.356C39.5236 28.333 41.2536 28.306 43.0236 28.278C42.7659 30.1961 42.5225 32.1162 42.2936 34.038V34.037ZM47.5266 34.294C47.2846 36.32 47.0486 38.356 46.8076 40.397C45.1636 40.422 43.5356 40.45 41.9116 40.477C42.1526 38.446 42.3876 36.408 42.6266 34.375L47.5266 34.295V34.294ZM41.5326 40.484C39.7866 40.514 38.0436 40.542 36.2876 40.568C36.5286 38.535 36.7636 36.495 37.0026 34.46C38.7576 34.437 40.4826 34.41 42.2516 34.382C42.0096 36.407 41.7736 38.443 41.5326 40.484ZM32.9046 28.41C34.4586 28.396 35.9426 28.38 37.4016 28.36C37.1416 30.268 36.9026 32.193 36.6716 34.127C35.1896 34.148 33.6976 34.167 32.1866 34.182C32.4146 32.248 32.6496 30.319 32.9046 28.41ZM38.2976 22.421C37.9876 24.268 37.7086 26.137 37.4496 28.023C35.9626 28.043 34.4686 28.063 32.9496 28.078C33.2066 26.185 33.4806 24.312 33.7906 22.471C35.3486 22.457 36.8366 22.44 38.2976 22.421ZM43.9196 22.339C43.6096 24.183 43.3326 26.051 43.0736 27.935C41.3226 27.964 39.5726 27.993 37.8096 28.018C38.0656 26.128 38.3396 24.256 38.6496 22.417C40.4156 22.393 42.1486 22.367 43.9196 22.339ZM49.1946 22.252C48.8846 24.096 48.6076 25.964 48.3486 27.847L43.4336 27.927C43.6886 26.039 43.9636 24.169 44.2726 22.332L49.1946 22.252ZM53.6646 27.775C51.9856 27.794 50.3386 27.817 48.7076 27.842C48.9636 25.954 49.2376 24.083 49.5476 22.246C51.1126 22.22 52.7546 22.193 54.5126 22.166C54.2026 24.016 53.9236 25.887 53.6646 27.776V27.775ZM52.8616 34.072C52.8598 34.0209 52.8381 33.9725 52.8011 33.9372C52.7641 33.9019 52.7148 33.8824 52.6636 33.883C51.0646 33.901 49.4966 33.923 47.9426 33.946C48.1706 32.016 48.4056 30.091 48.6606 28.186L53.6176 28.106C53.3497 30.0926 53.0977 32.0813 52.8616 34.072ZM52.1246 40.326C50.4516 40.345 48.8106 40.367 47.1856 40.392C47.4266 38.361 47.6616 36.322 47.9006 34.29L52.7236 34.212C52.7986 34.211 52.8396 34.172 52.8556 34.122C52.6086 36.182 52.3686 38.252 52.1246 40.326ZM46.3026 47.297C46.6076 45.133 46.8826 42.94 47.1456 40.736L52.0856 40.656C51.8266 42.846 51.5596 45.04 51.2696 47.229C49.5876 47.249 47.9366 47.272 46.3026 47.297ZM41.0276 47.384C41.3326 45.219 41.6076 43.027 41.8706 40.823L46.7676 40.743C46.5119 42.9316 46.2402 45.1183 45.9526 47.303L41.0276 47.383V47.384ZM35.4036 47.474C35.7096 45.308 35.9846 43.114 36.2476 40.907C38.0036 40.884 39.7286 40.858 41.4926 40.829C41.2366 43.0179 40.9649 45.205 40.6776 47.39C38.9236 47.42 37.1696 47.448 35.4036 47.474ZM35.0536 47.478C33.5726 47.498 32.0806 47.518 30.5676 47.531V47.534C30.5606 47.529 30.5556 47.524 30.5476 47.52C30.8526 45.356 31.1276 43.165 31.3906 40.96C32.9376 40.947 34.4166 40.93 35.8706 40.912C35.6106 43.1 35.3446 45.291 35.0536 47.478Z" fill="#B6DADD"/>
<path d="M36.6886 19.778C36.5946 19.759 36.4906 19.759 36.4096 19.818C36.3897 19.8329 36.3713 19.8497 36.3546 19.868C36.2998 19.9171 36.2589 19.9796 36.2359 20.0495C36.2129 20.1193 36.2087 20.194 36.2236 20.266C36.2536 20.42 36.4416 20.513 36.5856 20.471C36.6762 20.4463 36.7564 20.3929 36.8141 20.3188C36.8718 20.2447 36.9039 20.1539 36.9056 20.06C36.905 19.9958 36.8835 19.9335 36.8444 19.8826C36.8052 19.8317 36.7505 19.795 36.6886 19.778Z" fill="#FFF6E4"/>
<path d="M23.6584 57.495C23.5977 57.2485 23.4634 57.0263 23.2734 56.858C22.9534 56.568 22.6444 56.349 22.4214 56.047C22.2704 55.8479 22.1696 55.6153 22.1274 55.369C22.1114 55.293 22.0324 55.279 21.9794 55.309C21.9754 55.309 21.9724 55.306 21.9664 55.307C21.7704 55.305 21.5824 55.356 21.3884 55.384C21.1424 55.417 20.8974 55.428 20.6514 55.459C20.5924 55.466 20.5704 55.513 20.5774 55.557C20.5585 55.5618 20.5416 55.5725 20.5294 55.5877C20.5171 55.6028 20.5101 55.6215 20.5094 55.641C20.4974 55.816 20.4864 55.991 20.4794 56.166C20.4544 56.651 20.4414 57.136 20.4294 57.621C20.4294 57.651 20.4264 57.681 20.4274 57.713C20.4241 57.7398 20.4258 57.7669 20.4324 57.793C20.4494 57.856 20.5074 57.875 20.5674 57.879C21.2314 57.915 21.8954 57.951 22.5594 57.976C22.8854 57.986 23.2094 58.013 23.5354 57.992C23.7704 57.977 23.6924 57.649 23.6584 57.495Z" fill="#F7C8B5"/>
<path d="M23.6597 57.495C23.5986 57.2487 23.4644 57.0266 23.2747 56.858C22.9547 56.568 22.6457 56.349 22.4227 56.047C21.7777 56.168 21.1327 56.249 20.4797 56.167C20.4597 56.535 20.4487 56.904 20.4377 57.272C20.4347 57.39 20.4327 57.506 20.4287 57.622C20.4287 57.652 20.4267 57.682 20.4287 57.714C20.4251 57.7407 20.4265 57.7678 20.4327 57.794C20.4507 57.856 20.5077 57.876 20.5677 57.88C21.2317 57.916 21.8957 57.952 22.5597 57.977C22.8857 57.987 23.2097 58.014 23.5357 57.992C23.7717 57.977 23.6937 57.649 23.6597 57.495Z" fill="#2F3D4D"/>
<path d="M23.6588 57.495C23.6489 57.4517 23.6359 57.4093 23.6198 57.368C23.1078 57.361 22.5948 57.347 22.0818 57.373C21.5218 57.401 20.9938 57.275 20.4368 57.273L20.4278 57.623C20.4278 57.652 20.4258 57.682 20.4278 57.713C20.4241 57.74 20.4255 57.7674 20.4318 57.794C20.4498 57.856 20.5068 57.876 20.5668 57.88C21.2308 57.916 21.8948 57.952 22.5588 57.977C22.8848 57.987 23.2088 58.014 23.5348 57.992C23.7708 57.977 23.6928 57.649 23.6588 57.495ZM22.7898 56.286C22.6525 56.3412 22.527 56.422 22.4198 56.524C22.3278 56.611 22.4598 56.756 22.5498 56.67C22.6478 56.578 22.7548 56.51 22.8798 56.46C22.9958 56.412 22.9058 56.239 22.7898 56.286ZM23.0968 56.582C22.9509 56.6363 22.8125 56.7089 22.6848 56.798C22.5818 56.87 22.7128 57.014 22.8148 56.943C22.9298 56.865 23.0548 56.803 23.1868 56.756C23.3038 56.712 23.2138 56.539 23.0968 56.582Z" fill="#B6DADD"/>
<path d="M16.6044 57.184C16.5954 56.9303 16.5092 56.6854 16.3574 56.482C16.1044 56.134 15.8464 55.857 15.6894 55.516C15.5827 55.2903 15.5316 55.0424 15.5404 54.793C15.5404 54.715 15.4664 54.686 15.4064 54.703C15.4024 54.703 15.4014 54.7 15.3954 54.7C15.2034 54.659 15.0094 54.67 14.8124 54.659C14.5664 54.642 14.3224 54.602 14.0754 54.583C14.0164 54.577 13.9854 54.619 13.9834 54.664C13.9639 54.6647 13.9452 54.6717 13.9301 54.684C13.9149 54.6962 13.9042 54.7131 13.8994 54.732C13.8524 54.902 13.8054 55.072 13.7624 55.241C13.6384 55.711 13.5274 56.183 13.4144 56.655C13.4094 56.685 13.4004 56.713 13.3944 56.745C13.3857 56.7707 13.3823 56.7979 13.3844 56.825C13.3874 56.888 13.4404 56.919 13.4974 56.935C14.1404 57.105 14.7834 57.275 15.4274 57.432C15.7454 57.508 16.0574 57.599 16.3804 57.644C16.6154 57.679 16.6064 57.341 16.6044 57.184Z" fill="#F7C8B5"/>
<path d="M16.6051 57.184C16.5965 56.9302 16.5103 56.6852 16.3581 56.482C16.1051 56.134 15.8471 55.857 15.6901 55.516C15.0341 55.505 14.3861 55.454 13.7631 55.241C13.6691 55.598 13.5831 55.956 13.4971 56.315L13.4171 56.656C13.4111 56.686 13.4031 56.714 13.3971 56.746C13.3882 56.7713 13.3845 56.7982 13.3861 56.825C13.3901 56.889 13.4431 56.92 13.5001 56.935C14.1431 57.105 14.7851 57.275 15.4301 57.432C15.7481 57.508 16.0601 57.599 16.3831 57.645C16.6161 57.679 16.6071 57.341 16.6051 57.184ZM23.2341 38.796C23.2329 38.7775 23.2264 38.7598 23.2154 38.7449C23.2044 38.73 23.1894 38.7186 23.1721 38.712C23.1631 38.7001 23.1515 38.6905 23.1381 38.684C22.8361 38.534 22.6281 38.248 22.3181 38.122C22.1684 38.0658 22.0115 38.0308 21.8521 38.018C20.3231 37.748 18.7691 38.148 17.4021 38.868C17.3847 38.877 17.3709 38.8919 17.3631 38.91C17.3416 38.921 17.3249 38.9395 17.3161 38.962C16.9401 39.962 16.8161 41.002 16.5031 42.014C16.2211 42.928 14.3131 51.146 14.0931 52.058C13.9322 52.7194 13.799 53.3874 13.6941 54.06C13.6768 54.1725 13.6608 54.2851 13.6461 54.398C13.6321 54.501 13.6021 54.643 13.6651 54.739C13.7051 54.801 13.7591 54.804 13.8251 54.814C13.9321 54.83 14.0371 54.854 14.1441 54.87C14.6634 54.9528 15.1883 54.995 15.7141 54.996C15.7791 54.996 15.8471 55.01 15.9111 54.998C16.0411 54.974 16.0711 54.808 16.1211 54.708C16.2854 54.3898 16.4405 54.067 16.5861 53.74C16.7821 53.304 16.9611 52.863 17.1311 52.418C17.4311 51.638 17.7041 50.848 17.9871 50.06C18.5051 48.625 19.1781 46.372 19.6541 44.922C19.6821 45.632 19.7291 47.232 19.7801 47.941C19.8421 48.796 19.8371 49.654 19.8671 50.511C19.9011 51.491 19.9281 52.471 19.9981 53.451C20.0251 53.817 20.0641 54.181 20.1081 54.546L20.1751 55.1L20.2061 55.364C20.2141 55.419 20.2051 55.509 20.2461 55.551C20.2701 55.574 20.3041 55.581 20.3361 55.584C20.8091 55.656 21.2801 55.684 21.7581 55.712C21.8671 55.719 21.9761 55.725 22.0831 55.711C22.4661 55.657 22.5831 55.294 22.6361 54.966C22.7161 54.473 22.7891 53.98 22.8501 53.484C22.9701 52.492 23.0531 51.495 23.1091 50.498C23.1331 50.06 23.1521 49.62 23.1681 49.182C23.1941 48.438 23.2111 47.694 23.2181 46.95C23.2281 45.962 23.2271 44.975 23.2521 43.987C23.2781 42.997 23.3361 42.007 23.3301 41.016C23.3286 40.275 23.2966 39.5343 23.2341 38.796Z" fill="#2F3D4D"/>
<path d="M22.6148 22.448C23.0168 21.792 23.1188 21.482 23.5388 21.003C23.9588 20.524 23.9868 20.53 23.9578 20.473C23.9278 20.415 23.5508 20.603 23.5358 20.583C23.5208 20.563 24.0268 19.97 23.8408 19.763C23.6558 19.558 23.1288 19.337 22.4808 20.166C21.8308 20.996 21.3678 21.859 21.3678 21.859L22.6148 22.448ZM23.0818 29.439C23.0418 29.743 22.3188 30.018 22.2588 30.219C22.1978 30.419 22.0688 31.004 22.0688 31.004C22.0688 31.004 21.6158 30.998 21.2058 30.943C20.7938 30.888 20.5918 30.753 20.6118 30.711C20.6288 30.668 20.7938 29.931 20.8248 29.883C20.8548 29.835 20.5488 28.837 20.5488 28.818C20.5488 28.801 20.8748 28.064 20.8748 28.033C20.8748 28.001 21.7568 27.084 21.7568 27.084C21.7568 27.084 22.2098 27.431 22.3628 27.71C22.5148 27.99 23.0548 28.168 23.0798 28.216C23.1038 28.264 22.8158 28.557 22.8408 28.629C22.8508 28.659 22.8958 28.744 22.9468 28.855C22.9708 28.91 22.9948 28.973 23.0188 29.037C23.0688 29.1648 23.0903 29.302 23.0818 29.439Z" fill="#F7C8B5"/>
<path d="M6.88525 14.787C6.75325 14.823 5.89725 16.735 6.01025 16.833C6.12525 16.93 7.75025 17.766 7.75025 17.766L8.57525 15.429C8.57525 15.428 7.03225 14.746 6.88525 14.787Z" fill="#B6DADD"/>
<path d="M37.7733 27.104C38.4843 27.189 40.1993 27.42 40.2853 27.566C40.3713 27.712 40.4933 28.126 41.0693 28.674C41.6453 29.222 42.0133 29.429 42.0003 29.502C41.9883 29.575 41.2653 29.527 40.4323 29.575C39.5993 29.623 39.4893 29.794 39.3903 29.77C39.2923 29.746 37.9323 29.003 37.2963 28.383C36.6593 27.761 37.7733 27.104 37.7733 27.104Z" fill="#2F3D4D"/>
<path d="M37.2379 28.861C37.1399 28.918 34.7229 28.509 32.0249 27.733C31.2932 27.5135 30.5669 27.2761 29.8469 27.021C29.5569 26.921 29.2489 26.815 28.9269 26.701L28.7429 26.637C24.4889 25.133 17.9869 22.683 15.6929 21.845C12.6319 20.725 7.32488 18.095 7.28888 17.985C7.25188 17.875 8.52588 14.893 8.58688 14.893C8.64888 14.893 15.7189 17.473 19.8359 18.849C22.9919 19.904 27.2499 21.589 30.2459 22.805C30.3059 22.83 30.3659 22.853 30.4239 22.879L31.4239 23.284L31.6019 23.357C31.9589 23.503 32.2819 23.637 32.5659 23.755C35.1869 24.838 38.0549 26.482 38.1019 26.603C38.1369 26.685 37.3369 28.804 37.2379 28.861Z" fill="#9A92E6"/>
<path d="M41.9351 29.387C41.2001 29.118 40.5291 28.707 39.7841 28.464C39.6641 28.424 39.6041 28.611 39.7251 28.65C40.4701 28.893 41.1421 29.304 41.8761 29.573C41.9961 29.616 42.0531 29.43 41.9351 29.387ZM30.4231 22.878C29.7251 24.057 29.5411 25.474 28.9281 26.7L28.7441 26.636C29.3641 25.409 29.5571 23.993 30.2461 22.804L30.4231 22.878ZM31.6021 23.358C31.1252 24.6191 30.6022 25.8622 30.0341 27.085C29.9717 27.0649 29.9097 27.0436 29.8481 27.021C30.4202 25.7956 30.9459 24.549 31.4241 23.284L31.6021 23.358Z" fill="white"/>
<path d="M27.8465 24.592C27.8395 24.585 27.8345 24.579 27.8265 24.574C27.6485 24.471 27.4435 24.481 27.2505 24.419C27.0137 24.3425 26.7862 24.2395 26.5725 24.112C26.5075 24.074 26.4465 24.118 26.4315 24.175C26.4295 24.178 26.4265 24.18 26.4265 24.185C26.4237 24.1938 26.4203 24.2025 26.4165 24.211C26.4125 24.218 26.4065 24.224 26.4025 24.233C26.2581 24.5961 26.1411 24.9694 26.0525 25.35L25.9325 25.691C25.874 25.8592 25.815 26.0272 25.7555 26.195C25.398 27.2275 24.9648 28.2322 24.4595 29.201C24.2375 29.557 23.9895 29.941 23.7005 30.24C23.4015 30.47 23.0835 30.714 22.7425 30.88C22.6465 30.928 22.5425 30.957 22.4365 30.974C22.376 30.9816 22.3153 30.9876 22.2545 30.992C22.0235 31.007 21.7815 30.974 21.5535 30.946C21.2751 30.912 21.0038 30.8344 20.7495 30.716C20.7895 30.505 20.8245 30.287 20.8235 30.073C20.8235 30.003 20.8235 29.946 20.7805 29.888C20.7345 29.826 20.6725 29.802 20.6295 29.744C20.7395 29.378 20.8015 29.002 20.8925 28.627C20.9165 28.529 20.9465 28.435 20.9795 28.342L21.0105 28.259C21.0355 28.193 21.0635 28.126 21.0925 28.061L21.1275 27.981C21.1911 27.8473 21.2581 27.7152 21.3285 27.585L21.4025 27.447C21.5015 27.261 21.5995 27.075 21.6855 26.877C21.6948 26.8551 21.6959 26.8306 21.6885 26.808C21.7935 26.476 21.9415 26.155 22.0435 25.82C22.1855 25.348 22.3335 24.881 22.5195 24.426L20.8865 23.82C20.5995 24.353 20.4305 24.947 20.1695 25.494C19.8875 26.088 19.6035 26.67 19.4475 27.311C19.3151 27.6814 19.2036 28.059 19.1135 28.442C19.0025 28.932 18.8635 29.428 18.7575 29.922C18.6175 30.494 18.4985 31.071 18.3875 31.649C18.2915 32.158 18.1125 32.726 18.1015 33.253C18.0195 33.698 17.9395 34.144 17.8925 34.595C17.8275 35.211 17.8605 35.822 17.7185 36.429C17.5945 36.96 17.4605 37.49 17.3305 38.02C17.2285 38.441 17.0835 38.851 17.1915 39.283C17.2155 39.378 17.3345 39.367 17.3715 39.3L17.3835 39.289C17.555 39.0363 17.7676 38.8143 18.0125 38.632C18.3015 38.422 18.5465 38.414 18.8845 38.362C19.3695 38.287 19.8395 37.976 20.3445 38.006C20.4995 38.016 20.6415 38.087 20.7945 38.114C21.0175 38.152 21.2485 38.142 21.4735 38.164C21.8255 38.201 22.2665 38.239 22.5475 38.481C22.7505 38.656 22.9125 38.914 23.0845 39.119C23.0935 39.1312 23.1058 39.1406 23.12 39.1459C23.1342 39.1512 23.1497 39.1523 23.1645 39.149C23.2025 39.159 23.2435 39.15 23.2665 39.104C23.9225 37.754 23.6145 36.177 24.0565 34.761C24.5605 33.139 25.3275 31.569 26.1025 30.061C26.1096 30.0473 26.1137 30.0323 26.1145 30.017C26.6515 28.969 27.0265 27.792 27.3285 26.684L27.4585 26.247C27.6125 25.734 27.7645 25.221 27.8965 24.697C27.9105 24.648 27.8835 24.611 27.8465 24.592Z" fill="#F26B5C"/>
<path d="M26.5322 24.178C26.7122 23.431 26.8592 23.138 26.9002 22.506C26.9412 21.873 26.9162 21.856 26.9772 21.836C27.0382 21.816 27.1742 22.213 27.1972 22.21C27.2222 22.206 27.2832 21.43 27.5612 21.414C27.8392 21.398 28.3702 21.609 28.2432 22.652C28.1162 23.695 27.8352 24.632 27.8352 24.632L26.5322 24.178Z" fill="#F7C8B5"/>
<path d="M21.8941 27.09C21.9081 26.768 21.3701 26.685 21.1591 26.65C20.9451 26.613 20.7861 26.571 20.5921 26.698C20.3454 26.8699 20.1163 27.0659 19.9081 27.283C19.5281 27.673 19.3401 28.3 19.5081 28.817C19.7211 29.471 20.1711 29.65 20.7081 29.999C20.7481 30.024 20.7861 30.017 20.8131 29.995C20.8279 29.9871 20.8404 29.9753 20.8491 29.961C20.9221 29.845 20.9991 29.733 21.0861 29.626C21.0987 29.6104 21.1063 29.5914 21.1081 29.5715C21.1099 29.5516 21.1057 29.5315 21.0961 29.514C21.0915 29.5 21.0836 29.4873 21.0731 29.477C20.9556 29.3622 20.8728 29.2166 20.8341 29.057C20.8031 28.917 20.8621 28.767 21.0341 28.831C21.1131 28.859 21.1941 28.948 21.2601 28.997C21.2801 29.013 21.3001 29.017 21.3181 29.014C21.3721 29.024 21.4381 28.996 21.4401 28.924C21.4449 28.8176 21.425 28.7115 21.3821 28.614C21.3421 28.515 21.1621 28.214 21.1951 28.099C21.2151 28.028 21.3201 28.011 21.3671 27.965C21.3931 27.9378 21.4147 27.9068 21.4311 27.873C21.4889 27.8258 21.5345 27.7654 21.5641 27.697C21.6061 27.603 21.6541 27.533 21.7041 27.445C21.7531 27.361 21.7601 27.243 21.8501 27.192C21.8679 27.1825 21.882 27.1672 21.89 27.1487C21.898 27.1302 21.8994 27.1094 21.8941 27.09Z" fill="#4A2533"/>
<path d="M22.2867 28.085C22.1667 28.097 22.1947 28.262 22.2617 28.319C22.3107 28.359 22.3887 28.352 22.4137 28.289C22.4427 28.212 22.3827 28.076 22.2867 28.085Z" fill="#471F1E"/>
<path d="M22.1523 27.578C22.0483 27.52 21.9683 27.646 21.9143 27.718C21.8463 27.808 21.7683 27.925 21.7553 28.04C21.7473 28.124 21.8513 28.138 21.8953 28.086C21.9943 27.971 22.0893 27.853 22.1953 27.744C22.2034 27.7362 22.2096 27.7267 22.2135 27.7161C22.2173 27.7055 22.2186 27.6942 22.2173 27.683C22.2183 27.64 22.1873 27.598 22.1523 27.578Z" fill="#4A2533"/>
<path d="M23.0206 29.036C22.8397 29.0953 22.644 29.0914 22.4656 29.025C22.3496 28.979 22.4016 28.791 22.5186 28.838C22.6558 28.8922 22.8074 28.8982 22.9486 28.855C22.9716 28.909 22.9966 28.971 23.0206 29.036Z" fill="#F26B5C"/>
<path d="M19.5885 40.877C19.5915 40.752 19.3945 40.752 19.3925 40.877C19.3673 42.1853 19.404 43.4941 19.5025 44.799C19.5125 44.923 19.7085 44.924 19.6985 44.799C19.6004 43.4941 19.5637 42.1853 19.5885 40.877Z" fill="white"/>
<path d="M16.6041 57.184C16.603 57.1394 16.599 57.095 16.5921 57.051C16.0921 56.941 15.5921 56.823 15.0851 56.745C14.5321 56.659 14.0401 56.43 13.4951 56.315L13.4151 56.656C13.4091 56.686 13.4001 56.714 13.3951 56.746C13.3858 56.7712 13.3817 56.7981 13.3831 56.825C13.3871 56.889 13.4401 56.92 13.4971 56.935C14.1401 57.105 14.7831 57.275 15.4271 57.432C15.7451 57.508 16.0571 57.599 16.3801 57.645C16.6151 57.679 16.6061 57.341 16.6041 57.184ZM16.0031 55.826C15.8561 55.853 15.7181 55.906 15.5911 55.986C15.4841 56.051 15.5831 56.22 15.6911 56.153C15.8041 56.083 15.9241 56.038 16.0551 56.013C16.1791 55.992 16.1271 55.803 16.0031 55.826ZM16.2411 56.178C16.0866 56.202 15.9357 56.2453 15.7921 56.307C15.6771 56.355 15.7771 56.523 15.8921 56.475C16.0201 56.421 16.1551 56.386 16.2931 56.365C16.4171 56.347 16.3651 56.159 16.2411 56.178Z" fill="#B6DADD"/>
<path d="M22.0206 30.921C21.3176 30.943 20.7116 30.653 20.1006 30.341C19.9886 30.284 19.8906 30.452 20.0026 30.509C20.6426 30.836 21.2846 31.139 22.0206 31.116C22.1466 31.112 22.1476 30.918 22.0206 30.921Z" fill="white"/>
</svg>
