<svg width="96" height="96" viewBox="0 0 96 96" fill="none" xmlns="http://www.w3.org/2000/svg">
<path fill-rule="evenodd" clip-rule="evenodd" d="M58.2941 77.7679C73.3541 68.0959 81.7221 56.8379 83.3941 43.9939C86.0001 23.9999 68.1201 14.2139 59.0601 23.0059C50.0001 31.7999 55.4301 42.9599 61.9901 46.0119C68.5501 49.0619 72.5621 47.9999 71.8621 52.0759C71.1621 56.1539 61.8301 67.4559 53.6301 72.7219C53.3396 72.969 53.1542 73.3176 53.1118 73.6967C53.0694 74.0758 53.1733 74.4567 53.4021 74.7619L55.4301 77.3999C56.3101 78.5439 57.1541 78.4999 58.2941 77.7699L58.2941 77.7679Z" fill="#7CE577" fill-opacity="0.5"/>
<path fill-rule="evenodd" clip-rule="evenodd" d="M18.6423 77.7679C33.7023 68.0959 42.0703 56.8379 43.7423 43.9939C46.3483 23.9999 28.4683 14.2139 19.4083 23.0059C10.3483 31.7999 15.7783 42.9599 22.3403 46.0119C28.9003 49.0619 32.9123 47.9999 32.2123 52.0759C31.5123 56.1539 22.1783 67.4559 13.9783 72.7219C13.688 72.9692 13.503 73.318 13.461 73.6971C13.419 74.0761 13.5232 74.457 13.7523 74.7619L15.7803 77.3999C16.6603 78.5439 17.5043 78.4999 18.6423 77.7699L18.6423 77.7679Z" fill="#7CE577" fill-opacity="0.5"/>
</svg>
