<svg width="44" height="44" viewBox="0 0 44 44" fill="none" xmlns="http://www.w3.org/2000/svg">
<path fill-rule="evenodd" clip-rule="evenodd" d="M37.4 4C41.0382 4 44 6.69 44 10V38C44 41.31 41.0382 44 37.4 44H6.6C4.85024 43.998 3.17277 43.3652 1.93551 42.2404C0.69824 41.1157 0.00218311 39.5907 0 38V10C0 6.69 2.96175 4 6.6 4H11V2C11 1.46957 11.2318 0.960859 11.6444 0.585787C12.0569 0.210714 12.6165 0 13.2 0C13.7835 0 14.3431 0.210714 14.7556 0.585787C15.1682 0.960859 15.4 1.46957 15.4 2V4H28.6V2C28.6 1.73736 28.6569 1.47728 28.7675 1.23463C28.878 0.991982 29.0401 0.771503 29.2444 0.585786C29.4487 0.400069 29.6912 0.25275 29.9581 0.152241C30.225 0.0517316 30.5111 0 30.8 0C31.0889 0 31.375 0.0517316 31.6419 0.152241C31.9088 0.25275 32.1513 0.400069 32.3556 0.585786C32.5599 0.771503 32.722 0.991982 32.8325 1.23463C32.9431 1.47728 33 1.73736 33 2V4H37.4ZM37.4 40C37.9835 40 38.5431 39.7893 38.9556 39.4142C39.3682 39.0391 39.6 38.5304 39.6 38V20H4.4V38C4.4 39.105 5.39 40 6.6 40H37.4ZM6.6 8C6.01652 8 5.45694 8.21071 5.04436 8.58579C4.63178 8.96086 4.4 9.46957 4.4 10V16H39.6V10C39.6 9.46957 39.3682 8.96086 38.9556 8.58579C38.5431 8.21071 37.9835 8 37.4 8H33V10C33 10.5304 32.7682 11.0391 32.3556 11.4142C31.9431 11.7893 31.3835 12 30.8 12C30.2165 12 29.6569 11.7893 29.2444 11.4142C28.8318 11.0391 28.6 10.5304 28.6 10V8H15.4V10C15.4 10.5304 15.1682 11.0391 14.7556 11.4142C14.3431 11.7893 13.7835 12 13.2 12C12.6165 12 12.0569 11.7893 11.6444 11.4142C11.2318 11.0391 11 10.5304 11 10V8H6.6Z" fill="#9A92E6"/>
</svg>
