<svg width="64" height="64" viewBox="0 0 64 64" fill="none" xmlns="http://www.w3.org/2000/svg">
<circle cx="32" cy="32" r="32" fill="#9A92E6" fill-opacity="0.3"/>
<path d="M32 52C20.9545 52 12 43.0455 12 32C12 20.9545 20.9545 12 32 12C43.0455 12 52 20.9545 52 32C52 43.0455 43.0455 52 32 52ZM32 48.3636C36.3399 48.3636 40.5021 46.6396 43.5708 43.5708C46.6396 40.5021 48.3636 36.3399 48.3636 32C48.3636 27.6601 46.6396 23.4979 43.5708 20.4292C40.5021 17.3604 36.3399 15.6364 32 15.6364C27.6601 15.6364 23.4979 17.3604 20.4292 20.4292C17.3604 23.4979 15.6364 27.6601 15.6364 32C15.6364 36.3399 17.3604 40.5021 20.4292 43.5708C23.4979 46.6396 27.6601 48.3636 32 48.3636ZM33.8182 21.0909V31.2473L38.74 36.1691C39.0712 36.512 39.2545 36.9713 39.2503 37.448C39.2462 37.9247 39.055 38.3807 38.7179 38.7179C38.3807 39.055 37.9247 39.2462 37.448 39.2503C36.9713 39.2545 36.512 39.0712 36.1691 38.74L30.7145 33.2855C30.3735 32.9446 30.1819 32.4822 30.1818 32V21.0909C30.1818 20.6087 30.3734 20.1462 30.7144 19.8053C31.0553 19.4643 31.5178 19.2727 32 19.2727C32.4822 19.2727 32.9447 19.4643 33.2856 19.8053C33.6266 20.1462 33.8182 20.6087 33.8182 21.0909Z" fill="#9A92E6"/>
</svg>
