<svg width="16" height="16" viewBox="0 0 16 16" fill="none" xmlns="http://www.w3.org/2000/svg">
<path fill-rule="evenodd" clip-rule="evenodd" d="M6.2 2.60002C4.21178 2.60002 2.6 4.21179 2.6 6.20002C2.6 8.18824 4.21178 9.80002 6.2 9.80002C8.18823 9.80002 9.8 8.18824 9.8 6.20002C9.8 4.21179 8.18823 2.60002 6.2 2.60002ZM0.800003 6.20002C0.800003 3.21768 3.21767 0.800018 6.2 0.800018C9.18234 0.800018 11.6 3.21768 11.6 6.20002C11.6 7.36626 11.2303 8.44616 10.6017 9.3289L14.9364 13.6636C15.2879 14.0151 15.2879 14.5849 14.9364 14.9364C14.5849 15.2879 14.0151 15.2879 13.6636 14.9364L9.32888 10.6017C8.44615 11.2303 7.36625 11.6 6.2 11.6C3.21767 11.6 0.800003 9.18236 0.800003 6.20002Z" fill="#EEF5FC"/>
</svg>
