<svg width="54" height="54" viewBox="0 0 54 54" fill="none" xmlns="http://www.w3.org/2000/svg">
<path d="M0 30.375C0.580185 34.9917 2.33504 39.2465 4.95841 42.8355C5.09992 42.7569 5.2433 42.6782 5.38855 42.5996C10.4408 39.8652 17.8012 37.125 27 37.125C36.1988 37.125 43.5592 39.8652 48.6115 42.5996C48.7567 42.6782 48.9001 42.7569 49.0416 42.8355C51.665 39.2465 53.4198 34.9917 54 30.375L0 30.375Z" fill="#2163a5"/>
<path d="M27 54C20.4767 54 14.4895 51.7223 9.80219 47.9246C14.0363 45.814 19.8657 43.875 27 43.875C34.1343 43.875 39.9637 45.814 44.1978 47.9246C39.5105 51.7223 33.5233 54 27 54Z" fill="#2163a5"/>
<path d="M9.80215 6.07542C14.4895 2.27774 20.4767 0 27 0C33.5233 0 39.5104 2.27771 44.1978 6.07536C39.9636 8.18597 34.1342 10.125 26.9999 10.125C19.8657 10.125 14.0363 8.18602 9.80215 6.07542Z" fill="#2163a5"/>
<path d="M4.95838 11.1646C5.09986 11.2432 5.24322 11.3218 5.38845 11.4004C10.4407 14.1348 17.8011 16.875 26.9999 16.875C36.1987 16.875 43.5591 14.1348 48.6113 11.4004C48.7566 11.3218 48.9 11.2431 49.0416 11.1645C51.6649 14.7535 53.4198 19.0083 54 23.625L0 23.625C0.580183 19.0083 2.33502 14.7536 4.95838 11.1646Z" fill="#2163a5"/>
</svg>
