<svg width="64" height="63" viewBox="0 0 64 63" fill="none" xmlns="http://www.w3.org/2000/svg">
<g clip-path="url(#clip0_27_439)">
<path d="M61.0906 31.5C61.0906 15.1903 47.8658 1.96875 31.5521 1.96875C15.2385 1.96875 2.01367 15.1903 2.01367 31.5C2.01367 47.8097 15.2385 61.0312 31.5521 61.0312C47.8658 61.0312 61.0906 47.8097 61.0906 31.5Z" fill="#9DD9DE" stroke="white" stroke-width="4"/>
<path d="M17.8228 16.3278C17.809 16.2304 17.7538 16.1575 17.6849 16.1575C16.1745 16.1467 11.7398 16.3367 11.3922 16.3347C11.1047 16.3318 11.1796 16.6832 11.1835 16.7472C11.2593 18.1597 11.6167 21.3855 11.6866 22.0687C11.7172 22.3738 11.7585 22.5235 11.9948 22.5894C12.4408 22.7144 16.8618 22.4989 17.9517 22.4664C18.2964 22.4565 18.3249 22.3276 18.257 21.546C17.9921 18.5318 18.191 18.9216 17.8228 16.3278Z" fill="#9A92E6"/>
<path d="M20.5649 21.8236C20.6043 22.1425 20.7618 22.3847 21.2463 22.3699C23.7945 22.2931 34.1743 21.8206 35.214 21.7468C35.9033 21.6976 35.9367 21.5598 35.8974 21.1877C35.7359 19.6619 35.7241 17.5229 35.5212 15.6526C35.4858 15.3188 35.6453 15.1407 34.9748 15.1791C34.1625 15.2253 24.083 15.6161 20.5531 15.7224C19.8914 15.7421 20.0372 16.4676 20.049 16.5877C20.2843 18.772 20.432 20.7516 20.5649 21.8236Z" fill="white"/>
<path d="M18.36 28.0045C18.3453 27.8972 18.2892 27.8175 18.2173 27.8175C16.6616 27.7997 12.093 27.9946 11.7346 27.9917C11.4392 27.9878 11.517 28.3756 11.5209 28.4445C11.6036 30.0008 11.9817 33.5534 12.0565 34.3065C12.089 34.6411 12.1324 34.8075 12.3756 34.8803C12.8354 35.0201 17.3892 34.7957 18.5117 34.7642C18.8661 34.7543 18.8957 34.6116 18.8228 33.7513C18.5412 30.432 18.747 30.8621 18.36 28.0045Z" fill="#9A92E6"/>
<path d="M21.3937 33.8704C21.4281 34.1795 21.5798 34.4167 22.0534 34.4108C24.5553 34.3773 34.7421 34.0869 35.7612 34.0318C36.4376 33.9954 36.4721 33.8615 36.4386 33.5002C36.3007 32.0207 36.3155 29.9476 36.1412 28.1334C36.1097 27.8096 36.2692 27.6393 35.6115 27.6659C34.812 27.6974 24.9215 27.9149 21.4587 27.9602C20.8088 27.969 20.9417 28.6748 20.9535 28.79C21.1574 30.9104 21.2765 32.8289 21.3937 33.8704Z" fill="white"/>
<path d="M19.0308 40.9687C19.017 40.8713 18.9618 40.7984 18.8929 40.7984C17.3825 40.7876 12.9478 40.9776 12.6002 40.9756C12.3127 40.9727 12.3876 41.3241 12.3915 41.3881C12.4673 42.8006 12.8247 46.0264 12.8946 46.7096C12.9252 47.0147 12.9665 47.1644 13.2028 47.2303C13.6489 47.3553 18.0698 47.1398 19.1597 47.1073C19.5044 47.0974 19.5329 46.9685 19.465 46.1869C19.2001 43.1727 19.398 43.5625 19.0308 40.9687Z" fill="#9A92E6"/>
<path d="M21.9467 46.5265C21.9812 46.8356 22.1328 47.0728 22.6074 47.0659C25.1083 47.0344 35.2961 46.7499 36.3162 46.6948C36.9926 46.6594 37.0271 46.5275 36.9936 46.1662C36.8558 44.6877 36.8735 42.6175 36.6982 40.8063C36.6677 40.4824 36.8272 40.3121 36.1685 40.3377C35.37 40.3692 25.4776 40.5789 22.0147 40.6232C21.3658 40.633 21.4987 41.3379 21.5096 41.452C21.7124 43.5684 21.8315 45.487 21.9477 46.5265H21.9467Z" fill="white"/>
<path d="M35.7613 12.6374C32.5574 11.8578 30.2524 11.8519 27.333 11.7456C19.8893 12.0704 7.68996 14.3197 8.7238 20.477C9.75962 26.6352 27.9583 26.0377 33.9221 21.7301C36.8139 19.6432 37.0866 17.3624 34.7413 14.8887C31.3099 12.0931 23.9322 12.5971 19.9199 12.7723" stroke="white" stroke-width="0.957" stroke-linecap="round" stroke-linejoin="round"/>
<path d="M49.1461 22.0953C49.0021 21.5903 48.7609 21.1181 48.4362 20.7054C48.0936 20.2693 47.5136 20.0921 47.1877 19.655C47.106 19.5467 47.1355 19.0782 47.0853 18.9079C46.7702 17.8083 45.9806 16.9805 45.059 16.3387C43.8843 15.5197 42.3631 15.2519 40.959 15.4527C39.5658 15.6516 37.956 15.6171 36.8739 16.6734C36.8155 16.7312 36.7612 16.7931 36.7114 16.8584C35.4846 16.634 33.8777 17.581 33.1648 18.3448C32.5455 19.0073 32.2924 19.7407 32.3978 20.6404C32.4392 20.9918 32.5307 21.3718 32.6853 21.7104C32.2117 22.3926 32.063 23.4065 32.1694 24.129C32.3092 25.0917 33.1461 27.2003 34.4517 26.8607C34.6142 27.3223 34.8219 27.6127 35.2463 27.8854C35.3979 27.9819 35.5811 27.9878 35.7484 27.9376C35.9887 28.0468 36.2408 28.101 36.4918 28.0665C36.6612 28.0449 36.7153 27.7978 36.5972 27.6915C36.4783 27.5828 36.3561 27.4778 36.2309 27.3765C36.2314 27.3507 36.2295 27.325 36.225 27.2997L36.227 27.2849C36.226 27.1471 36.1994 27.0231 36.1551 26.9069C36.4219 27.0113 36.7242 27.0595 37.0974 27.0516C38.2759 27.028 39.5392 27.3391 40.7139 27.471C41.8028 27.592 42.948 27.3686 43.9336 27.976C44.3845 28.2516 44.6888 28.6768 45.0058 29.0883C45.2392 29.3935 45.3937 29.6435 45.5237 29.9939C45.568 30.1101 45.5976 30.238 45.6793 30.3355C46.5733 31.4006 48.1359 28.3421 48.2826 27.7427C48.4283 27.1501 48.4401 26.6244 48.7503 26.0751C48.962 25.7011 49.215 25.3506 49.3351 24.9342C49.4661 24.4785 49.4336 23.9991 49.3381 23.5394C49.3046 23.3789 49.2505 23.2126 49.1973 23.0472C49.2456 22.7302 49.2357 22.4103 49.1461 22.0953Z" fill="#2E152B"/>
<path d="M45.873 29.5352C43.7107 31.3189 38.7729 34.4216 38.7729 34.4216C38.7729 34.4216 38.832 37.7508 38.5307 38.1534C38.1142 38.7086 35.3582 39.123 35.3533 39.9568C35.3484 40.8752 35.2834 41.6371 35.9786 42.3419C36.6166 42.9896 37.5746 43.3952 38.4558 43.5665C39.5822 43.786 40.815 43.4798 41.9138 43.2278C43.1022 42.9542 44.269 42.5713 45.357 42.019C46.3662 41.5072 47.3056 40.8653 48.1002 40.0582C48.6181 39.5315 49.1931 38.8887 49.2689 38.1268C49.4284 38.1022 49.4058 37.8473 49.2453 37.8256C48.4192 37.7075 47.4858 37.4427 46.9708 36.8461C46.2776 36.0449 46.0718 35.0959 46.0915 33.4599C46.1014 32.57 46.8664 29.0627 46.8664 29.0627C46.8664 29.0627 46.0354 28.8245 45.873 29.5352Z" fill="#755462"/>
<path d="M49.6762 37.9033C49.5837 37.8798 49.4904 37.8594 49.3965 37.8423C49.1642 37.8 48.8708 37.7577 48.8058 37.796C48.665 37.8787 48.2741 38.8395 48.0811 39.0954C47.6065 39.7195 46.8848 40.2196 46.228 40.636C45.0751 41.3674 43.6966 42.0928 42.3132 42.1362C41.749 42.1549 41.176 42.1263 40.6128 42.1204C39.6104 42.1066 38.746 41.4609 38.1089 40.7442C37.8165 40.4174 37.5487 40.0699 37.3901 39.6585C37.1863 39.1269 37.2799 38.9458 37.1204 38.8877C36.9796 38.8385 36.8191 38.8966 36.6861 38.9438C36.5069 39.0029 36.3248 39.057 36.1466 39.119C36.0156 39.1614 35.8847 39.2076 35.7567 39.2637C35.3057 39.4557 34.7898 39.4764 34.4914 39.877C34.0415 40.4804 34.1468 41.2768 34.265 41.959C34.4471 43.0093 34.6411 44.0557 34.8223 45.104C34.3989 46.1022 34.0385 47.1289 33.6781 48.1517C32.8609 50.4709 32.4996 52.9111 31.9964 55.3081C31.7719 56.3781 32.2081 58.2454 32.5133 59.3863C32.5133 59.3863 34.8223 59.8362 39.0984 59.2062C43.3746 58.5762 46.2271 58.3065 46.9675 57.4343C47.2038 56.2107 47.8842 50.7425 47.9305 49.5022C47.9649 48.5769 48.3144 47.7057 48.3991 46.7962C48.6433 46.0737 48.8501 45.3029 48.6236 44.5587C48.6013 44.4803 48.556 44.4104 48.4936 44.3579C48.6177 43.6048 48.725 42.8488 48.8422 42.0958C48.9032 41.6961 48.9682 41.2965 49.0381 40.8998C49.113 40.4814 49.1839 40.0601 49.2705 39.6437C49.3207 39.4025 49.3788 39.1614 49.4448 38.9232C49.498 38.7292 49.7126 37.9132 49.6762 37.9033Z" fill="white"/>
<path d="M44.0169 19.7367C42.5321 18.9925 40.4526 19.2898 38.954 19.8086C38.3632 20.0123 37.6858 20.2949 37.0832 20.6748C36.9108 20.8473 36.7536 21.0343 36.6135 21.2339C35.5748 22.7282 35.304 24.5651 35.2902 26.3428C35.2764 27.9936 35.3808 29.9969 35.9026 31.565C36.5082 33.3841 38.3514 35.6826 39.2041 35.7938C40.0577 35.908 44.0129 34.396 45.158 32.7226C46.1259 31.3071 46.6428 29.9161 46.8782 28.2289C46.9934 27.3961 47.1854 26.585 47.1558 25.7404C47.1243 24.821 46.891 23.8632 46.7019 22.9655C46.373 21.4161 45.419 20.4396 44.0169 19.7367Z" fill="#755462"/>
<path d="M47.2067 25.2542C46.7833 25.139 46.4269 25.3191 46.2811 25.7227C46.2742 25.7446 46.2719 25.7678 46.2743 25.7906C46.1059 26.083 46.1069 26.4334 46.0645 26.7868C45.9976 27.3459 45.8853 27.8952 45.8006 28.4504C45.7573 28.7329 45.7199 29.1474 46.0439 29.2842C46.3816 29.4279 46.8237 29.0804 47.0915 28.919C47.9954 28.3776 48.3183 27.3007 48.0761 26.2868C47.9678 25.831 47.6872 25.3861 47.2067 25.2542Z" fill="#755462"/>
<path d="M37.5792 26.3419C37.5231 26.1775 37.3951 26.0672 37.1952 26.1371C36.8831 26.2484 36.8604 26.9738 37.2277 27.026C37.5595 27.0742 37.6767 26.6264 37.5792 26.3419ZM43.7754 26.4807C43.7192 26.3173 43.5913 26.206 43.3914 26.2769C43.0793 26.3872 43.0566 27.1136 43.4239 27.1648C43.7557 27.213 43.8738 26.7652 43.7754 26.4807ZM38.1522 24.4361C37.8441 24.191 37.2671 24.2432 36.8998 24.2904C36.4538 24.3465 35.7931 24.4893 35.5056 24.8673C35.4757 24.9019 35.4573 24.945 35.4531 24.9905C35.4489 25.036 35.4589 25.0817 35.482 25.1213C35.6395 25.4382 36.1623 25.1902 36.4006 25.1272C36.7359 25.0356 37.0811 24.9847 37.4285 24.9756C37.6117 24.9716 37.8893 25.0464 38.0616 24.9726C38.293 24.8742 38.359 24.6005 38.1522 24.4361ZM42.4776 23.9302C42.7967 23.6978 43.3697 23.7756 43.734 23.8366C44.1771 23.9115 44.8309 24.0818 45.1026 24.4725C45.1597 24.5572 45.1637 24.6379 45.1135 24.7285C44.9431 25.0376 44.4311 24.7679 44.1958 24.696C43.865 24.5909 43.5229 24.5251 43.1767 24.5001C42.9946 24.4893 42.712 24.5513 42.5436 24.4706C42.3172 24.3623 42.264 24.0867 42.4776 23.9302Z" fill="#2E1A15"/>
<path d="M47.075 26.7612C47.1577 26.4886 47.1981 26.1706 47.1794 25.9206C47.1695 25.7887 46.9677 25.7355 46.9342 25.8832C46.8614 26.1972 46.8614 26.588 46.7176 26.8744C46.7017 26.9028 46.6955 26.9355 46.6997 26.9677C46.704 27 46.7186 27.0299 46.7413 27.0532C46.764 27.0765 46.7936 27.0917 46.8257 27.0968C46.8578 27.1018 46.8907 27.0963 46.9195 27.0811C47.1755 26.9591 47.1656 27.2839 47.1302 27.407C47.077 27.5891 46.8978 27.7072 46.7265 27.7613C46.5374 27.8234 46.6093 28.1236 46.8043 28.0655C47.1971 27.9464 47.5211 27.593 47.4492 27.1599C47.4078 26.9158 47.2621 26.7809 47.075 26.7612ZM45.4967 32.2422C44.8035 33.4186 43.7263 34.2799 42.5832 35.0034C41.9215 35.4227 41.3849 35.7948 40.5726 35.8224C40.0508 35.8411 39.5407 35.7289 39.0209 35.8155C38.9007 35.8352 38.9263 36.0222 39.0445 36.0242C39.716 36.037 40.4673 36.1965 41.1339 36.0764C41.7798 35.9612 42.4345 35.4444 42.9682 35.093C43.9892 34.4206 45.2771 33.5101 45.6562 32.3111C45.6857 32.2166 45.5459 32.1556 45.4967 32.2422Z" fill="#B28F98"/>
<path d="M47.4752 24.8555C47.4752 24.8555 47.3403 24.822 47.3403 24.821C47.6603 23.6457 47.4742 22.6268 46.8845 21.5529C46.6127 21.0568 46.2011 20.6089 45.8477 20.1708C45.5109 19.7515 45.1673 19.3843 44.6464 19.2101C44.0458 19.0093 43.3556 19.0683 42.7333 19.0476C41.9968 19.024 41.2653 19.0378 40.5347 19.1431C40.4195 19.1599 40.3062 19.1825 40.194 19.2051C39.5058 19.1845 38.7072 19.4532 38.1165 19.7347C38.0003 19.7908 38.0485 19.9907 38.1785 19.9828L38.2445 19.9759C37.3918 20.414 36.5549 20.786 35.9661 21.4653C35.4944 21.7992 35.0838 22.2118 34.752 22.6849C34.6703 22.803 34.8229 22.9251 34.9342 22.871C35.1311 22.7725 35.2916 22.6485 35.4422 22.5136L35.4029 22.5934C35.204 23.0068 35.1597 23.4153 35.1862 23.8524C35.0248 24.2589 34.8909 24.6852 34.8702 25.0888C34.8409 25.1012 34.8131 25.1171 34.7875 25.136C34.6634 25.2344 34.6674 25.3762 34.7343 25.4864C34.6552 25.5119 34.5717 25.5203 34.4891 25.5111C34.1997 25.453 33.9417 25.7946 34.179 26.0278C34.6004 26.4413 35.3625 26.0869 35.7741 25.8034C36.5125 25.2945 36.5509 24.3367 36.8502 23.5669C37.4666 21.988 39.236 22.174 40.644 21.9939C41.215 21.921 41.6502 21.7409 42.1445 21.4397C42.4498 21.2526 42.7451 21.1247 43.0504 21.0282C43.3999 21.0164 43.7554 21.0479 44.0773 21.1404C44.8237 21.353 45.0304 22.112 45.4587 22.6564C46.0987 23.4714 46.1066 25.2187 47.4644 25.261C47.7302 25.2689 47.7362 24.8722 47.4752 24.8555Z" fill="#2E152B"/>
<path d="M46.8712 19.6599C46.503 19.5438 46.2588 19.6924 46.0284 19.9749C45.7616 20.3067 45.3244 20.54 44.8922 20.539C44.5279 20.539 44.2 20.2594 43.8357 20.1679C43.0322 19.9735 42.1881 20.0351 41.4214 20.3441C41.1634 20.4504 40.9429 20.6069 40.6967 20.7309C40.2546 20.9524 39.9287 21.0007 39.4453 20.9573C38.8899 20.9081 38.312 20.8097 37.7537 20.8855C36.8735 21.0036 36.0168 21.5578 35.6978 22.4113C35.2577 23.5905 35.432 25.138 33.7217 25.0986C33.6006 25.0957 33.5327 25.2797 33.6528 25.3368C34.3893 25.6794 35.0559 25.3014 35.4487 24.6458C36.0296 23.6772 35.7805 22.366 36.7947 21.673C37.4514 21.2241 38.1722 21.2635 38.9264 21.3334C39.3921 21.3757 39.9336 21.5086 40.3895 21.3777C41.1309 21.1641 41.6065 20.5833 42.4375 20.5154C42.981 20.4701 43.5501 20.4701 44.0808 20.6089C44.6785 20.7664 44.9965 21.1129 45.6454 20.8422C45.8344 20.7644 46.0048 20.6581 46.1485 20.5114C46.372 20.2811 46.4479 19.9799 46.822 19.968C46.9992 19.9602 47.0455 19.7151 46.8712 19.6599Z" fill="#54383E"/>
<path d="M42.8576 18.7484C41.7302 18.5899 40.9848 18.9059 39.9205 19.2436C38.926 19.5586 37.8675 19.1963 36.8347 19.3794C35.1411 19.6806 33.8208 20.9121 33.7006 22.6751C33.6888 22.8414 33.9133 22.8483 33.9694 22.7174C34.316 21.8945 34.5159 21.0499 35.2573 20.4711C36.0854 19.8253 37.265 19.6462 38.2899 19.7269C39.0461 19.7869 39.5542 19.8125 40.2759 19.5389C40.7052 19.3755 41.1286 19.1855 41.5786 19.0841C42.0236 18.9847 42.4499 19.092 42.8861 18.9994C43.0397 18.9679 42.9925 18.7671 42.8576 18.7484Z" fill="#54383E"/>
<path d="M26.858 35.9061L22.6577 34.3901L19.8584 40.4824C19.8584 40.4824 22.316 41.5948 23.0141 41.8881C23.5812 42.1273 24.875 42.6166 24.875 42.6166L26.858 35.9061Z" fill="#755462"/>
<path d="M31.802 31.5049C31.4524 31.2283 31.1462 31.2893 30.7415 31.4183C30.3063 31.5571 29.9568 31.8258 29.563 32.0444C29.1159 32.2924 28.918 32.2511 28.3145 32.2983C28.3154 32.2964 28.4129 31.9331 28.475 31.7668C28.8983 30.679 29.2262 29.5568 29.5748 28.4425C29.7637 27.8393 29.9649 27.24 30.1783 26.6451C30.3595 26.143 30.7071 25.5701 30.587 25.0139C30.5367 24.7826 30.3595 24.6222 30.1193 24.6606C29.7855 24.7127 29.5728 24.9391 29.4231 25.2197C28.8245 26.3389 28.3361 27.6462 27.6745 28.8028L27.5248 29.0607V29.0469C27.4795 28.6414 26.9478 28.1836 26.4378 28.2545C26.2074 28.287 25.9445 28.6483 25.7978 28.8363L25.7909 28.7526C25.6974 28.1699 24.9166 27.8214 24.4686 28.4622C24.3319 28.6617 24.2273 28.8812 24.1584 29.1129C24.1394 29.0552 24.1157 28.9993 24.0875 28.9455C23.9556 28.6994 23.6759 28.6748 23.4416 28.7684C22.7602 29.042 22.6106 29.7714 22.4668 30.3827C22.201 31.5285 22.4255 35.026 22.4255 35.026C22.4255 35.026 23.9831 36.1275 24.6379 36.2821C24.8073 36.3215 24.9825 36.3638 25.1627 36.4002C25.146 36.5144 25.9179 36.5085 26.043 36.5479C27.131 36.8973 28.0476 36.1984 28.8964 35.0959C29.5413 34.2572 29.7894 33.4579 30.7504 32.9401C31.0891 32.759 31.6346 32.4017 31.8591 32.1861C32.182 31.8731 32.0314 31.6841 31.802 31.5049Z" fill="#755462"/>
<path d="M27.3367 29.6927C27.2185 30.1189 27.1712 30.5609 27.0541 30.9881C26.9566 31.3376 26.8798 31.8199 26.5549 32.0345C26.0547 32.3633 25.8971 31.6162 25.843 31.1407C25.909 30.6584 25.9513 30.111 25.7514 29.7301C25.7081 29.6474 25.5703 29.6809 25.5722 29.7754C25.5831 30.4713 25.6431 31.3012 25.4058 31.9725C25.2778 32.3377 24.8761 32.4312 24.6565 32.1202C24.5226 31.9331 24.5059 31.5787 24.4695 31.3592C24.3808 30.8602 24.3434 30.3552 24.2981 29.8512C24.297 29.8364 24.2926 29.822 24.2853 29.8091C24.278 29.7961 24.2679 29.785 24.2558 29.7764C24.2066 29.6976 24.0727 29.6976 24.0372 29.8039C23.9092 30.18 23.9338 30.5895 23.8373 30.9753C23.7566 31.3021 23.6424 31.8337 23.4317 32.0847C23.3175 32.2196 23.2485 32.321 23.088 32.1467C22.9837 32.0335 22.9512 31.7599 22.9275 31.6162C22.8911 31.3878 22.8025 30.8611 22.8685 30.6416C22.8951 30.5471 22.7769 30.4792 22.707 30.5452C22.4549 30.7834 22.581 31.3888 22.6282 31.691C22.6775 32.0079 22.836 32.6163 23.2259 32.6852C23.6276 32.758 23.7536 32.1261 23.859 31.8682C23.9634 31.6132 24.05 31.3494 24.117 31.0826C24.1908 31.9814 24.4448 32.9579 25.1941 32.6675C25.4954 32.5523 25.6372 32.2462 25.714 31.938C25.8361 32.2412 26.0537 32.4657 26.3954 32.4253C26.8424 32.3741 27.0807 31.9331 27.2126 31.5541C27.4115 30.9812 27.6419 30.2981 27.5346 29.6937C27.5149 29.5942 27.3632 29.5982 27.3367 29.6927ZM27.4893 32.4804C26.5992 32.5336 25.1065 33.2482 24.8938 34.207C24.8682 34.3242 25.01 34.4246 25.1026 34.3311C25.4866 33.9452 25.7514 33.5544 26.229 33.2571C26.6395 33.0012 27.0915 32.8289 27.5227 32.6114C27.5818 32.5818 27.5592 32.4765 27.4893 32.4804ZM24.5709 36.0193C24.3848 36.2122 24.3149 36.5183 24.2312 36.7664C24.179 36.92 24.1426 37.0794 24.0914 37.234C24.048 37.3698 23.9771 37.4968 23.9663 37.6386C23.9604 37.7104 24.0549 37.7724 24.117 37.7281C24.3395 37.5687 24.3749 37.2389 24.4468 36.9899C24.5325 36.6945 24.629 36.4091 24.7511 36.1256C24.7944 36.0232 24.6418 35.9464 24.5709 36.0193ZM24.0923 35.8844C23.987 35.9828 23.9555 36.1502 23.8925 36.2772C23.8245 36.413 23.7477 36.5656 23.7428 36.7201C23.7399 36.794 23.8472 36.8491 23.9003 36.7871C24.0047 36.666 24.0638 36.5065 24.1317 36.3638C24.1947 36.2319 24.24 36.101 24.2597 35.9572C24.2686 35.8667 24.1485 35.8322 24.0923 35.8844Z" fill="#B28F98"/>
<path d="M44.7782 17.5711C44.2101 16.6576 42.5323 16.5769 41.5782 16.4479C40.2461 16.2688 38.3576 16.4105 37.3217 17.3772C37.2065 17.4854 37.3483 17.6439 37.4793 17.5859C38.6608 17.0553 39.994 16.7432 41.2927 16.8692C42.2744 16.9637 43.7572 17.0956 44.5469 17.7453C44.665 17.8408 44.8718 17.7207 44.7782 17.5711ZM47.3441 23.4045C47.0911 23.1318 46.7327 22.9989 46.4826 22.7223C46.0966 22.2951 46.0405 21.7015 45.754 21.2241C45.6949 21.1276 45.5472 21.165 45.5413 21.2773C45.5147 21.8472 45.7579 22.4605 46.1084 22.9064C46.2808 23.1259 46.4797 23.2588 46.7061 23.4202C47.1689 23.749 47.3786 24.1566 47.3707 24.7314C47.3688 24.8781 47.5519 24.9155 47.6307 24.8053C47.931 24.379 47.671 23.7569 47.3441 23.4045ZM46.8164 20.3933C46.6589 20.3008 46.4796 20.5163 46.6145 20.6492C46.9592 20.9819 47.3235 21.2536 47.5411 21.6946C47.7744 22.1632 47.7636 22.6623 47.8542 23.1633C47.8768 23.2854 48.0609 23.2814 48.0934 23.1673C48.3987 22.0431 47.7882 20.9583 46.8164 20.3933Z" fill="#54383E"/>
<path d="M33.566 55.7865C33.7364 53.9674 34.7407 52.4022 35.0016 50.59C35.2989 48.5336 35.5559 46.491 35.9192 44.4435C36.1418 43.1885 36.1014 41.9058 36.1939 40.6399C36.1772 40.0247 36.1516 39.2894 36.0413 38.9123C36.0059 38.7844 35.9586 38.6977 35.9005 38.6702C35.8265 38.6384 35.7468 38.6216 35.6662 38.621C35.6288 38.621 35.5914 38.621 35.5549 38.6229C34.9149 38.6387 34.3192 38.8129 33.6911 38.8966C32.7803 39.0167 31.8616 39.0561 30.9578 39.2372C30.0204 39.4272 29.1156 39.7333 28.2176 40.0572C27.4831 40.3229 26.7407 40.5828 26.1479 41.1055C26.0583 41.1853 25.9707 41.2679 25.884 41.3516C25.0471 42.1864 24.3677 43.3292 23.8252 44.3904C23.7543 44.5252 23.6874 44.6601 23.6244 44.79C23.6027 44.8324 23.581 44.8747 23.5613 44.917C22.817 46.4428 22.3365 46.0235 21.8786 47.6516C21.2839 49.772 16.3244 55.2658 15.8232 57.4068C15.8232 57.4068 21.8786 58.9355 26.1479 59.2062C30.4172 59.4759 30.3522 59.5655 32.9644 59.5655C33.0924 58.9887 33.4892 56.6153 33.566 55.7865ZM54.5039 37.6356C53.6079 37.5578 52.1556 37.3167 51.2596 37.2783C50.784 37.2586 50.1489 37.0273 49.6901 37.2212C49.5987 37.259 49.5162 37.3153 49.4477 37.3867C49.3792 37.458 49.3263 37.5428 49.2923 37.6356C49.1308 38.0333 49.2125 38.5895 49.1978 38.9911C49.1928 39.1387 49.181 39.2864 49.1663 39.437C49.0865 40.254 48.8886 41.0809 48.7379 41.8881L48.6917 42.1391C48.3667 44.0094 48.0792 45.8502 47.4904 47.6644C46.9735 49.2532 46.3857 50.8341 46.176 52.5016C46.0657 53.3708 45.8195 55.061 45.8146 55.9174C45.8146 55.9174 48.8945 54.2883 52.3879 50.5988C55.455 47.3602 57.2874 40.8023 57.2874 40.8023C56.4751 38.2823 57.0215 38.9911 54.5039 37.6356Z" fill="#9A92E6"/>
<path d="M26.4948 41.8861C26.3352 41.6641 26.1271 41.4813 25.8864 41.3516C25.1331 40.9215 24.052 40.7984 23.3392 40.5671C22.3417 40.2432 20.4001 38.9173 19.8851 39.2244C19.3712 39.5296 18.7193 41.3536 18.3875 42.0062C17.9799 42.8056 12.7851 53.4683 14.1104 56.6872C14.1104 56.6872 13.496 56.9993 16.5099 57.6076C19.5228 58.2179 19.1408 57.4284 22.7563 57.4284C23.1639 55.6871 23.478 51.7368 24.056 50.0407C24.4971 48.7374 25.011 47.4597 25.4866 46.1682V46.1662C25.6461 45.7331 25.8027 45.3 25.9504 44.8609C26.1374 44.3097 26.5923 43.4828 26.6691 42.7583C26.7046 42.4364 26.6652 42.1342 26.4948 41.8861Z" fill="#9A92E6"/>
<path d="M48.8299 39.1998C47.9605 39.9971 47.3205 41.011 46.3389 41.6942C45.2525 42.45 44.0227 42.975 42.7253 43.2367C40.3977 43.6866 37.5147 42.9965 36.6424 40.5592C36.603 40.45 36.4011 40.447 36.4169 40.5838C36.6877 42.9857 39.8778 43.852 41.8884 43.6954C44.8718 43.4641 47.3363 41.7267 48.9934 39.3248C49.0584 39.2283 48.9136 39.123 48.8299 39.1998ZM48.3869 40.6222C47.7892 41.6036 47.6218 42.7337 47.2959 43.8175C46.9503 44.9712 46.5249 46.1288 45.7973 47.1004C44.731 48.5277 42.8848 49.8655 42.7105 51.7644C42.6968 51.9179 42.9075 51.9238 42.9567 51.8018C43.3578 50.7986 43.925 49.8702 44.6345 49.0554C45.2095 48.3899 45.8209 47.753 46.3162 47.0256C47.6218 45.1129 47.6267 42.7691 48.5493 40.7187C48.5985 40.6104 48.4528 40.5149 48.3869 40.6222Z" fill="#DADFE1"/>
<path d="M47.9123 42.4108C47.5972 43.2032 47.3708 44.0242 47.1394 44.8442L46.8115 44.9259C46.8834 44.6965 46.9543 44.4681 47.0203 44.2388C47.1975 43.6265 47.2753 42.7731 47.7922 42.3389C47.8414 42.2966 47.9419 42.3389 47.9123 42.4108Z" fill="#DADFE1"/>
<path d="M27.7203 41.5229C26.9986 43.22 25.9766 44.8088 25.8486 46.686C25.7413 48.2679 25.7895 49.8616 25.8092 51.4444C26.5378 53.8434 25.8456 57.5613 25.373 51.6787C25.2696 52.0794 25.2086 52.4987 25.0914 52.8747C23.5613 58.4296 21.9534 58.8302 24.9733 51.9927C25.0589 51.6452 25.1406 51.1777 25.3868 50.8764L25.3809 50.6353C25.3267 49.1863 25.2952 47.6172 25.4862 46.1672L25.4872 46.1652L25.5178 45.9388C25.5552 45.6927 25.6093 45.4417 25.6773 45.1887C25.6638 45.0619 25.6608 44.9341 25.6684 44.8068C25.1938 44.9545 24.6414 44.8265 24.1472 44.8166C23.9729 44.8149 23.7988 44.8061 23.6253 44.7901C23.2289 44.7594 22.8383 44.6766 22.4635 44.544C21.2603 44.1167 19.6672 43.6295 18.6796 42.7977C18.5575 42.6953 18.6914 42.4925 18.8352 42.5388C20.065 42.9335 21.2327 43.6196 22.4448 44.0862C22.9036 44.2614 23.3526 44.355 23.8272 44.3914C23.9355 44.4012 24.0448 44.4062 24.157 44.4091C24.6592 44.4219 25.2007 44.5449 25.696 44.5066C25.7255 44.2516 25.7698 43.9976 25.7866 43.7545C25.8269 43.1343 25.7462 42.5811 25.6556 41.9738C25.629 41.8094 25.8318 41.7227 25.9264 41.8655C26.2277 42.3222 26.1715 43.0566 26.142 43.5744C26.1371 43.6728 26.1322 43.7811 26.1253 43.8894C26.2877 43.5025 26.4718 43.1225 26.6688 42.7573C26.9248 42.2779 27.2034 41.8251 27.4821 41.4196C27.5618 41.3044 27.7824 41.3802 27.7203 41.5229ZM48.7793 46.495C48.753 46.5058 48.7295 46.5225 48.7108 46.5439C48.692 46.5652 48.6784 46.5906 48.671 46.618L48.668 46.6151C48.6149 46.744 48.5578 46.873 48.5026 47.0029C48.4465 47.1358 48.3943 47.2667 48.4563 47.4065C48.5154 47.5414 48.733 47.5345 48.798 47.4105C48.8531 47.3081 48.8728 47.1801 48.9201 47.0709C48.9742 46.9409 49.0284 46.8139 49.0363 46.6722C49.0442 46.5363 48.8984 46.4477 48.7793 46.495ZM47.3014 50.9148C47.1998 51.0556 47.1333 51.2186 47.1074 51.3903C47.0808 51.5527 47.0355 51.7673 47.135 51.912C47.2098 52.0223 47.3742 52.039 47.4481 51.916C47.5269 51.785 47.4983 51.6226 47.515 51.474C47.5308 51.3293 47.5643 51.1846 47.5958 51.0408C47.6381 50.8587 47.4087 50.7672 47.3014 50.9148Z" fill="white"/>
<path d="M40.0458 26.1676C40.0635 26.0357 39.8656 26.022 39.8252 26.1342C39.6519 26.6195 39.5279 27.1235 39.3792 27.6166C39.2492 28.0439 39.0011 28.4829 38.9233 28.916C38.8022 29.5854 39.2856 29.6366 39.647 30.0746C39.7553 30.2055 39.9916 30.0333 39.8882 29.8935C39.7898 29.7596 39.6687 29.6927 39.5594 29.5815C39.0651 29.0696 39.3132 28.8353 39.4835 28.3215C39.7169 27.6255 39.9542 26.8961 40.0458 26.1676Z" fill="#2E1A15"/>
<path d="M40.4936 29.172C40.3134 29.1385 40.0663 29.1099 39.9334 29.2635C39.8507 29.358 39.9245 29.5047 40.0535 29.4791C40.1894 29.4515 40.3095 29.4889 40.4454 29.481C40.5241 29.4771 40.5931 29.4289 40.6029 29.3472C40.6128 29.2753 40.5714 29.1857 40.4936 29.172Z" fill="#2E1A15"/>
<path d="M42.7954 31.7609C42.3602 32.8988 41.8639 33.5859 41.0034 33.4599C40.2176 33.3447 39.237 32.4893 39.3226 32.1458C39.3423 32.067 39.4034 32.0335 39.8149 32.0847C39.8839 31.9312 39.9843 31.7894 40.13 31.7097C40.386 31.5709 41.0162 31.3494 41.1422 31.6112C41.1855 31.6998 42.7914 31.6408 42.7954 31.7609Z" fill="#FF9494"/>
<path d="M42.8662 31.7294C41.8225 31.7441 39.4653 32.13 39.3413 32.2531C39.1345 31.2451 41.2583 31.4341 41.8087 31.5148C42.3601 31.5955 42.4261 31.6378 42.8662 31.7294Z" fill="white"/>
</g>
<defs>
<clipPath id="clip0_27_439">
<rect width="64" height="63" fill="white"/>
</clipPath>
</defs>
</svg>
