<svg width="64" height="64" viewBox="0 0 64 64" fill="none" xmlns="http://www.w3.org/2000/svg">
<path d="M61.0896 32C61.0896 15.4315 47.8648 2 31.5512 2C15.2375 2 2.0127 15.4315 2.0127 32C2.0127 48.5685 15.2375 62 31.5512 62C47.8648 62 61.0896 48.5685 61.0896 32Z" fill="#9DD9DE" stroke="white" stroke-width="4"/>
<path d="M22.9493 13.7C23.4302 13.3265 24.0187 13.1241 24.6241 13.1241C25.2295 13.1241 25.8181 13.3265 26.2989 13.7L27.0148 14.257C27.3965 14.5534 27.848 14.7434 28.3243 14.808L29.2183 14.928C29.8184 15.0094 30.3754 15.289 30.8033 15.7239C31.2313 16.1587 31.5065 16.7245 31.5863 17.334L31.7055 18.241C31.7689 18.7251 31.9559 19.184 32.248 19.572L32.7954 20.299C33.1632 20.7874 33.3625 21.3851 33.3625 22C33.3625 22.6148 33.1632 23.2126 32.7954 23.701L32.248 24.428C31.9565 24.8158 31.7698 25.2743 31.7064 25.758L31.5863 26.666C31.5063 27.2753 31.231 27.8409 30.8031 28.2755C30.3751 28.7101 29.8182 28.9897 29.2183 29.071L28.3253 29.192C27.8486 29.2564 27.3968 29.4464 27.0148 29.743L26.2989 30.299C25.8181 30.6725 25.2295 30.8749 24.6241 30.8749C24.0187 30.8749 23.4302 30.6725 22.9493 30.299L22.2335 29.743C21.8516 29.4469 21.4002 29.2573 20.9239 29.193L20.0299 29.071C19.43 28.9897 18.8731 28.7101 18.4452 28.2755C18.0172 27.8409 17.742 27.2753 17.6619 26.666L17.5437 25.759C17.48 25.2748 17.2926 24.8159 17.0002 24.428L16.4528 23.701C16.085 23.2126 15.8857 22.6148 15.8857 22C15.8857 21.3851 16.085 20.7874 16.4528 20.299L17.0002 19.572C17.2921 19.1843 17.4791 18.7258 17.5428 18.242L17.6619 17.334C17.742 16.7247 18.0172 16.1591 18.4452 15.7245C18.8731 15.2898 19.43 15.0103 20.0299 14.929L20.9229 14.808C21.3996 14.7435 21.8514 14.5536 22.2335 14.257L22.9493 13.701V13.7Z" fill="#9A92E6" stroke="#9A92E6" stroke-width="2.1"/>
<path d="M21.6709 22.3L23.8863 25L27.5786 19.6" stroke="white" stroke-width="2.1" stroke-linecap="round" stroke-linejoin="round"/>
<path d="M57.9986 32.994C57.8263 31.8 57.4896 30.532 56.8053 29.529C55.3618 27.412 49.6865 25.274 43.6882 25.613C41.4581 25.74 38.3811 26.977 36.472 27.953C36.2672 28.059 36.7004 31.24 37.0105 32.803C36.5997 35.6176 36.4242 38.4624 36.4857 41.307C36.5291 43.172 37.2203 50.13 38.9187 53.582C38.9936 53.731 48.3582 54.719 49.2395 54C49.9829 53.394 54.8764 48.405 55.1472 47.5C55.9496 44.838 57.6658 43.776 57.784 41.03C57.8962 38.359 58.3826 35.663 57.9986 32.994Z" fill="#FFD2CD"/>
<path d="M47.5872 12.446C45.3886 11.699 43.2332 11.869 41.4856 13.116C39.4041 14.597 38.3023 18.127 40.9883 19.018C41.1439 19.071 41.2069 19.181 41.3231 19.121C41.5397 19.25 41.774 19.337 42.0251 19.452C42.5716 19.705 43.0787 20.035 43.5227 20.446C44.4404 21.291 44.8716 22.43 45.4998 23.482C46.4736 25.112 47.987 26.541 49.9897 26.352C50.0053 26.3505 50.0208 26.3479 50.036 26.344C50.1787 26.426 50.3146 27.046 50.3432 26.837C50.9782 22.442 54.6381 14.839 47.5872 12.446Z" fill="#D93D3D"/>
<path d="M35.7826 33.288C35.6285 31.5292 35.4529 29.7724 35.2558 28.018C35.2512 27.9696 35.2278 27.925 35.1908 27.894C35.1839 27.786 35.3671 27.409 35.247 27.474C30.9009 29.788 30.0423 32.597 26.6532 36.609C23.529 40.309 22.0058 40.636 20.3222 43.559C20.2641 43.555 18.8186 49.728 19.6703 50.295C24.7352 53.673 34.0477 44.194 34.9919 42.505C35.5679 41.475 35.9342 39.367 36.0849 38.145C36.2778 36.59 35.9175 34.845 35.7826 33.288Z" fill="#755462"/>
<path d="M39.8867 59L40.379 51H48.2559C48.9117 51.5 49.9298 52.9 48.7483 54.5C47.5667 56.1 42.3483 58.167 39.8867 59Z" fill="#F26B5C"/>
<path d="M50.3708 53.157C46.5444 53.4207 42.7046 53.419 38.8784 53.152C38.7632 53.145 38.7632 53.327 38.8784 53.333C42.6298 53.593 46.3949 53.6 50.1473 53.353L50.3708 53.157ZM41.7997 54.126C41.7111 55.548 41.6304 56.971 41.5595 58.394L41.3793 58.464C41.4502 57.018 41.5309 55.572 41.6205 54.126C41.6274 54.009 41.8066 54.009 41.7997 54.126ZM46.3969 56.192L46.2246 56.293C46.1882 55.737 46.1537 55.182 46.1193 54.626C46.1124 54.509 46.2906 54.509 46.2975 54.626L46.3969 56.192Z" fill="white"/>
<path d="M43.658 24.635C41.6996 24.899 38.8423 25.765 36.4211 26.881C35.1913 27.448 33.9202 28.22 32.8686 29.085C32.3399 29.522 30.1668 31.915 30.1127 32.42C30.0654 32.877 30.348 33.34 30.5144 33.75C31.5719 36.326 32.9838 42.765 32.9661 43.355C32.7042 51.113 32.4393 52.635 32.3399 60C35.4552 60 37.9167 59.5 39.8761 59L39.947 57.947C40.1321 54.764 40.5348 48.779 40.6786 45.592C40.8263 42.34 41.0586 39.089 41.4249 35.855C41.8217 32.353 41.9802 28.518 43.6905 25.379C43.7023 25.354 44.109 24.573 43.659 24.635H43.658Z" fill="#755462"/>
<path d="M44.0807 23.393C44.0679 23.3826 44.0524 23.3759 44.0361 23.3738C44.0198 23.3717 44.0032 23.3742 43.9882 23.381C41.9787 24.2514 40.106 25.4169 38.43 26.84C38.3374 26.918 38.1592 27.037 38.2065 27.186C38.2202 27.224 38.2424 27.2583 38.2715 27.286C38.5905 27.63 40.0438 28.874 40.1619 28.955C40.2801 29.033 40.2663 29.23 40.1285 29.272C39.0602 29.584 36.9659 30.381 36.7631 30.569C36.6114 30.709 36.6114 30.872 36.6223 31.072C36.6498 31.483 36.7197 31.894 36.7699 32.302C36.8664 33.102 36.9669 33.902 37.0791 34.7C37.5439 38.025 38.3985 41.22 39.2866 44.449C39.5919 45.555 40.0133 47.494 40.2762 48.706C40.3146 48.883 40.5676 48.862 40.5765 48.683C40.7547 45.342 41.3258 35.267 42.207 29.928C42.3498 29.065 42.526 28.206 42.8283 27.384C43.1512 26.509 43.5874 25.684 44.0197 24.862C44.027 24.8486 44.0307 24.8334 44.0301 24.8181C44.0296 24.8028 44.025 24.7879 44.0167 24.775C44.0443 24.345 44.1053 23.923 44.2018 23.505C44.2225 23.418 44.1388 23.372 44.0807 23.393Z" fill="#4A2533"/>
<path d="M49.6014 26.436C49.6019 26.4018 49.5959 26.3679 49.5837 26.336C48.6385 23.8663 47.9472 21.3041 47.5209 18.69C47.5173 18.6689 47.512 18.6482 47.5052 18.628C47.4648 18.465 47.2974 18.338 47.1231 18.456C45.5769 19.5041 43.9407 20.4085 42.2345 21.158C41.9362 21.289 42.1617 21.714 42.4511 21.648C42.4418 21.7062 42.4515 21.7659 42.4787 21.818C43.2664 23.438 43.5194 25.251 44.1683 26.927C44.1634 26.932 44.1585 26.934 44.1565 26.939C43.4072 27.774 44.509 29.476 45.1214 29.489C46.6397 29.526 48.2732 27.673 49.5177 26.803C49.6536 26.709 49.6625 26.553 49.6014 26.436Z" fill="#D7997F"/>
<path d="M49.4075 25.926C49.4076 25.8918 49.4013 25.8578 49.3887 25.826C49.0884 25.041 48.7615 23.243 48.542 22.401C48.536 22.3764 48.524 22.3537 48.5071 22.335C48.4901 22.3164 48.4688 22.3024 48.4451 22.2944C48.4214 22.2865 48.3961 22.2847 48.3715 22.2893C48.347 22.294 48.324 22.3049 48.3047 22.321C47.5662 22.951 46.4536 23.541 45.5596 23.707C44.9314 23.824 43.9054 23.799 43.1315 23.634C43.1064 23.6285 43.0803 23.6298 43.0559 23.6377C43.0314 23.6456 43.0094 23.6599 42.992 23.6791C42.9746 23.6982 42.9624 23.7217 42.9567 23.7471C42.9509 23.7725 42.9518 23.799 42.9592 23.824C43.1404 24.417 43.6327 25.914 43.8424 26.463L43.8178 26.613C40.2348 34.983 45.1805 31.823 45.8914 31.547C47.3102 30.998 48.3549 29.287 49.5995 28.417C49.7343 28.325 49.4655 26.043 49.4075 25.926Z" fill="#FFD2CD"/>
<path d="M47.5223 14.611C46.7268 12.754 44.8087 12.205 43.2255 12.923C41.1686 13.856 40.4124 16.646 40.2047 19.032C40.0826 20.442 39.9378 21.802 41.1922 22.46C42.1424 22.959 43.2206 22.975 44.2446 22.97C45.1071 22.968 45.6604 22.651 46.0809 21.772C47.1876 19.457 48.437 17.323 47.5223 14.612V14.611Z" fill="#D7997F"/>
<path d="M42.2534 15.44C41.9373 14.928 41.2904 15.073 40.932 15.44C40.7873 15.587 40.6514 15.81 40.6042 16.033C40.5987 16.0596 40.5995 16.0872 40.6066 16.1135C40.6137 16.1398 40.6268 16.1639 40.6448 16.1841C40.6629 16.2042 40.6854 16.2196 40.7105 16.2292C40.7356 16.2387 40.7626 16.2421 40.7893 16.239C41.1536 16.203 41.51 16.141 41.8822 16.152C42.0909 16.159 42.2465 16.141 42.3144 15.879C42.3338 15.8054 42.3383 15.7286 42.3278 15.6532C42.3173 15.5778 42.292 15.5053 42.2534 15.44Z" fill="#D93D3D"/>
<path d="M60.0712 30C57.5368 26.784 51.3731 24.833 48.2558 24.5C46.6134 34.833 48.7481 54.5 48.7481 54.5C58.1019 47.5 62.0404 32.5 60.0712 30Z" fill="#4A2533"/>
<path d="M48.2258 25.34C46.5244 33.642 47.6222 45.507 47.9107 48.247C47.9274 48.389 48.1214 48.41 48.1647 48.274C48.5438 47.087 48.9376 45.424 49.3325 44.524C50.6765 41.464 53.3694 33.664 53.5801 32.888C53.6884 32.491 53.8164 32.094 53.9031 31.692C53.9434 31.499 53.9681 31.336 53.8371 31.175C53.6638 30.957 51.7074 29.857 50.6952 29.389C50.5662 29.329 50.58 29.131 50.708 29.072C50.837 29.012 52.4567 27.997 52.821 27.705C52.8525 27.68 52.884 27.655 52.8997 27.618C52.9677 27.478 52.8092 27.336 52.7284 27.241C51.277 25.583 49.5941 24.1501 47.7335 22.988C47.7196 22.9793 47.7037 22.9746 47.6875 22.9742C47.6712 22.9739 47.6551 22.9779 47.6409 22.986C47.5858 22.952 48.2317 25.306 48.2258 25.34Z" fill="#755462"/>
<path d="M50.3484 23.822C50.1427 21.832 50.3485 19.767 49.9763 17.801C49.9763 17.796 49.9763 17.794 49.9733 17.789C49.9349 16.637 49.3776 15.527 48.8105 14.492C48.0376 13.082 46.6591 12.333 45.1891 12.053L45.003 12.06C44.748 12.124 44.491 12.18 44.233 12.23C44.2261 12.232 44.2173 12.232 44.2104 12.232C43.3203 12.159 42.2067 12.712 41.6533 13.13C40.6224 13.91 39.9972 14.767 39.6486 16.017C39.6014 16.189 40.1035 16.915 40.2227 16.584C40.7376 15.174 41.8739 14.276 43.1263 13.745C43.1932 13.715 43.2641 13.775 43.2572 13.849C43.0702 15.803 45.5928 17.415 47.4163 18.811C47.5345 18.9015 47.6297 19.0194 47.6938 19.155C47.7578 19.2905 47.7889 19.4397 47.7845 19.59C47.755 20.759 47.369 22.323 47.5699 23.48C47.8613 25.159 48.3221 26.842 49.7793 27.825C49.8193 27.8531 49.8667 27.8681 49.9152 27.868C49.9527 27.888 49.9941 27.8993 50.0363 27.901C50.5247 27.917 50.5651 27.451 50.5838 27.049C50.633 25.983 50.4568 24.874 50.3484 23.822Z" fill="#D93D3D"/>
<path d="M47.5699 14.262C47.5158 14.159 47.3602 14.251 47.4163 14.354C48.2066 15.8224 48.4578 17.528 48.1252 19.167C48.1036 19.282 48.2749 19.33 48.2975 19.215C48.6398 17.5286 48.3819 15.7735 47.5699 14.262Z" fill="white"/>
<path d="M48.5867 18.155C48.0216 17.695 47.4564 18.297 47.1748 18.866C47.0094 19.199 46.8696 19.562 46.84 19.944C46.8056 20.389 46.9592 21.048 47.484 20.867C47.8433 20.743 48.1702 20.375 48.3947 20.061C48.76 19.549 49.2169 18.667 48.5867 18.155ZM16.0235 31.742C15.032 30.034 14.2099 28.229 13.4665 26.396C13.0943 25.478 12.7418 24.55 12.3932 23.622C12.1786 23.048 11.6656 21.103 11.3131 21.128C10.4683 21.193 10.4979 22.888 10.7086 23.547C10.8563 24.017 11.2048 25.271 10.7598 25.639C9.77712 26.452 8.88703 27.331 8.82205 28.707C8.76986 29.786 8.24999 30.229 8.88112 31.044C8.26574 31.724 11.8606 35.244 11.8606 35.244C12.6256 35.139 15.864 32.983 16.1338 32.656C16.4095 32.324 16.2254 32.086 16.0245 31.743L16.0235 31.742Z" fill="#D7997F"/>
<path d="M48.135 25.684C47.5777 26.196 46.8786 26.5212 46.1329 26.6153C45.3871 26.7094 44.6309 26.5679 43.9672 26.21C43.8648 26.157 43.7752 26.314 43.8766 26.366C44.5751 26.7427 45.3709 26.8915 46.1557 26.7922C46.9404 26.6928 47.6759 26.3502 48.2621 25.811C48.3477 25.735 48.2207 25.606 48.135 25.684Z" fill="#F26B5C"/>
<path d="M10.6075 24.656C10.2393 24.534 9.9065 24.803 9.61997 24.989C8.27302 25.859 7.4105 27.113 6.98317 28.624C6.8729 29.019 6.83844 29.458 7.02354 29.837C7.26576 30.333 7.82108 30.75 8.26416 31.04C8.60779 31.265 8.98293 31.446 9.38268 31.545C10.1871 31.747 10.8281 31.869 11.5193 31.295C12.0461 30.858 12.5975 30.333 12.8387 29.675C13.397 28.158 11.0112 24.789 10.6075 24.655V24.656Z" fill="#D7997F"/>
<path d="M53.1776 34.266C52.4588 30.904 52.0728 27.758 50.4433 24.681C50.3872 24.573 48.4809 24.194 48.3628 24.233C48.0133 24.348 45.8638 31.991 47.8685 37.709C47.8823 37.749 47.8981 37.784 47.9207 37.812C47.9404 37.876 48.0064 37.902 48.0832 37.954C49.3681 38.822 52.3889 38.99 53.5931 38.113C53.9672 37.839 53.3765 35.196 53.1776 34.266Z" fill="#D93D3D"/>
<path d="M24.5275 42.898C22.8586 40.262 18.8887 34.828 15.478 30.135C15.4349 30.0773 15.3737 30.0364 15.3046 30.0189C15.2355 30.0015 15.1625 30.0085 15.0979 30.039C12.2967 31.387 10.0823 33.679 9.62343 34.202C9.59316 34.2357 9.57114 34.2762 9.55917 34.3201C9.54719 34.3641 9.54559 34.4103 9.55451 34.455C9.95623 36.558 13.9754 46.306 18.8483 49.76C19.8989 50.504 21.2636 51.646 25.6441 49.464C25.6461 49.466 25.3842 44.251 24.5275 42.898Z" fill="#755462"/>
<path d="M44.7744 17.934C44.8202 17.8757 44.854 17.8087 44.8738 17.737C44.9103 17.585 44.9555 17.344 44.8443 17.197C44.8042 17.1432 44.7453 17.1071 44.6798 17.096C44.3392 17.025 44.156 17.426 44.1738 17.711C44.1776 17.8055 44.2091 17.8968 44.2643 17.973C44.4406 18.193 44.6503 18.095 44.7744 17.934ZM41.3971 17.493C41.441 17.4392 41.4729 17.3765 41.4907 17.309C41.5242 17.169 41.5675 16.942 41.4651 16.806C41.4281 16.7568 41.3744 16.7233 41.3144 16.712C40.9974 16.646 40.8261 17.022 40.8418 17.289C40.8467 17.374 40.8714 17.463 40.9255 17.534C41.088 17.737 41.2829 17.642 41.3981 17.494L41.3971 17.493Z" fill="#361F1B"/>
<path d="M46.5354 21.445C45.7516 22.669 44.2629 22.839 42.9455 22.811C42.8303 22.809 42.8371 22.991 42.9504 22.993C44.3387 23.02 45.8707 22.813 46.6919 21.53C46.7569 21.434 46.5984 21.349 46.5344 21.445H46.5354ZM48.2683 18.612C47.7199 18.862 47.3359 19.379 47.2443 19.982C47.2266 20.097 47.4018 20.146 47.4166 20.031C47.4551 19.7565 47.5618 19.4965 47.7267 19.2756C47.8915 19.0546 48.1091 18.8799 48.3589 18.768C48.4623 18.722 48.3727 18.563 48.2683 18.612ZM42.1213 17.48C41.8909 17.613 41.6783 17.769 41.6487 18.056C41.6152 18.363 41.7885 18.628 41.9589 18.864C42.0239 18.958 42.1804 18.866 42.1125 18.772C41.9835 18.591 41.8319 18.389 41.823 18.154C41.8122 17.89 42.0081 17.754 42.2119 17.635C42.3104 17.578 42.2208 17.422 42.1213 17.479V17.48ZM42.848 18.487C42.6959 18.3862 42.5122 18.3469 42.333 18.377C42.2198 18.393 42.2671 18.57 42.3803 18.552C42.5128 18.5331 42.6474 18.5656 42.7574 18.643C42.8549 18.71 42.9445 18.552 42.848 18.487Z" fill="#755462"/>
<path d="M43.2235 19.689C43.1447 19.589 42.8729 19.576 42.7961 19.572C42.5231 19.5557 42.251 19.5257 41.9809 19.482C41.8204 19.457 41.4275 19.285 41.461 19.551C41.5063 19.916 41.8086 20.091 42.1542 20.131C42.4594 20.166 43.1309 20.146 43.2412 19.783C43.2466 19.7671 43.2478 19.7501 43.2447 19.7336C43.2416 19.7171 43.2342 19.7017 43.2235 19.689ZM56.3031 45.558C55.6504 44.0378 55.1107 42.4701 54.6883 40.868C54.6588 40.756 54.4855 40.804 54.517 40.917C54.9526 42.5671 55.5122 44.1808 56.1908 45.744L56.3031 45.558Z" fill="white"/>
<path d="M32.8573 38.67C32.8514 38.554 32.6702 38.554 32.6801 38.67C32.7982 40.501 32.8671 42.336 32.878 44.17C32.878 44.288 33.0562 44.288 33.0562 44.17C33.0452 42.335 32.9789 40.5008 32.8573 38.67Z" fill="#472B2B"/>
<path d="M12.1203 26.681C12.0503 26.589 11.9007 26.688 11.9716 26.782C12.2689 27.177 12.5948 27.604 12.6283 28.123C12.6421 28.316 12.6086 28.507 12.5495 28.69C12.5111 28.805 12.4048 29.161 12.2926 29.145C12.1587 29.129 11.942 28.902 11.8357 28.819C10.9342 28.1189 10.2291 27.1911 9.79065 26.128C9.74634 26.02 9.57601 26.078 9.6213 26.185C9.90261 26.8656 10.2852 27.4983 10.7556 28.061C10.9929 28.344 11.2548 28.605 11.5423 28.837C11.6801 28.947 11.8219 29.051 11.9716 29.145C12.01 29.17 12.0887 29.228 12.1705 29.278C12.1671 29.2924 12.1661 29.3073 12.1675 29.322C12.2286 29.616 12.0789 29.919 11.8741 30.122C11.7726 30.2251 11.6489 30.3028 11.5127 30.349C11.2095 30.445 10.855 30.103 10.6295 29.933C10.3358 29.7118 10.0623 29.4641 9.81231 29.193C9.31 28.6467 8.90875 28.0129 8.62782 27.322L8.61798 27.302C8.57564 27.193 8.40628 27.251 8.44961 27.359C8.7169 28.0245 9.09233 28.6398 9.56025 29.179C9.79754 29.453 10.0801 29.68 10.3381 29.933C10.6069 30.197 10.984 30.45 11.1622 30.513C11.4084 30.601 10.9683 30.923 10.8078 30.991C10.6691 31.05 10.5199 31.0789 10.3696 31.076C9.21268 30.721 8.49687 29.703 7.94942 28.661C7.89527 28.557 7.74659 28.658 7.80074 28.761C8.35902 29.825 9.08862 30.835 10.2426 31.226C10.2524 31.237 10.2633 31.244 10.2741 31.251C10.1589 31.499 9.80739 31.467 9.57896 31.437C9.46573 31.421 9.42733 31.597 9.53958 31.614C9.88616 31.662 10.3519 31.66 10.4691 31.254C10.8629 31.214 11.4291 30.987 11.4084 30.56C11.946 30.5 12.4028 29.894 12.3487 29.354C12.4343 29.338 12.5427 29.228 12.6835 28.874C12.7691 28.658 12.8164 28.429 12.8115 28.194C12.8026 27.604 12.455 27.124 12.1203 26.681Z" fill="#874237"/>
<path d="M50.1901 25.326C49.5599 25.576 48.9002 25.533 48.3105 25.198C48.212 25.14 48.1214 25.296 48.2209 25.354C48.5246 25.5311 48.8637 25.6363 49.2131 25.6618C49.5624 25.6873 49.9129 25.6323 50.2383 25.501C50.3437 25.459 50.2984 25.283 50.1901 25.326ZM49.4428 16.717C49.4359 16.6 49.2577 16.6 49.2646 16.717C49.3826 18.6299 49.1694 20.549 48.6344 22.387C48.6029 22.499 48.7742 22.547 48.8057 22.435C49.3453 20.577 49.5599 18.651 49.4428 16.717ZM50.5347 37.135C49.3485 33.7395 48.8756 30.1294 49.1464 26.537C49.1563 26.42 48.978 26.42 48.9692 26.537C48.6955 30.1462 49.1701 33.7736 50.3624 37.185C50.4018 37.293 50.5731 37.245 50.5347 37.135ZM50.6519 30.932C50.2882 29.8632 49.9961 28.7708 49.7775 27.662C49.7549 27.547 49.5836 27.595 49.6052 27.71C49.8248 28.819 50.1172 29.91 50.4806 30.98C50.516 31.09 50.6873 31.044 50.6519 30.932Z" fill="white"/>
<path d="M36.1015 55.65C35.8553 57.105 35.4181 58.504 34.9199 59.885L35.1168 59.868C35.6032 58.508 36.0306 57.129 36.2738 55.698C36.2935 55.586 36.1221 55.536 36.1015 55.651V55.65Z" fill="#472B2B"/>
</svg>
