<svg width="51" height="51" viewBox="0 0 51 51" fill="none" xmlns="http://www.w3.org/2000/svg">
<circle cx="25.5" cy="25.5" r="25.5" fill="#2163a5" fill-opacity="0.3"/>
<path fill-rule="evenodd" clip-rule="evenodd" d="M33.6859 12.3461C35.7795 12.3461 37.4837 13.9238 37.4837 15.8652V32.2878C37.4837 34.2292 35.7795 35.8069 33.6859 35.8069H15.9628C14.956 35.8057 13.9907 35.4346 13.2788 34.7749C12.5668 34.1152 12.1663 33.2207 12.165 32.2878V15.8652C12.165 13.9238 13.8693 12.3461 15.9628 12.3461H18.4947V11.173C18.4947 10.8619 18.6281 10.5636 18.8655 10.3436C19.1029 10.1236 19.4249 10 19.7606 10C20.0964 10 20.4184 10.1236 20.6558 10.3436C20.8932 10.5636 21.0266 10.8619 21.0266 11.173V12.3461H28.6222V11.173C28.6222 11.019 28.6549 10.8665 28.7185 10.7241C28.7822 10.5818 28.8754 10.4525 28.993 10.3436C29.1105 10.2346 29.2501 10.1482 29.4037 10.0893C29.5573 10.0303 29.7219 10 29.8881 10C30.0544 10 30.219 10.0303 30.3726 10.0893C30.5262 10.1482 30.6657 10.2346 30.7833 10.3436C30.9008 10.4525 30.9941 10.5818 31.0577 10.7241C31.1213 10.8665 31.1541 11.019 31.1541 11.173V12.3461H33.6859V12.3461ZM33.6859 33.4608C34.0217 33.4608 34.3437 33.3372 34.5811 33.1172C34.8185 32.8973 34.9519 32.5989 34.9519 32.2878V21.7304H14.6969V32.2878C14.6969 32.9359 15.2666 33.4608 15.9628 33.4608H33.6859V33.4608ZM15.9628 14.6922C15.6271 14.6922 15.3051 14.8158 15.0677 15.0357C14.8303 15.2557 14.6969 15.5541 14.6969 15.8652V19.3843H34.9519V15.8652C34.9519 15.5541 34.8185 15.2557 34.5811 15.0357C34.3437 14.8158 34.0217 14.6922 33.6859 14.6922H31.1541V15.8652C31.1541 16.1763 31.0207 16.4747 30.7833 16.6947C30.5459 16.9147 30.2239 17.0382 29.8881 17.0382C29.5524 17.0382 29.2304 16.9147 28.993 16.6947C28.7556 16.4747 28.6222 16.1763 28.6222 15.8652V14.6922H21.0266V15.8652C21.0266 16.1763 20.8932 16.4747 20.6558 16.6947C20.4184 16.9147 20.0964 17.0382 19.7606 17.0382C19.4249 17.0382 19.1029 16.9147 18.8655 16.6947C18.6281 16.4747 18.4947 16.1763 18.4947 15.8652V14.6922H15.9628Z" fill="#2163a5"/>
</svg>









