<svg width="100" height="100" viewBox="0 0 100 100" fill="none" xmlns="http://www.w3.org/2000/svg">
<circle cx="50" cy="50" r="50" fill="#2163a5"/>
<path d="M50.5 17C68.4197 17 83 31.5803 83 49.5C83 67.4217 68.4197 82.002 50.5 82.002C32.5783 82.002 18 67.4217 18 49.5C18 31.5803 32.5783 17 50.5 17ZM57.1889 75.2075C67.6925 72.4694 75.6895 63.4811 76.9164 52.4555H65.0742C64.4142 60.5847 61.701 68.4133 57.1889 75.2075V75.2075ZM24.0836 52.4555C25.3064 63.4811 33.3055 72.4694 43.807 75.2075C39.2897 68.4154 36.5741 60.586 35.9156 52.4555H24.0836ZM43.8111 23.7945C33.3075 26.5347 25.3105 35.523 24.0836 46.5445H35.9258C36.5856 38.4159 39.2989 30.5879 43.8111 23.7945V23.7945ZM41.8205 46.5445H59.1836C58.4487 38.5306 55.4355 30.8944 50.5 24.538C45.5688 30.8965 42.5574 38.5318 41.8205 46.5445V46.5445ZM41.8144 52.4555C42.5497 60.4703 45.5636 68.1072 50.5 74.4641C55.4319 68.1044 58.4433 60.4676 59.1795 52.4534H41.8123L41.8144 52.4555ZM76.9164 46.5445C75.6895 35.523 67.6925 26.5347 57.1889 23.7945C61.7072 30.5854 64.4229 38.4144 65.0803 46.5445H76.9164V46.5445Z" fill="white"/>
</svg>
