<svg width="54" height="54" viewBox="0 0 54 54" fill="none" xmlns="http://www.w3.org/2000/svg">
<path d="M54 14.364L27.6943 0H26.3057L0 14.364V48.6H3.85714V21.6L12.7671 26.46C10.7989 30.384 9.73562 35.0572 9.72 39.852C9.68188 40.4448 9.68188 41.0412 9.72 41.634V42.228L10.8 44.388L26.1514 54H27.7329L42.93 44.226L44.01 42.066V41.418C44.01 40.878 44.01 40.284 44.01 39.69C43.9882 34.9216 42.9397 30.2732 41.0014 26.352L54 19.278V14.364ZM40.4229 39.636V40.014L27 48.6L13.5 39.96C13.482 39.8535 13.482 39.7425 13.5 39.636C13.521 35.474 14.5397 31.4425 16.3929 28.188L26.3443 33.588H27.7329L37.6071 28.188C39.4433 31.4485 40.4359 35.484 40.4229 39.636ZM27 28.35L5.86286 16.848L27 5.4L48.1371 16.956L27 28.35Z" fill="#9A92E6"/>
</svg>
