<svg width="54" height="54" viewBox="0 0 54 54" fill="none" xmlns="http://www.w3.org/2000/svg">
<path fill-rule="evenodd" clip-rule="evenodd" d="M31.2861 14.1692C30.0175 15.0193 28.5261 15.473 27.0004 15.473C24.9544 15.473 22.9924 14.6577 21.5458 13.2069C20.0991 11.756 19.2862 9.7883 19.2862 7.73646C19.2862 6.20632 19.7386 4.71077 20.5862 3.43851C21.4338 2.16625 22.6387 1.17435 24.0482 0.588789C25.4578 0.00323177 27.009 -0.149814 28.5054 0.1487C30.0018 0.447215 31.3761 1.18407 32.4549 2.26604C33.5338 3.34801 34.2685 4.72658 34.5662 6.22731C34.8638 7.72804 34.7112 9.28348 34.1273 10.6971C33.5435 12.1108 32.5547 13.3191 31.2861 14.1692ZM29.1431 4.52031C28.5088 4.09526 27.7632 3.86821 27.0004 3.86821C25.9774 3.86821 24.9964 4.27557 24.2731 5.00101C23.5497 5.72645 23.1433 6.71053 23.1433 7.73646C23.1433 8.50152 23.3695 9.2493 23.7933 9.88543C24.2171 10.5216 24.8195 11.0173 25.5243 11.3101C26.2291 11.6028 27.0045 11.6798 27.7527 11.5306C28.5009 11.3813 29.1882 11.0129 29.7276 10.4719C30.2671 9.93092 30.6344 9.2414 30.7833 8.49103C30.9321 7.74066 30.8558 6.96294 30.5638 6.25611C30.2719 5.54928 29.7774 4.94536 29.1431 4.52031ZM39.2142 4.64067C40.1657 3.99944 41.2843 3.65718 42.4285 3.65718C43.963 3.65718 45.4346 4.27201 46.5196 5.36642C47.6046 6.46083 48.2141 7.94517 48.2141 9.4929C48.2141 10.6471 47.8748 11.7754 47.2391 12.7351C46.6033 13.6947 45.6998 14.4427 44.6426 14.8844C43.5854 15.3261 42.4221 15.4417 41.2998 15.2165C40.1775 14.9913 39.1466 14.4355 38.3375 13.6194C37.5284 12.8032 36.9774 11.7634 36.7541 10.6314C36.5309 9.49937 36.6455 8.326 37.0833 7.25966C37.5212 6.19333 38.2628 5.28191 39.2142 4.64067ZM41.0649 10.8684C41.4265 11.2332 41.9171 11.4381 42.4285 11.4381C42.94 11.4381 43.4305 11.2332 43.7922 10.8684C44.1539 10.5036 44.3571 10.0088 44.3571 9.4929C44.3472 8.98011 44.1408 8.49109 43.7813 8.12843C43.4217 7.76576 42.9369 7.55762 42.4285 7.54766C41.9171 7.54766 41.4265 7.7526 41.0649 8.1174C40.7032 8.48221 40.5 8.97699 40.5 9.4929C40.5 10.0088 40.7032 10.5036 41.0649 10.8684ZM8.44821 44.4294H15.4295V48.3199H8.44821C7.22736 48.3096 6.05997 47.8132 5.20029 46.9388C4.34061 46.0644 3.85827 44.8828 3.85831 43.6513V36.6484C3.3397 36.6313 2.82986 36.5087 2.35931 36.2881C1.88876 36.0675 1.46718 35.7534 1.1198 35.3646C0.752956 34.9919 0.46473 34.5481 0.272493 34.06C0.0802564 33.5719 -0.0120112 33.0496 0.0012515 32.5245V24.0822C0.0128299 22.2588 0.732951 20.5128 2.00692 19.2191C3.27528 17.9364 4.99366 17.2096 6.78967 17.196H13.8867C12.9302 18.3377 12.209 19.6604 11.7653 21.0865H6.78967C6.00808 21.1079 5.26366 21.4277 4.70686 21.9813C4.16191 22.5423 3.85719 23.2968 3.85831 24.0822V32.7191H7.71537V43.6513C7.70651 43.7567 7.71904 43.8628 7.75219 43.9631C7.78535 44.0635 7.83844 44.1559 7.90822 44.2349C8.06327 44.3557 8.25234 44.4239 8.44821 44.4294ZM36.6045 19.2191C35.3267 17.9269 33.5926 17.1993 31.7832 17.196H22.2177C20.4217 17.2096 18.7033 17.9364 17.4349 19.2191C16.161 20.5128 15.4408 22.2588 15.4293 24.0822V36.3761C15.4238 37.4331 15.8247 38.4511 16.5478 39.2162C16.8952 39.605 17.3168 39.9191 17.7873 40.1397C18.2579 40.3603 18.7677 40.4828 19.2863 40.5V49.487C19.2827 50.101 19.4002 50.7096 19.632 51.2773C19.8637 51.845 20.2051 52.3606 20.6363 52.7939C21.3299 53.4454 22.205 53.8664 23.1434 54H30.8575C31.9412 53.8651 32.9363 53.3283 33.6492 52.4941C34.3622 51.66 34.7419 50.5881 34.7145 49.487V40.5C35.2332 40.4828 35.743 40.3603 36.2135 40.1397C36.6841 39.9191 37.1057 39.605 37.4531 39.2162C37.8199 38.8434 38.1081 38.3997 38.3004 37.9116C38.4926 37.4235 38.5849 36.9012 38.5716 36.3761V24.0822C38.5744 22.2635 37.8679 20.5167 36.6045 19.2191ZM34.7145 36.5706H30.8575V49.487C30.8546 49.6923 30.7714 49.8881 30.6261 50.0317C30.5603 50.1103 30.4772 50.1723 30.3834 50.2128C30.2897 50.2534 30.1879 50.2713 30.0861 50.2651H23.8762C23.6746 50.2557 23.4838 50.1707 23.3412 50.0267C23.1985 49.8828 23.1142 49.6904 23.1048 49.487V36.5706H19.2863V24.0822C19.2852 23.2968 19.5899 22.5423 20.1349 21.9813C20.6917 21.4277 21.4361 21.1079 22.2177 21.0865H31.7832C32.5665 21.0999 33.3137 21.4209 33.866 21.9813C34.1411 22.2553 34.3582 22.5828 34.5041 22.9439C34.6499 23.305 34.7215 23.6923 34.7145 24.0822V36.5706ZM45.5528 48.3199H38.5715V44.4294H45.5142C45.7101 44.4239 45.8992 44.3557 46.0542 44.2349C46.1309 44.1592 46.1911 44.0682 46.231 43.9677C46.2708 43.8672 46.2894 43.7595 46.2856 43.6513V32.7191H50.1427V24.0822C50.1438 23.2968 49.8391 22.5423 49.2942 21.9813C48.7374 21.4277 47.9929 21.1079 47.2113 21.0865H42.2357C41.792 19.6604 41.0708 18.3377 40.1144 17.196H47.2113C49.0074 17.2096 50.7257 17.9364 51.9941 19.2191C53.2681 20.5128 53.9882 22.2588 53.9998 24.0822V32.5245C54.0014 33.579 53.6026 34.5941 52.8852 35.3611C52.1678 36.1281 51.1864 36.5888 50.1427 36.6485V43.6513C50.1427 44.8828 49.6604 46.0644 48.8007 46.9388C47.941 47.8132 46.7737 48.3096 45.5528 48.3199ZM11.5721 3.65718C10.4278 3.65718 9.30922 3.99944 8.35779 4.64067C7.40635 5.28191 6.6648 6.19333 6.2269 7.25966C5.78901 8.326 5.67443 9.49937 5.89767 10.6314C6.12091 11.7634 6.67193 12.8032 7.48106 13.6194C8.29019 14.4355 9.32108 14.9913 10.4434 15.2165C11.5657 15.4417 12.729 15.3261 13.7861 14.8844C14.8433 14.4427 15.7469 13.6947 16.3826 12.7351C17.0184 11.7754 17.3577 10.6471 17.3577 9.4929C17.3577 7.94517 16.7481 6.46083 15.6631 5.36642C14.5781 4.27201 13.1065 3.65718 11.5721 3.65718ZM11.5721 11.4381C11.0606 11.4381 10.5701 11.2332 10.2084 10.8684C9.84674 10.5036 9.64356 10.0088 9.64356 9.4929C9.64356 8.97699 9.84674 8.48221 10.2084 8.1174C10.5701 7.7526 11.0606 7.54766 11.5721 7.54766C12.0805 7.55762 12.5653 7.76576 12.9248 8.12843C13.2844 8.49109 13.4907 8.98011 13.5006 9.4929C13.5006 10.0088 13.2974 10.5036 12.9358 10.8684C12.5741 11.2332 12.0836 11.4381 11.5721 11.4381Z" fill="#9A92E6"/>
</svg>
