<svg width="100" height="100" viewBox="0 0 100 100" fill="none" xmlns="http://www.w3.org/2000/svg">
<circle cx="50" cy="50" r="50" fill="#2163a5"/>
<path d="M17.1395 30.0082C16.7547 38.0922 17.1664 46.1884 18.3705 54.2186C19.1905 60.3541 22.4711 66.0966 27.7023 70.5534C31.0979 73.2628 34.9165 75.5948 39.0593 77.4891C42.3552 79.0772 45.7703 80.5033 49.2251 81.8645C49.5427 81.9942 49.781 82.059 50.1781 81.9293C57.0469 79.3433 63.4689 76.0306 69.2785 72.0766C74.3808 68.325 77.9672 63.3974 79.5634 57.9458C81.0326 53.5704 81.5489 49.0978 81.8268 44.5604C81.9857 42.4213 81.9857 40.3146 81.9857 38.1756C82.0254 35.5179 81.9857 32.8279 81.8268 30.1702C81.8268 29.6517 81.5886 29.4896 80.9532 29.4248C78.241 29.2086 75.6223 28.4999 73.2892 27.3505C70.5095 25.9245 69.2388 23.7206 68.3652 21.2898C68.0872 20.512 67.8887 19.6693 67.7298 18.8591C67.6504 18.5025 67.4916 18.3405 67.0548 18.3081C61.7913 17.5684 56.4699 17.1352 51.1311 17.0117C44.7378 16.9144 38.424 17.433 32.1498 18.2433C31.3953 18.3405 31.2762 18.6646 31.1968 19.1508C30.8647 21.5083 29.7832 23.754 28.0597 25.6652C26.3919 27.4478 24.0093 28.2904 21.4282 28.8738C20.2369 29.1655 19.0058 29.36 17.7748 29.4572C17.338 29.4896 17.1395 29.5868 17.1395 30.0082ZM48.9471 48.5144L48.9868 35.9392L48.9471 23.2669C48.9471 22.7483 49.1059 22.5862 49.781 22.6186C54.1094 22.6511 58.4377 23.0076 62.7264 23.5585C64.4339 23.753 64.4339 23.7854 64.7516 25.1466C65.6252 28.8738 68.0475 31.499 72.7333 32.4714C73.5275 32.6334 74.3217 32.8603 75.1159 32.8603C76.1086 32.8927 76.2277 33.2816 76.2675 33.9298C76.4263 38.8238 76.466 43.6853 75.9895 48.5468C75.9498 49.1302 75.6718 49.2922 74.957 49.2922H49.9001C49.1853 49.2922 48.9471 49.1302 48.9471 48.5144ZM23.2945 50.0701C23.2151 49.5191 23.4136 49.3571 24.0887 49.3571L47.9543 49.3247C48.7088 49.3247 48.9471 49.4543 48.9471 50.1025L48.9074 75.2852V76.1279C44.0019 74.259 39.3334 72.0011 34.9692 69.3866C32.2636 67.7245 29.9267 65.6966 28.0597 63.3907C25.1504 59.3389 23.5134 54.763 23.2945 50.0701Z" fill="white"/>
</svg>
