<svg width="40" height="40" viewBox="0 0 40 40" fill="none" xmlns="http://www.w3.org/2000/svg">
<g clip-path="url(#clip0_27_2360)">
<path d="M20.0001 1.18299e-05C21.1819 -0.00565256 22.3419 0.319042 23.349 0.937469C24.3562 1.5559 25.1705 2.44345 25.7001 3.50001C25.8724 3.8414 26.1613 4.10978 26.5144 4.25653C26.8675 4.40329 27.2616 4.41871 27.6251 4.30001C28.7492 3.9258 29.9554 3.87261 31.1082 4.14644C32.2609 4.42026 33.3143 5.01023 34.1501 5.85001C34.9899 6.68576 35.5798 7.73922 35.8536 8.89193C36.1275 10.0446 36.0743 11.2509 35.7001 12.375C35.5814 12.7385 35.5968 13.1325 35.7435 13.4857C35.8903 13.8388 36.1587 14.1277 36.5001 14.3C37.5566 14.8296 38.4442 15.6439 39.0626 16.6511C39.681 17.6582 40.0057 18.8182 40.0001 20C40.0057 21.1819 39.681 22.3418 39.0626 23.3489C38.4442 24.3561 37.5566 25.1704 36.5001 25.7C36.1587 25.8723 35.8903 26.1612 35.7435 26.5143C35.5968 26.8675 35.5814 27.2615 35.7001 27.625C36.0743 28.7491 36.1275 29.9554 35.8536 31.1081C35.5798 32.2608 34.9899 33.3143 34.1501 34.15C33.3143 34.9898 32.2609 35.5798 31.1082 35.8536C29.9554 36.1274 28.7492 36.0742 27.6251 35.7C27.2616 35.5813 26.8675 35.5967 26.5144 35.7435C26.1613 35.8902 25.8724 36.1586 25.7001 36.5C25.1705 37.5566 24.3562 38.4441 23.349 39.0626C22.3419 39.681 21.1819 40.0057 20.0001 40C18.8182 40.0057 17.6583 39.681 16.6511 39.0626C15.644 38.4441 14.8297 37.5566 14.3001 36.5C14.1278 36.1586 13.8389 35.8902 13.4857 35.7435C13.1326 35.5967 12.7386 35.5813 12.3751 35.7C11.2509 36.0742 10.0447 36.1274 8.89199 35.8536C7.73928 35.5798 6.68582 34.9898 5.85007 34.15C5.01029 33.3143 4.42032 32.2608 4.1465 31.1081C3.87267 29.9554 3.92586 28.7491 4.30007 27.625C4.41877 27.2615 4.40335 26.8675 4.25659 26.5143C4.10984 26.1612 3.84146 25.8723 3.50007 25.7C2.44351 25.1704 1.55596 24.3561 0.93753 23.3489C0.319103 22.3418 -0.00559152 21.1819 7.2865e-05 20C-0.00559152 18.8182 0.319103 17.6582 0.93753 16.6511C1.55596 15.6439 2.44351 14.8296 3.50007 14.3C3.84146 14.1277 4.10984 13.8388 4.25659 13.4857C4.40335 13.1325 4.41877 12.7385 4.30007 12.375C3.92586 11.2509 3.87267 10.0446 4.1465 8.89193C4.42032 7.73922 5.01029 6.68576 5.85007 5.85001C6.68582 5.01023 7.73928 4.42026 8.89199 4.14644C10.0447 3.87261 11.2509 3.9258 12.3751 4.30001C12.7386 4.41871 13.1326 4.40329 13.4857 4.25653C13.8389 4.10978 14.1278 3.8414 14.3001 3.50001C14.8297 2.44345 15.644 1.5559 16.6511 0.937469C17.6583 0.319042 18.8182 -0.00565256 20.0001 1.18299e-05Z" fill="#FEE1E0"/>
<path d="M18 17.5L20 13L22 17.5L27 18L23.294 21.235L24.5 26L20 23.706L15.5 26L16.706 21.235L13 18L18 17.5Z" stroke="#FF574D" stroke-width="2" stroke-linejoin="round"/>
</g>
<defs>
<clipPath id="clip0_27_2360">
<rect width="40" height="40" fill="white"/>
</clipPath>
</defs>
</svg>
