<svg width="64" height="64" viewBox="0 0 64 64" fill="none" xmlns="http://www.w3.org/2000/svg">
<circle cx="32" cy="32" r="32" fill="#2163a5" fill-opacity="0.3"/>
<g clip-path="url(#clip0_0_1)">
<path d="M30.5271 36.8186H20.3C20.053 36.8184 19.8111 36.7223 19.6027 36.5415C19.3943 36.3607 19.2279 36.1027 19.1232 35.7976C19.0184 35.4926 18.9796 35.1531 19.0112 34.8191C19.0428 34.485 19.1435 34.1701 19.3016 33.9113L32.3016 12.6385C33.1323 11.2789 34.7508 12.2361 34.5896 13.9929L33.4716 26.1822H43.7C43.947 26.1823 44.1889 26.2784 44.3973 26.4592C44.6057 26.64 44.7721 26.8981 44.8768 27.2031C44.9816 27.5082 45.0204 27.8476 44.9888 28.1817C44.9572 28.5158 44.8565 28.8306 44.6984 29.0895L31.6984 50.3622C30.8677 51.7219 29.2492 50.7646 29.4104 49.0078L30.5284 36.8186H30.5271ZM23.0755 33.2731H32C32.1843 33.2732 32.3665 33.3267 32.5345 33.4301C32.7024 33.5335 32.8524 33.6844 32.9743 33.8728C33.0963 34.0612 33.1875 34.2828 33.2418 34.523C33.2962 34.7631 33.3125 35.0163 33.2896 35.2656L32.5395 43.4486L40.9245 29.7276H32C31.8157 29.7276 31.6335 29.6741 31.4655 29.5707C31.2976 29.4673 31.1476 29.3164 31.0257 29.1279C30.9037 28.9395 30.8126 28.7179 30.7582 28.4778C30.7038 28.2376 30.6875 27.9845 30.7104 27.7351L31.4605 19.5522L23.0755 33.2731Z" fill="#2163a5"/>
</g>
<defs>
<clipPath id="clip0_0_1">
<rect width="26" height="39" fill="white" transform="translate(19 12)"/>
</clipPath>
</defs>
</svg>
