<svg width="96" height="96" viewBox="0 0 96 96" fill="none" xmlns="http://www.w3.org/2000/svg">
<path fill-rule="evenodd" clip-rule="evenodd" d="M37.7059 18.2321C22.6459 27.9041 14.2779 39.1621 12.6059 52.0061C9.99986 72.0001 27.8799 81.7861 36.9399 72.9941C45.9999 64.2001 40.5699 53.0401 34.0099 49.9881C27.4499 46.9381 23.4379 48.0001 24.1379 43.9241C24.8379 39.8461 34.1699 28.5441 42.3699 23.2781C42.6604 23.031 42.8458 22.6824 42.8882 22.3033C42.9306 21.9243 42.8267 21.5433 42.5979 21.2381L40.5699 18.6001C39.6899 17.4561 38.8459 17.5001 37.7059 18.2301V18.2321Z" fill="#83DEFF" fill-opacity="1"/>
<path fill-rule="evenodd" clip-rule="evenodd" d="M77.3577 18.2321C62.2977 27.9041 53.9297 39.1621 52.2577 52.0061C49.6517 72.0001 67.5317 81.7861 76.5917 72.9941C85.6517 64.2001 80.2217 53.0401 73.6597 49.9881C67.0997 46.9381 63.0877 48.0001 63.7877 43.9241C64.4877 39.8461 73.8217 28.5441 82.0217 23.2781C82.312 23.0308 82.497 22.682 82.539 22.3029C82.581 21.9239 82.4768 21.5431 82.2477 21.2381L80.2197 18.6001C79.3397 17.4561 78.4957 17.5001 77.3577 18.2301V18.2321Z" fill="#83DEFF" fill-opacity="1"/>
</svg>
