<svg width="64" height="64" viewBox="0 0 64 64" fill="none" xmlns="http://www.w3.org/2000/svg">
<circle cx="32" cy="32" r="32" fill="#9A92E6" fill-opacity="0.3"/>
<g clip-path="url(#clip0_0_1)">
<path d="M49.0001 18.2774C49.0001 21.8524 48.8868 24.7855 48.7618 26.8655C48.7145 28.2098 48.5843 29.5502 48.3718 30.8792C47.9559 33.1547 47.2592 35.3727 46.2968 37.4849C44.4183 41.3182 41.6233 44.6558 38.1468 47.217C36.112 48.7487 33.8844 50.02 31.5184 51C29.1604 50.0383 26.9375 48.7878 24.9034 47.2787C21.4267 44.7171 18.6317 41.379 16.7534 37.545C15.7719 35.4272 15.0584 33.2008 14.6284 30.915C14.4159 29.5859 14.2857 28.2456 14.2384 26.9012C14.0739 24.0414 13.9945 21.1775 14.0001 18.3131C18.1668 18.4317 22.3001 17.5412 26.0234 15.7229C28.0352 14.7368 29.8973 13.4839 31.5568 12C33.2045 13.4805 35.0535 14.7327 37.0518 15.7213C40.7589 17.517 44.8624 18.3954 49.0001 18.279V18.2774ZM35.5701 18.6332C34.162 17.9377 32.8172 17.1266 31.5501 16.2087C30.2787 17.1257 28.9294 17.9352 27.5168 18.6284C24.3422 20.1785 20.8988 21.1374 17.3634 21.4559C17.4018 23.3734 17.4718 25.1609 17.5701 26.7908C17.6134 28.0046 17.7301 29.2153 17.9068 30.33C18.2901 32.3547 18.9218 34.3275 19.7634 36.1475C21.414 39.5135 23.8695 42.4437 26.9234 44.6917C28.3535 45.7533 29.8896 46.6717 31.5084 47.4331C33.1441 46.6522 34.6943 45.7114 36.1351 44.6251C39.1641 42.3981 41.6035 39.4976 43.2501 36.1654C44.0948 34.3153 44.7086 32.3731 45.0784 30.3804C45.2733 29.1535 45.3918 27.9162 45.4334 26.6754C45.5284 25.0975 45.6001 23.3279 45.6368 21.4185C42.1338 21.103 38.7209 20.1587 35.5701 18.6332ZM33.5534 35.7023L30.8334 38.2746L28.1318 35.7023L23.3734 31.1392L26.0734 28.5669L30.8334 33.1413L38.5301 25.8125L41.2634 28.3638L33.5568 35.7023H33.5534Z" fill="#9A92E6"/>
</g>
<defs>
<clipPath id="clip0_0_1">
<rect width="35" height="39" fill="white" transform="translate(14 12)"/>
</clipPath>
</defs>
</svg>
