<svg width="78" height="79" viewBox="0 0 78 79" fill="none" xmlns="http://www.w3.org/2000/svg">
<ellipse cx="39" cy="39.5" rx="39" ry="39.5" fill="#2163a5" fill-opacity="0.3"/>
<path d="M38.7143 13C52.8925 13 64.4286 24.7585 64.4286 39.2101C64.4286 53.6634 52.8925 65.4219 38.7143 65.4219C24.5345 65.4219 13 53.6634 13 39.2101C13 24.7585 24.5345 13 38.7143 13ZM44.0066 59.9423C52.3171 57.7341 58.6445 50.4854 59.6152 41.5936H50.2455C49.7233 48.1496 47.5766 54.463 44.0066 59.9423ZM17.8134 41.5936C18.7809 50.4854 25.1098 57.7341 33.4187 59.9423C29.8446 54.4648 27.696 48.1506 27.175 41.5936H17.8134ZM33.422 18.4796C25.1114 20.6894 18.7841 27.9381 17.8134 36.8266H27.183C27.7051 30.2712 29.8518 23.9582 33.422 18.4796ZM31.847 36.8266H45.5848C45.0033 30.3637 42.6193 24.2054 38.7143 19.0791C34.8127 24.207 32.4301 30.3646 31.847 36.8266ZM31.8421 41.5936C32.424 48.0573 34.8086 54.2162 38.7143 59.3428C42.6164 54.2139 44.9991 48.0551 45.5816 41.592H31.8405L31.8421 41.5936ZM59.6152 36.8266C58.6445 27.9381 52.3171 20.6894 44.0066 18.4796C47.5815 23.9562 49.7302 30.27 50.2504 36.8266H59.6152Z" fill="#2163a5"/>
</svg>

