<?xml version="1.0" encoding="utf-8"?>
<svg viewBox="0 0 500 500" xmlns="http://www.w3.org/2000/svg">
  <path fill="#b5b6ba" d="M 25.702 152.019 L 467.042 152.019 C 475.16 152.019 481.753 135.453 481.753 114.975 C 481.753 94.496 475.16 77.918 467.042 77.918 L 25.702 77.918 C 17.581 77.918 10.99 94.496 10.99 114.975 C 10.99 135.453 17.566 152.019 25.702 152.019 Z" style=""/>
  <path fill="#b5b6ba" d="M 25.702 408.142 L 467.042 408.142 C 475.16 408.142 481.753 391.578 481.753 371.1 C 481.753 350.592 475.16 334.04 467.042 334.04 L 25.702 334.04 C 17.581 334.04 10.99 350.592 10.99 371.1 C 10.99 391.578 17.566 408.142 25.702 408.142 Z" style=""/>
  <path fill="#b5b6ba" d="M 25.702 280.094 L 467.042 280.094 C 475.16 280.094 481.753 263.531 481.753 243.022 C 481.753 222.544 475.16 205.98 467.042 205.98 L 25.702 205.98 C 17.581 205.98 10.99 222.544 10.99 243.022 C 10.99 263.531 17.566 280.094 25.702 280.094 Z" style=""/>
</svg>