<svg width="20" height="20" viewBox="0 0 20 20" fill="none" xmlns="http://www.w3.org/2000/svg">
<path d="M13.75 6.875C13.4185 6.875 13.1005 7.0067 12.8661 7.24112C12.6317 7.47554 12.5 7.79348 12.5 8.125C12.5 8.45652 12.6317 8.77446 12.8661 9.00888C13.1005 9.2433 13.4185 9.375 13.75 9.375C14.0815 9.375 14.3995 9.2433 14.6339 9.00888C14.8683 8.77446 15 8.45652 15 8.125C15 7.79348 14.8683 7.47554 14.6339 7.24112C14.3995 7.0067 14.0815 6.875 13.75 6.875ZM10 6.875C9.66848 6.875 9.35051 7.0067 9.11609 7.24112C8.88167 7.47554 8.75 7.79348 8.75 8.125C8.75 8.45652 8.88167 8.77446 9.11609 9.00888C9.35051 9.2433 9.66848 9.375 10 9.375C10.3315 9.375 10.6495 9.2433 10.8839 9.00888C11.1183 8.77446 11.25 8.45652 11.25 8.125C11.25 7.79348 11.1183 7.47554 10.8839 7.24112C10.6495 7.0067 10.3315 6.875 10 6.875ZM6.25 6.875C5.91848 6.875 5.60051 7.0067 5.36609 7.24112C5.13167 7.47554 5 7.79348 5 8.125C5 8.45652 5.13167 8.77446 5.36609 9.00888C5.60051 9.2433 5.91848 9.375 6.25 9.375C6.58152 9.375 6.89949 9.2433 7.13391 9.00888C7.36833 8.77446 7.5 8.45652 7.5 8.125C7.5 7.79348 7.36833 7.47554 7.13391 7.24112C6.89949 7.0067 6.58152 6.875 6.25 6.875ZM15 1.875C16.75 1.875 18.125 3.25 18.125 5V11.25C18.125 13 16.75 14.375 15 14.375H14L12.25 17L10 14.375H5C4.5885 14.379 4.18033 14.3009 3.79938 14.1453C3.41842 13.9897 3.07236 13.7596 2.78137 13.4686C2.49039 13.1777 2.26036 12.8316 2.10474 12.4506C1.94911 12.0697 1.87099 11.6615 1.875 11.25V5C1.875 3.25 3.25 1.875 5 1.875H15ZM15 16.25C17.75 16.25 20 14 20 11.25V5C20 2.25 17.75 0 15 0H5C2.25 0 0 2.25 0 5V11.25C0 14 2.25 16.25 5 16.25H9.125L12.5 20L15 16.25Z" fill="black"/>
</svg>
