<svg width="16" height="12" viewBox="0 0 16 12" fill="none" xmlns="http://www.w3.org/2000/svg">
<g clip-path="url(#clip0_27_669)">
<path d="M0 2C0 0.895431 0.895431 0 2 0H14C15.1046 0 16 0.895431 16 2V10C16 11.1046 15.1046 12 14 12H2C0.895431 12 0 11.1046 0 10V2Z" fill="#E3E5E6"/>
<path fill-rule="evenodd" clip-rule="evenodd" d="M0 0H22.8002V0.923086H0V0ZM0 1.84617H22.8002V2.76926H0V1.84617ZM0 3.69234H22.8002V4.61543H0V3.69234ZM0 5.53852H22.8002V6.4616H0V5.53852ZM0 7.38469H22.8002V8.30777H0V7.38469ZM0 9.23086H22.8002V10.1539H0V9.23086ZM0 11.077H22.8002V12.0001H0V11.077Z" fill="#BD3D44"/>
<path fill-rule="evenodd" clip-rule="evenodd" d="M0 0.923035H22.8002V1.84612H0V0.923035ZM0 2.76921H22.8002V3.69229H0V2.76921ZM0 4.61538H22.8002V5.53847H0V4.61538ZM0 6.46155H22.8002V7.38464H0V6.46155ZM0 8.30772H22.8002V9.23081H0V8.30772ZM0 10.1539H22.8002V11.077H0V10.1539Z" fill="white"/>
<path fill-rule="evenodd" clip-rule="evenodd" d="M0 0H9.12V6.46148H0V0Z" fill="#192F5D"/>
<path fill-rule="evenodd" clip-rule="evenodd" d="M0.759719 0.27655L0.842687 0.531925H1.11123L0.893969 0.689777L0.976961 0.945152L0.759695 0.787324L0.542477 0.945152L0.625445 0.689777L0.408203 0.531925H0.676727L0.759719 0.27655ZM2.27971 0.27655L2.3627 0.531925H2.63125L2.41398 0.689777L2.49698 0.945152L2.27971 0.787324L2.06249 0.945152L2.14546 0.689777L1.92822 0.531925H2.19674L2.27971 0.27655ZM3.79977 0.27655L3.88274 0.531925H4.15129L3.93402 0.689777L4.01702 0.945152L3.79977 0.787324L3.58253 0.945152L3.6655 0.689777L3.44826 0.531925H3.7168L3.79977 0.27655ZM5.31974 0.27655L5.40271 0.531925H5.67123L5.45399 0.689777L5.53696 0.945152L5.31974 0.787324L5.10248 0.945152L5.18547 0.689777L4.9682 0.531925H5.23675L5.31974 0.27655ZM6.83978 0.27655L6.92275 0.531925H7.1913L6.97403 0.689777L7.05702 0.945152L6.83976 0.787324L6.62254 0.945152L6.70551 0.689777L6.48827 0.531925H6.75679L6.83978 0.27655ZM8.35982 0.27655L8.44279 0.531925H8.71134L8.49407 0.689777L8.57706 0.945152L8.35982 0.787324L8.14256 0.945152L8.22557 0.689777L8.00831 0.531925H8.27685L8.35982 0.27655ZM1.51975 0.922722L1.60272 1.1781H1.87127L1.654 1.33593L1.73702 1.59132L1.51975 1.4335L1.30251 1.59132L1.38548 1.33593L1.16823 1.1781H1.43678L1.51975 0.922722ZM3.03972 0.922722L3.12269 1.1781H3.39121L3.17397 1.33593L3.25694 1.59132L3.03972 1.4335L2.82245 1.59132L2.90545 1.33593L2.68818 1.1781H2.95673L3.03972 0.922722ZM4.55976 0.922722L4.64273 1.1781H4.91127L4.69401 1.33593L4.777 1.59132L4.55973 1.4335L4.34252 1.59132L4.42548 1.33593L4.20824 1.1781H4.47677L4.55976 0.922722ZM6.0798 0.922722L6.16277 1.1781H6.43131L6.21405 1.33593L6.29704 1.59132L6.0798 1.4335L5.86253 1.59132L5.94557 1.33593L5.7283 1.1781H5.99685L6.0798 0.922722ZM7.59977 0.922722L7.68273 1.1781H7.95126L7.73402 1.33593L7.81698 1.59132L7.59977 1.4335L7.3825 1.59132L7.46549 1.33593L7.24823 1.1781H7.51677L7.59977 0.922722ZM0.759719 1.56887L0.842687 1.82425H1.11123L0.893969 1.9821L0.976961 2.23747L0.759695 2.07964L0.542477 2.23747L0.625445 1.9821L0.408203 1.82425H0.676727L0.759719 1.56887ZM2.27971 1.56887L2.3627 1.82425H2.63125L2.41398 1.9821L2.49698 2.23747L2.27971 2.07964L2.06249 2.23747L2.14546 1.9821L1.92822 1.82425H2.19674L2.27971 1.56887ZM3.79977 1.56887L3.88274 1.82425H4.15129L3.93402 1.9821L4.01702 2.23747L3.79977 2.07964L3.58253 2.23747L3.6655 1.9821L3.44826 1.82425H3.7168L3.79977 1.56887ZM5.31974 1.56887L5.40271 1.82425H5.67123L5.45399 1.9821L5.53696 2.23747L5.31974 2.07964L5.10248 2.23747L5.18547 1.9821L4.9682 1.82425H5.23675L5.31974 1.56887ZM6.83978 1.56887L6.92275 1.82425H7.1913L6.97403 1.9821L7.05702 2.23747L6.83976 2.07964L6.62254 2.23747L6.70551 1.9821L6.48827 1.82425H6.75679L6.83978 1.56887ZM8.35982 1.56887L8.44279 1.82425H8.71134L8.49407 1.9821L8.57706 2.23747L8.35982 2.07964L8.14256 2.23747L8.22557 1.9821L8.00831 1.82425H8.27685L8.35982 1.56887ZM1.51975 2.21502L1.60272 2.47042H1.87127L1.654 2.62825L1.73702 2.88364L1.51975 2.72582L1.30251 2.88364L1.38548 2.62825L1.16823 2.47042H1.43678L1.51975 2.21502ZM3.03972 2.21502L3.12269 2.47042H3.39121L3.17397 2.62825L3.25694 2.88364L3.03972 2.72582L2.82245 2.88364L2.90545 2.62825L2.68818 2.47042H2.95673L3.03972 2.21502ZM4.55976 2.21502L4.64273 2.47042H4.91127L4.69401 2.62825L4.777 2.88364L4.55973 2.72582L4.34252 2.88364L4.42548 2.62825L4.20824 2.47042H4.47677L4.55976 2.21502ZM6.0798 2.21502L6.16277 2.47042H6.43131L6.21405 2.62825L6.29704 2.88364L6.0798 2.72582L5.86253 2.88364L5.94555 2.62825L5.72828 2.47042H5.99683L6.0798 2.21502ZM7.59977 2.21502L7.68273 2.47042H7.95126L7.73402 2.62825L7.81698 2.88364L7.59977 2.72582L7.3825 2.88364L7.46549 2.62825L7.24823 2.47042H7.51677L7.59977 2.21502ZM0.759719 2.86119L0.842687 3.11657H1.11123L0.893969 3.27442L0.976961 3.52979L0.759695 3.37196L0.542477 3.52979L0.625445 3.27442L0.408203 3.11657H0.676727L0.759719 2.86119ZM2.27971 2.86119L2.3627 3.11657H2.63125L2.41398 3.27442L2.49698 3.52979L2.27971 3.37196L2.06249 3.52979L2.14546 3.27442L1.92822 3.11657H2.19674L2.27971 2.86119ZM3.79977 2.86119L3.88274 3.11657H4.15129L3.93402 3.27442L4.01702 3.52979L3.79977 3.37196L3.58253 3.52979L3.6655 3.27442L3.44826 3.11657H3.7168L3.79977 2.86119ZM5.31974 2.86119L5.40271 3.11657H5.67123L5.45399 3.27442L5.53696 3.52979L5.31974 3.37196L5.10248 3.52979L5.18547 3.27442L4.9682 3.11657H5.23675L5.31974 2.86119ZM6.83978 2.86119L6.92275 3.11657H7.1913L6.97403 3.27442L7.05702 3.52979L6.83976 3.37196L6.62254 3.52979L6.70551 3.27442L6.48827 3.11657H6.75679L6.83978 2.86119ZM8.35982 2.86119L8.44279 3.11657H8.71134L8.49407 3.27442L8.57706 3.52979L8.35982 3.37196L8.14256 3.52979L8.22557 3.27442L8.00831 3.11657H8.27685L8.35982 2.86119ZM1.51975 3.50734L1.60272 3.76274H1.87127L1.654 3.92057L1.73702 4.17596L1.51975 4.01814L1.30251 4.17596L1.38548 3.92057L1.16823 3.76274H1.43678L1.51975 3.50734ZM3.03972 3.50734L3.12269 3.76274H3.39121L3.17397 3.92057L3.25694 4.17596L3.03972 4.01814L2.82245 4.17596L2.90545 3.92057L2.68818 3.76274H2.95673L3.03972 3.50734ZM4.55976 3.50734L4.64273 3.76274H4.91127L4.69401 3.92057L4.777 4.17596L4.55973 4.01814L4.34252 4.17596L4.42548 3.92057L4.20824 3.76274H4.47677L4.55976 3.50734ZM6.0798 3.50734L6.16277 3.76274H6.43131L6.21405 3.92057L6.29704 4.17596L6.0798 4.01814L5.86253 4.17596L5.94555 3.92057L5.72828 3.76274H5.99683L6.0798 3.50734ZM7.59977 3.50734L7.68273 3.76274H7.95126L7.73402 3.92057L7.81698 4.17596L7.59977 4.01814L7.3825 4.17596L7.46549 3.92057L7.24823 3.76274H7.51677L7.59977 3.50734ZM0.759719 4.15351L0.842687 4.40889H1.11123L0.893969 4.56674L0.976961 4.82211L0.759695 4.66428L0.542477 4.82211L0.625445 4.56674L0.408203 4.40889H0.676727L0.759719 4.15351ZM2.27971 4.15351L2.3627 4.40889H2.63125L2.41398 4.56674L2.49698 4.82211L2.27971 4.66428L2.06249 4.82211L2.14546 4.56674L1.92822 4.40889H2.19674L2.27971 4.15351ZM3.79977 4.15351L3.88274 4.40889H4.15129L3.93402 4.56674L4.01702 4.82211L3.79977 4.66428L3.58253 4.82211L3.6655 4.56674L3.44826 4.40889H3.7168L3.79977 4.15351ZM5.31974 4.15351L5.40271 4.40889H5.67123L5.45399 4.56674L5.53696 4.82211L5.31974 4.66428L5.10248 4.82211L5.18547 4.56674L4.9682 4.40889H5.23675L5.31974 4.15351ZM6.83978 4.15351L6.92275 4.40889H7.1913L6.97403 4.56674L7.05702 4.82211L6.83976 4.66428L6.62254 4.82211L6.70551 4.56674L6.48827 4.40889H6.75679L6.83978 4.15351ZM8.35982 4.15351L8.44279 4.40889H8.71134L8.49407 4.56674L8.57706 4.82211L8.35982 4.66428L8.14256 4.82211L8.22557 4.56674L8.00831 4.40889H8.27685L8.35982 4.15351ZM1.51975 4.79966L1.60272 5.05506H1.87127L1.654 5.21289L1.73702 5.46828L1.51975 5.31046L1.30251 5.46828L1.38548 5.21289L1.16823 5.05506H1.43678L1.51975 4.79966ZM3.03972 4.79966L3.12269 5.05506H3.39121L3.17397 5.21289L3.25694 5.46828L3.03972 5.31046L2.82245 5.46828L2.90545 5.21289L2.68818 5.05506H2.95673L3.03972 4.79966ZM4.55976 4.79966L4.64273 5.05506H4.91127L4.69401 5.21289L4.777 5.46828L4.55973 5.31046L4.34252 5.46828L4.42548 5.21289L4.20824 5.05506H4.47677L4.55976 4.79966ZM6.0798 4.79966L6.16277 5.05506H6.43131L6.21405 5.21289L6.29704 5.46828L6.0798 5.31046L5.86253 5.46828L5.94555 5.21289L5.72828 5.05506H5.99683L6.0798 4.79966ZM7.59977 4.79966L7.68273 5.05506H7.95126L7.73402 5.21289L7.81698 5.46828L7.59977 5.31046L7.3825 5.46828L7.46549 5.21289L7.24823 5.05506H7.51677L7.59977 4.79966ZM0.759719 5.44583L0.842687 5.70121H1.11123L0.893969 5.85906L0.976961 6.11443L0.759695 5.9566L0.542477 6.11443L0.625445 5.85906L0.408203 5.70121H0.676727L0.759719 5.44583ZM2.27971 5.44583L2.3627 5.70121H2.63125L2.41398 5.85906L2.49698 6.11443L2.27971 5.9566L2.06249 6.11443L2.14546 5.85906L1.92822 5.70121H2.19674L2.27971 5.44583ZM3.79977 5.44583L3.88274 5.70121H4.15129L3.93402 5.85906L4.01702 6.11443L3.79977 5.9566L3.58253 6.11443L3.6655 5.85906L3.44826 5.70121H3.7168L3.79977 5.44583ZM5.31974 5.44583L5.40271 5.70121H5.67123L5.45399 5.85906L5.53696 6.11443L5.31974 5.9566L5.10248 6.11443L5.18547 5.85906L4.9682 5.70121H5.23675L5.31974 5.44583ZM6.83978 5.44583L6.92275 5.70121H7.1913L6.97403 5.85906L7.05702 6.11443L6.83976 5.9566L6.62254 6.11443L6.70551 5.85906L6.48827 5.70121H6.75679L6.83978 5.44583ZM8.35982 5.44583L8.44279 5.70121H8.71134L8.49407 5.85906L8.57706 6.11443L8.35982 5.9566L8.14256 6.11443L8.22557 5.85906L8.00831 5.70121H8.27685L8.35982 5.44583Z" fill="white"/>
</g>
<path d="M0.5 2C0.5 1.17157 1.17157 0.5 2 0.5H14C14.8284 0.5 15.5 1.17157 15.5 2V10C15.5 10.8284 14.8284 11.5 14 11.5H2C1.17157 11.5 0.5 10.8284 0.5 10V2Z" stroke="#E3E5E6"/>
<defs>
<clipPath id="clip0_27_669">
<path d="M0 2C0 0.895431 0.895431 0 2 0H14C15.1046 0 16 0.895431 16 2V10C16 11.1046 15.1046 12 14 12H2C0.895431 12 0 11.1046 0 10V2Z" fill="white"/>
</clipPath>
</defs>
</svg>
