<svg width="64" height="64" viewBox="0 0 64 64" fill="none" xmlns="http://www.w3.org/2000/svg">
<circle cx="32" cy="32" r="32" fill="#2163a5" fill-opacity="0.3"/>
<path fill-rule="evenodd" clip-rule="evenodd" d="M45 24.9981C45 29.1948 42.9915 32.922 39.8959 35.3006L41.7354 49.1566C41.7773 49.4602 41.7324 49.7694 41.6057 50.0485C41.479 50.3276 41.2759 50.5651 41.0197 50.7335C40.7636 50.9018 40.465 50.9941 40.1585 50.9997C39.852 51.0053 39.5502 50.924 39.2881 50.7651L32 46.3896L24.7102 50.7618C24.4481 50.9192 24.1468 50.9994 23.841 50.9932C23.5353 50.9871 23.2375 50.8947 22.9819 50.7269C22.7262 50.5591 22.5232 50.3225 22.396 50.0444C22.2689 49.7664 22.2227 49.4581 22.263 49.1549L24.1041 35.3006C22.5185 34.0912 21.2332 32.5325 20.348 30.7457C19.4628 28.9589 19.0015 26.9921 19 24.9981C19 17.8329 24.8321 12 32 12C39.1679 12 45 17.8329 45 24.9981ZM38.071 46.2434L36.8506 37.0489C35.3098 37.6742 33.6629 37.9964 32 37.9977C30.3378 37.9964 28.6914 37.6748 27.151 37.0505L25.929 46.2434L31.1631 43.1027C31.416 42.9521 31.7048 42.8725 31.9992 42.8725C32.2935 42.8725 32.5824 42.9521 32.8352 43.1027L38.071 46.2434V46.2434ZM22.25 24.9981C22.2526 27.5829 23.2806 30.0611 25.1085 31.889C26.9363 33.7169 29.4148 34.7452 32 34.7482C37.3755 34.7482 41.75 30.3744 41.75 24.9997C41.75 19.6234 37.3755 15.2511 32 15.2511C26.6229 15.2511 22.25 19.6234 22.25 24.9997V24.9981ZM32 29.8723C30.7071 29.8723 29.4671 29.3588 28.5529 28.4447C27.6386 27.5306 27.125 26.2908 27.125 24.9981C27.125 23.7053 27.6386 22.4655 28.5529 21.5514C29.4671 20.6373 30.7071 20.1238 32 20.1238C33.2929 20.1238 34.5329 20.6373 35.4471 21.5514C36.3614 22.4655 36.875 23.7053 36.875 24.9981C36.875 26.2908 36.3614 27.5306 35.4471 28.4447C34.5329 29.3588 33.2929 29.8723 32 29.8723Z" fill="#2163a5"/>
</svg>
