
<svg width="100" height="100" viewBox="0 0 100 100" fill="none" xmlns="http://www.w3.org/2000/svg">
<circle cx="50" cy="50" r="50" fill="#2163a5" fill-opacity="0.3"/>
<path d="M59.2889 63.803C60.5862 62.6988 61.7582 61.4331 62.7806 60.032L73.9695 72.116C74.4178 72.6193 74.6654 73.2924 74.6591 73.9908C74.6529 74.6891 74.3932 75.3569 73.936 75.8508C73.4787 76.3446 72.8604 76.625 72.2137 76.6318C71.5671 76.6386 70.9438 76.3711 70.4778 75.887L59.2889 63.803ZM46.2972 68.666C40.7306 68.666 35.392 66.2777 31.4559 62.0267C27.5197 57.7756 25.3083 52.0099 25.3083 45.998C25.3083 39.986 27.5197 34.2203 31.4559 29.9693C35.392 25.7182 40.7306 23.33 46.2972 23.33C51.8638 23.33 57.2024 25.7182 61.1386 29.9693C65.0748 34.2203 67.2861 39.986 67.2861 45.998C67.2861 52.0099 65.0748 57.7756 61.1386 62.0267C57.2024 66.2777 51.8638 68.666 46.2972 68.666ZM46.2972 63.332C50.554 63.332 54.6363 61.5057 57.6463 58.2549C60.6563 55.0042 62.3472 50.5952 62.3472 45.998C62.3472 41.4007 60.6563 36.9917 57.6463 33.741C54.6363 30.4902 50.554 28.664 46.2972 28.664C42.0405 28.664 37.9581 30.4902 34.9482 33.741C31.9382 36.9917 30.2472 41.4007 30.2472 45.998C30.2472 50.5952 31.9382 55.0042 34.9482 58.2549C37.9581 61.5057 42.0405 63.332 46.2972 63.332Z" fill="#2163a5"/>
</svg>
