<svg width="54" height="54" viewBox="0 0 54 54" fill="none" xmlns="http://www.w3.org/2000/svg">
<path fill-rule="evenodd" clip-rule="evenodd" d="M27 0C41.9121 0 54 12.0879 54 27C54 41.9121 41.9121 54 27 54C12.0879 54 0 41.9121 0 27C0 12.0879 12.0879 0 27 0ZM27 49.41C39.3579 49.41 49.41 39.3552 49.41 27C49.41 14.6448 39.3579 4.59 27 4.59C14.6421 4.59 4.59 14.6448 4.59 27C4.59 39.3552 14.6421 49.41 27 49.41ZM25.758 44.2314V40.9185C21.9321 40.6215 19.0971 39.1878 17.1828 37.0899L19.575 33.7743C21.2055 35.5353 23.3854 36.6909 25.758 37.0521V29.943C21.9672 28.9872 17.955 27.621 17.955 22.8015C17.955 19.0458 21.0114 16.1001 25.758 15.6951V12.2742H28.7064V15.7302C31.6872 16.065 34.1928 17.2071 36.1044 19.0485L33.642 22.248C32.279 20.9337 30.5666 20.0395 28.7091 19.6722V26.0037C32.5377 27.0351 36.6606 28.4715 36.6606 33.4017C36.6606 37.1601 34.2306 40.4352 28.7091 40.9158V44.2287H25.758V44.2314ZM32.2785 33.8094C32.2785 32.1543 30.7314 31.3443 28.7064 30.7179V37.0899C31.2444 36.6849 32.2785 35.2107 32.2785 33.8121V33.8094ZM22.3695 22.5099C22.3695 23.9409 23.8086 24.6807 25.7607 25.2342V19.4886C23.6628 19.71 22.3722 20.8899 22.3722 22.5099H22.3695Z" fill="#2163a5"/>
</svg>
