<svg width="64" height="64" viewBox="0 0 64 64" fill="none" xmlns="http://www.w3.org/2000/svg">
<circle cx="32" cy="32" r="32" fill="#2163a5" fill-opacity="0.3"/>
<g opacity="0.6">
<path fill-rule="evenodd" clip-rule="evenodd" d="M31.5 15.5466C22.7043 15.5466 15.5466 22.7031 15.5466 31.5C15.5466 40.2969 22.7031 47.4534 31.5 47.4534C40.2982 47.4534 47.4534 40.2957 47.4534 31.5C47.4534 22.7043 40.2994 15.5466 31.5 15.5466ZM31.5 51C20.7482 51 12 42.253 12 31.5C12 20.7482 20.7482 12 31.5 12C42.2518 12 51 20.7482 51 31.5C51 42.253 42.2518 51 31.5 51ZM29.1429 29.1429L36.2141 26.7871L33.8571 33.8558L26.7847 36.2129L29.1429 29.1429ZM23.9827 40.7881C24.1704 40.7881 24.3606 40.7601 24.5434 40.6979L35.8193 36.9393C36.3494 36.7662 36.7638 36.3494 36.9405 35.8205L40.6979 24.5446C40.8018 24.2323 40.8168 23.8972 40.7411 23.5768C40.6654 23.2565 40.502 22.9635 40.2693 22.7307C40.0365 22.498 39.7435 22.3346 39.4232 22.2589C39.1028 22.1832 38.7677 22.1982 38.4554 22.3021L27.1808 26.0607C26.9197 26.1475 26.6825 26.2939 26.4878 26.4883C26.2932 26.6827 26.1466 26.9198 26.0595 27.1808L22.3021 38.4542C22.2125 38.7206 22.1876 39.0046 22.2295 39.2825C22.2715 39.5605 22.379 39.8245 22.5433 40.0526C22.7076 40.2807 22.9238 40.4664 23.1741 40.5943C23.4245 40.7222 23.7016 40.7886 23.9827 40.7881Z" fill="#2163a5"/>
</g>
</svg>
