<svg width="64" height="64" viewBox="0 0 64 64" fill="none" xmlns="http://www.w3.org/2000/svg">
<circle cx="32" cy="32" r="32" fill="#2163a5" fill-opacity="0.3"/>
<path fill-rule="evenodd" clip-rule="evenodd" d="M32 12C43.046 12 52 20.954 52 32C52 43.046 43.046 52 32 52C20.954 52 12 43.046 12 32C12 20.954 20.954 12 32 12ZM32 48.6C41.154 48.6 48.6 41.152 48.6 32C48.6 22.848 41.154 15.4 32 15.4C22.846 15.4 15.4 22.848 15.4 32C15.4 41.152 22.846 48.6 32 48.6ZM31.08 44.764V42.31C28.246 42.09 26.146 41.028 24.728 39.474L26.5 37.018C27.7078 38.3225 29.3225 39.1785 31.08 39.446V34.18C28.272 33.472 25.3 32.46 25.3 28.89C25.3 26.108 27.564 23.926 31.08 23.626V21.092H33.264V23.652C35.472 23.9 37.328 24.746 38.744 26.11L36.92 28.48C35.9104 27.5065 34.6419 26.8441 33.266 26.572V31.262C36.102 32.026 39.156 33.09 39.156 36.742C39.156 39.526 37.356 41.952 33.266 42.308V44.762H31.08V44.764ZM35.91 37.044C35.91 35.818 34.764 35.218 33.264 34.754V39.474C35.144 39.174 35.91 38.082 35.91 37.046V37.044ZM28.57 28.674C28.57 29.734 29.636 30.282 31.082 30.692V26.436C29.528 26.6 28.572 27.474 28.572 28.674H28.57Z" fill="#2163a5"/>
</svg>
