<svg width="100" height="100" viewBox="0 0 100 100" fill="none" xmlns="http://www.w3.org/2000/svg">
<circle cx="50" cy="50" r="50" fill="#9A92E6" fill-opacity="0.3"/>
<path d="M49.5 17C67.4197 17 82 31.5803 82 49.5C82 67.4217 67.4197 82.002 49.5 82.002C31.5783 82.002 17 67.4217 17 49.5C17 31.5803 31.5783 17 49.5 17ZM56.1889 75.2075C66.6925 72.4694 74.6895 63.4811 75.9164 52.4555H64.0742C63.4142 60.5847 60.701 68.4133 56.1889 75.2075ZM23.0836 52.4555C24.3064 63.4811 32.3055 72.4694 42.807 75.2075C38.2897 68.4154 35.5741 60.586 34.9156 52.4555H23.0836ZM42.8111 23.7945C32.3075 26.5347 24.3105 35.523 23.0836 46.5445H34.9258C35.5856 38.4159 38.2989 30.5879 42.8111 23.7945ZM40.8205 46.5445H58.1836C57.4487 38.5306 54.4355 30.8944 49.5 24.538C44.5688 30.8965 41.5574 38.5318 40.8205 46.5445ZM40.8144 52.4555C41.5497 60.4703 44.5636 68.1072 49.5 74.4641C54.4319 68.1044 57.4433 60.4676 58.1795 52.4534H40.8123L40.8144 52.4555ZM75.9164 46.5445C74.6895 35.523 66.6925 26.5347 56.1889 23.7945C60.7072 30.5854 63.4229 38.4144 64.0803 46.5445H75.9164Z" fill="#9A92E6"/>
</svg>
